<?xml version="1.0" standalone="no"?>
<!DOCTYPE svg PUBLIC "-//W3C//DTD SVG 1.1//EN" "http://www.w3.org/Graphics/SVG/1.1/DTD/svg11.dtd" >
<svg>
<metadata>
Created by FontForge 20090914 at Sun Jul 31 11:10:52 2022
 By www-data
Copyright 2019 The Commissioner Project Authors (https://github.com/kosbarts/Commissioner)
</metadata>
<defs>
<font id="Commissioner-Regular" horiz-adv-x="0" >
  <font-face 
    font-family="Commissioner"
    font-weight="400"
    font-stretch="normal"
    units-per-em="2000"
    panose-1="0 0 0 0 0 0 0 0 0 0"
    ascent="1600"
    descent="-400"
    x-height="992"
    cap-height="1426"
    bbox="-260 -570.002 2678 2321"
    underline-thickness="50"
    underline-position="-75"
    unicode-range="U+000D-U+FB02"
  />
<missing-glyph horiz-adv-x="1254" 
d="M84 -384v2020h1086v-2020h-1086zM171 -297h912v1846h-912v-1846zM642 404c-64 0 -113.834 14.8369 -149.501 44.5039s-53.5 69.167 -53.5 118.5c0 52.667 17.667 96.5 53 131.5s74.666 68.167 117.999 99.5c27.333 20 53.666 40.833 78.999 62.5s46.166 45.667 62.499 72
s24.5 56.166 24.5 89.499c0 44 -15.833 77.833 -47.5 101.5s-75.5 35.5 -131.5 35.5c-24.667 0 -50.167 -2.33301 -76.5 -7s-53 -11.834 -80 -21.501s-54.167 -21.834 -81.5 -36.501l-7 121c19.333 8 42.5 16.667 69.5 26s57.333 17.333 91 24s69.5 10 107.5 10
c87.333 0 156.833 -19.333 208.5 -58s77.5 -96 77.5 -172c0 -51.333 -10.833 -95.5 -32.5 -132.5s-48.667 -69.333 -81 -97s-64.166 -53.5 -95.499 -77.5c-35.333 -26 -66.666 -51.833 -93.999 -77.5s-41 -54.834 -41 -87.501c0 -35.333 11.333 -59.833 34 -73.5
s48.667 -20.5 78 -20.5c20 0 38.5 2.33301 55.5 7s30.833 9 41.5 13l7 -75c-10 -3.33301 -22.167 -6.5 -36.5 -9.5s-30.166 -5.5 -47.499 -7.5s-34.666 -3 -51.999 -3zM607.999 19.0039c-32.667 0 -58.834 9.83301 -78.501 29.5s-29.5 45.167 -29.5 76.5
c0 32 9.83301 57.667 29.5 77s45.834 29 78.501 29c34 0 60.667 -9.66699 80 -29s29 -45 29 -77c0 -31.333 -9.66699 -56.833 -29 -76.5s-46 -29.5 -80 -29.5z" />
    <glyph glyph-name="fi" unicode="fi" horiz-adv-x="1304" 
d="M237 0v213.001v225v100v128.5v140.5v151.5v163.5c0 70.667 9.5 129.667 28.5 177s45.333 85 79 113s72.167 48.167 115.5 60.5s89.666 18.5 138.999 18.5c24 0 47.333 -1.16699 70 -3.5s43.5 -5.5 62.5 -9.5s35.167 -8.66699 48.5 -14l-15 -143
c-21.333 8 -44.166 14.167 -68.499 18.5s-49.833 6.5 -76.5 6.5c-78 0 -134.833 -18.833 -170.5 -56.5s-53.5 -94.834 -53.5 -171.501v-69.5v-56.5l6 -37v-517v-225v-213h-165zM49 861.001v131h689v-131h-195h-191h-68h-235zM964 0.000976562v213v225v100v164.5v146v143.5
l166 6v-145.5v-148v-166.5v-100v-225v-213h-166zM1045 1221c-36 0 -65.333 10 -88 30s-34 50.667 -34 92c0 40.667 11.333 71.167 34 91.5s52.667 30.5 90 30.5c36.667 0 66 -10.5 88 -31.5s33 -51.167 33 -90.5c0 -41.333 -11 -72 -33 -92s-52 -30 -90 -30z" />
    <glyph glyph-name="fl" unicode="fl" horiz-adv-x="1299" 
d="M237 0v213.001v225v100v128.5v140.5v152v163c0 70.667 9.5 129.667 28.5 177s45.333 85 79 113s72.167 48.167 115.5 60.5s89.666 18.5 138.999 18.5c22.667 0 44.167 -1 64.5 -3s39.333 -4.66699 57 -8s32.5 -7 44.5 -11v-148c-21.333 8 -44.166 14.167 -68.499 18.5
s-49.833 6.5 -76.5 6.5c-78 0 -134.833 -18.833 -170.5 -56.5s-53.5 -94.834 -53.5 -171.501v-69.5v-56.5l6 -37v-517v-225v-213h-165zM49 862.001v130h689v-130h-195h-191h-68h-235zM962 0.000976562v213v225v549v245v232l165 20v-242.5v-254.5v-549v-225v-213h-165z" />
    <glyph glyph-name="f_f" unicode="ff" horiz-adv-x="1535" 
d="M982 0l0.000976562 213.001v225v100v128.5v140.5v152v163c0 70.667 9.5 129.667 28.5 177s45.167 85 78.5 113s71.833 48.167 115.5 60.5s90.167 18.5 139.5 18.5c24 0 47.167 -1.16699 69.5 -3.5s43.166 -5.5 62.499 -9.5s35.666 -8.66699 48.999 -14l-15 -143
c-21.333 8 -44.166 14.167 -68.499 18.5s-49.833 6.5 -76.5 6.5c-78 0 -134.833 -18.833 -170.5 -56.5s-53.5 -94.834 -53.5 -171.501v-69.5v-56.5l6 -37v-517v-225v-213h-165zM794.001 861.001v131h689v-131h-195h-191h-68h-235zM237.001 0.000976562v213.001v225v100
v128.5v140.5v152v163c0 70.667 9.5 129.667 28.5 177s45.333 85 79 113s72.167 48.167 115.5 60.5s89.666 18.5 138.999 18.5c24 0 47.333 -1.16699 70 -3.5s43.5 -5.5 62.5 -9.5s35.167 -8.66699 48.5 -14l-15 -143c-21.333 8 -44.166 14.167 -68.499 18.5
s-49.833 6.5 -76.5 6.5c-78 0 -134.833 -18.833 -170.5 -56.5s-53.5 -94.834 -53.5 -171.501v-69.5v-56.5l6 -37v-517v-225v-213h-165zM49.001 861.002v131h689v-131h-195h-191h-68h-235z" />
    <glyph glyph-name="f_f_i" unicode="ffi" horiz-adv-x="2049" 
d="M982 0l0.000976562 213.001v225v100v128.5v140.5v152v163c0 70.667 9.5 129.667 28.5 177s45.167 85 78.5 113s71.833 48.167 115.5 60.5s90.167 18.5 139.5 18.5c24 0 47.167 -1.16699 69.5 -3.5s43.166 -5.5 62.499 -9.5s35.666 -8.66699 48.999 -14l-15 -143
c-21.333 8 -44.166 14.167 -68.499 18.5s-49.833 6.5 -76.5 6.5c-78 0 -134.833 -18.833 -170.5 -56.5s-53.5 -94.834 -53.5 -171.501v-69.5v-56.5l6 -37v-517v-225v-213h-165zM794.001 861.001v131h689v-131h-195h-191h-68h-235zM237.001 0.000976562v213.001v225v100
v128.5v140.5v152v163c0 70.667 9.5 129.667 28.5 177s45.333 85 79 113s72.167 48.167 115.5 60.5s89.666 18.5 138.999 18.5c24 0 47.333 -1.16699 70 -3.5s43.5 -5.5 62.5 -9.5s35.167 -8.66699 48.5 -14l-15 -143c-21.333 8 -44.166 14.167 -68.499 18.5
s-49.833 6.5 -76.5 6.5c-78 0 -134.833 -18.833 -170.5 -56.5s-53.5 -94.834 -53.5 -171.501v-69.5v-56.5l6 -37v-517v-225v-213h-165zM49.001 861.002v131h689v-131h-195h-191h-68h-235zM1709 0.00195312v213v225v100v164.5v146v143.5l166 6v-145.5v-148v-166.5v-100v-225
v-213h-166zM1790 1221c-36 0 -65.333 10 -88 30s-34 50.667 -34 92c0 40.667 11.333 71.167 34 91.5s52.667 30.5 90 30.5c36.667 0 66 -10.5 88 -31.5s33 -51.167 33 -90.5c0 -41.333 -11 -72 -33 -92s-52 -30 -90 -30z" />
    <glyph glyph-name="f_f_l" unicode="ffl" horiz-adv-x="2044" 
d="M237 0v213.001v225v100v128.5v140.5v152v163c0 70.667 9.5 129.667 28.5 177s45.333 85 79 113s72.167 48.167 115.5 60.5s89.666 18.5 138.999 18.5c24 0 47.333 -1.16699 70 -3.5s43.5 -5.5 62.5 -9.5s35.167 -8.66699 48.5 -14l-15 -143
c-21.333 8 -44.166 14.167 -68.499 18.5s-49.833 6.5 -76.5 6.5c-78 0 -134.833 -18.833 -170.5 -56.5s-53.5 -94.834 -53.5 -171.501v-69.5v-56.5l6 -37v-517v-225v-213h-165zM49 861.001v131h689v-131h-195h-191h-68h-235zM982 0.000976562l-0.000976562 213.001v225v100
v128.5v140.5v152v163c0 70.667 9.5 129.667 28.5 177s45.167 85 78.5 113s71.833 48.167 115.5 60.5s90.167 18.5 139.5 18.5c22.667 0 44.167 -1 64.5 -3s39.333 -4.66699 57 -8s32.5 -7 44.5 -11v-148c-21.333 8 -44.166 14.167 -68.499 18.5s-49.833 6.5 -76.5 6.5
c-78 0 -134.833 -18.833 -170.5 -56.5s-53.5 -94.834 -53.5 -171.501v-69.5v-56.5l6 -37v-517v-225v-213h-165zM793.999 861.002v131h689v-131h-195h-191h-68h-235zM1707 0.00195312v213v225v549v245v232l165 20v-242.5v-254.5v-549v-225v-213h-165z" />
    <glyph glyph-name=".notdef" horiz-adv-x="1254" 
d="M84 -384v2020h1086v-2020h-1086zM171 -297h912v1846h-912v-1846zM642 404c-64 0 -113.834 14.8369 -149.501 44.5039s-53.5 69.167 -53.5 118.5c0 52.667 17.667 96.5 53 131.5s74.666 68.167 117.999 99.5c27.333 20 53.666 40.833 78.999 62.5s46.166 45.667 62.499 72
s24.5 56.166 24.5 89.499c0 44 -15.833 77.833 -47.5 101.5s-75.5 35.5 -131.5 35.5c-24.667 0 -50.167 -2.33301 -76.5 -7s-53 -11.834 -80 -21.501s-54.167 -21.834 -81.5 -36.501l-7 121c19.333 8 42.5 16.667 69.5 26s57.333 17.333 91 24s69.5 10 107.5 10
c87.333 0 156.833 -19.333 208.5 -58s77.5 -96 77.5 -172c0 -51.333 -10.833 -95.5 -32.5 -132.5s-48.667 -69.333 -81 -97s-64.166 -53.5 -95.499 -77.5c-35.333 -26 -66.666 -51.833 -93.999 -77.5s-41 -54.834 -41 -87.501c0 -35.333 11.333 -59.833 34 -73.5
s48.667 -20.5 78 -20.5c20 0 38.5 2.33301 55.5 7s30.833 9 41.5 13l7 -75c-10 -3.33301 -22.167 -6.5 -36.5 -9.5s-30.166 -5.5 -47.499 -7.5s-34.666 -3 -51.999 -3zM607.999 19.0039c-32.667 0 -58.834 9.83301 -78.501 29.5s-29.5 45.167 -29.5 76.5
c0 32 9.83301 57.667 29.5 77s45.834 29 78.501 29c34 0 60.667 -9.66699 80 -29s29 -45 29 -77c0 -31.333 -9.66699 -56.833 -29 -76.5s-46 -29.5 -80 -29.5z" />
    <glyph glyph-name="NULL" 
 />
    <glyph glyph-name="NULL" 
 />
    <glyph glyph-name="CR" unicode="&#xd;" horiz-adv-x="383" 
 />
    <glyph glyph-name="space" unicode=" " horiz-adv-x="383" 
 />
    <glyph glyph-name="exclam" unicode="!" horiz-adv-x="472" 
d="M170 495c-2 164.667 -6.16699 327.5 -12.5 488.5l-19.5 481.5l200 6c-6.66699 -160.667 -13 -322.167 -19 -484.5s-10.333 -325.5 -13 -489.5zM236 -22c-27.333 0 -50.832 5.66895 -70.499 17.002s-34.834 26.666 -45.501 45.999s-16 42 -16 68
c0 39.333 12 70.666 36 93.999s56 35 96 35c28 0 51.667 -5.33301 71 -16s34.5 -25.667 45.5 -45s16.5 -42 16.5 -68c0 -38.667 -11.833 -70.167 -35.5 -94.5s-56.167 -36.5 -97.5 -36.5z" />
    <glyph glyph-name="quotedbl" unicode="&#x22;" horiz-adv-x="743" 
d="M118 873c-2 103.333 -6 206.001 -12 308.001s-12.333 203 -19 303l187 5c-6.66699 -100.667 -13 -202.334 -19 -305.001s-10 -205.667 -12 -309zM457 873.001c-2 103.333 -6 206.001 -12 308.001s-12.333 203 -19 303l187 5c-6.66699 -100.667 -13 -202.334 -19 -305.001
s-10 -205.667 -12 -309z" />
    <glyph glyph-name="numbersign" unicode="#" horiz-adv-x="1366" 
d="M35 308v128h182h164h491h164.5h181.5v-128h-181.5h-164.5h-491h-164h-182zM239 0l40 199l45 224l91 457l32.5 159.5l28 138.5l27.5 139h134l-27.5 -137l-28 -139.5l-32.5 -161.5l-92 -456l-44 -222.5l-40 -200.5h-134zM147 875v128h182h164h492h164.5h181.5v-128h-181.5
h-164.5h-492h-164h-182zM716 0l40 199l44 224l92 456l32 160.5l27.5 138.5l28.5 139h133l-27.5 -137l-28 -139.5l-31.5 -161.5l-92 -456l-44 -222.5l-41 -200.5h-133z" />
    <glyph glyph-name="dollar" unicode="$" horiz-adv-x="1124" 
d="M575 -21c-56.667 0 -113.667 5.16602 -171 15.499s-110.166 23.5 -158.499 39.5s-87.5 32.667 -117.5 50l16 153c42.667 -23.333 87.167 -43.333 133.5 -60s93.833 -29.667 142.5 -39s98.667 -14 150 -14c59.333 0 112.666 8.16699 159.999 24.5s84.833 42.5 112.5 78.5
s41.5 83.667 41.5 143c0 48 -14.667 87.333 -44 118s-71.5 57.334 -126.5 80.001s-120.5 46 -196.5 70c-86.667 27.333 -160.334 56.833 -221.001 88.5s-106.834 70.834 -138.501 117.501s-47.5 105.667 -47.5 177s16.5 135.166 49.5 191.499s82.333 100.666 148 132.999
s147.167 48.5 244.5 48.5c40.667 0 81 -2.83301 121 -8.5s77.833 -13.5 113.5 -23.5s68.667 -21 99 -33s55.833 -24.667 76.5 -38l-17 -156c-38.667 26 -79.667 47.167 -123 63.5s-86.666 28.333 -129.999 36s-84 11.5 -122 11.5c-52 0 -101 -7.66699 -147 -23
s-83.167 -39.5 -111.5 -72.5s-42.5 -75.833 -42.5 -128.5c0 -43.333 12 -79 36 -107s61.5 -53 112.5 -75s116.5 -46 196.5 -72c108.667 -35.333 194.334 -71 257.001 -107s107.167 -77.167 133.5 -123.5s39.5 -102.166 39.5 -167.499c0 -74 -16.5 -140.5 -49.5 -199.5
s-84 -105.667 -153 -140s-157.833 -51.5 -266.5 -51.5zM508 -274.001v172.5v164v160.5v161v564v161v160.5v164.5v172h131v-172v-164.5v-160.5v-161v-564v-161.5v-161v-163.5v-172h-131z" />
    <glyph glyph-name="percent" unicode="%" horiz-adv-x="1761" 
d="M391 0l124.5 216.5l138.5 242.5l284 496l99 172l86.5 150.5l84.5 148.5h155l-85.5 -148.5l-86 -150.5l-98.5 -172l-285 -496l-138.5 -242.5l-123.5 -216.5h-155zM441 743c-72 0 -136 14.5 -192 43.5s-100 70 -132 123s-48 115.167 -48 186.5c0 68 16 128.833 48 182.5
s76 96 132 127s120.667 46.5 194 46.5c72 0 136 -15.5 192 -46.5s99.833 -73.333 131.5 -127s47.5 -114.5 47.5 -182.5c0 -71.333 -15.833 -133.5 -47.5 -186.5s-75.5 -94 -131.5 -123s-120.667 -43.5 -194 -43.5zM441 860c76 0 135.001 20.833 177.001 62.5
s63 99.167 63 172.5c0 46.667 -9.5 88.167 -28.5 124.5s-46.333 64.666 -82 84.999s-78.167 30.5 -127.5 30.5c-74.667 0 -133.667 -22.167 -177 -66.5s-65 -102.166 -65 -173.499c0 -73.333 21.667 -130.833 65 -172.5s101.666 -62.5 174.999 -62.5zM1314 -22
c-72 0 -136 14.5 -192 43.5s-100 70 -132 123s-48 115.167 -48 186.5c0 68 16 128.833 48 182.5s76 96 132 127s120.667 46.5 194 46.5c72 0 136 -15.5 192 -46.5s99.833 -73.333 131.5 -127s47.5 -114.5 47.5 -182.5c0 -71.333 -15.833 -133.5 -47.5 -186.5
s-75.5 -94 -131.5 -123s-120.667 -43.5 -194 -43.5zM1314 95c76 0 135.001 20.832 177.001 62.499s63 99.167 63 172.5c0 47.333 -9.5 89 -28.5 125s-46.333 64.167 -82 84.5s-78.167 30.5 -127.5 30.5c-74.667 0 -133.667 -22.167 -177 -66.5s-65 -102.166 -65 -173.499
c0 -73.333 21.667 -130.833 65 -172.5s101.666 -62.5 174.999 -62.5z" />
    <glyph glyph-name="ampersand" unicode="&#x26;" horiz-adv-x="1468" 
d="M1225 0l-134.999 136l-135 136l-462 466c-62.667 62.667 -112 123.5 -148 182.5s-54 124.833 -54 197.5c0 69.333 15.833 129 47.5 179s74.167 88.333 127.5 115s112.666 40 177.999 40c64.667 0 123.667 -12.333 177 -37s95.833 -60.667 127.5 -108s47.5 -104 47.5 -170
c0 -56 -10.167 -104.667 -30.5 -146s-47.5 -76.833 -81.5 -106.5s-70.833 -55.167 -110.5 -76.5s-78.5 -40 -116.5 -56l-75 104c50 20 94.5 42.167 133.5 66.5s69.667 53.5 92 87.5s33.5 75 33.5 123c0 56 -18 101.5 -54 136.5s-81.333 52.5 -136 52.5
c-58.667 0 -105.5 -19.167 -140.5 -57.5s-52.5 -86.833 -52.5 -145.5c0 -50 13.5 -97.333 40.5 -142s69.833 -96.667 128.5 -156l452 -458l179 -181l178 -182h-211zM539.001 -20c-98 0 -179.667 17.501 -245 52.501s-114.333 82 -147 141s-49 124.167 -49 195.5
c0 81.333 18 151.333 54 210s81.833 108.5 137.5 149.5s113.5 74.833 173.5 101.5l73 -109c-53.333 -24 -100.666 -52 -141.999 -84s-73.833 -68.833 -97.5 -110.5s-35.5 -88.834 -35.5 -141.501c0 -52 11.5 -97.833 34.5 -137.5s56.667 -70.5 101 -92.5
s98.166 -33 161.499 -33c45.333 0 88 8 128 24s78.5 40.5 115.5 73.5s73.5 74.833 109.5 125.5l99 -95l7 -32h-26c-40.667 -50.667 -83 -93.667 -127 -129s-92.5 -62.333 -145.5 -81s-112.833 -28 -179.5 -28zM1100 329.001l-103 97l115.5 182l112.5 178l140 -88
l-131.5 -184z" />
    <glyph glyph-name="quotesingle" unicode="'" horiz-adv-x="404" 
d="M118 873c-2 103.333 -6 206.001 -12 308.001s-12.333 203 -19 303l187 5c-6.66699 -100.667 -13 -202.334 -19 -305.001s-10 -205.667 -12 -309z" />
    <glyph glyph-name="parenleft" unicode="(" horiz-adv-x="770" 
d="M572 -242c-65.333 47.333 -125.666 100.668 -180.999 160.001s-103.333 125.333 -144 198s-72.334 153 -95.001 241s-34 184.667 -34 290c0 106.667 11.333 204 34 292s54.334 168.333 95.001 241s88.667 138.5 144 197.5s115.666 112.167 180.999 159.5l117 -56
c-70 -56.667 -135.5 -123.334 -196.5 -200.001s-110.5 -167 -148.5 -271s-57 -225 -57 -363c0 -136.667 19 -257 57 -361s87.5 -194.5 148.5 -271.5s126.5 -143.833 196.5 -200.5z" />
    <glyph glyph-name="parenright" unicode=")" horiz-adv-x="770" 
d="M198 -242l-117 55.999c70 56.667 135.667 123.5 197 200.5s110.833 167.333 148.5 271s56.5 224.167 56.5 361.5s-18.833 258 -56.5 362s-87.167 194.5 -148.5 271.5s-127 143.833 -197 200.5l117 56c66 -47.333 126.5 -100.666 181.5 -159.999
s102.833 -125.333 143.5 -198s72.334 -153 95.001 -241s34 -185 34 -291s-11.333 -203 -34 -291s-54.334 -168.333 -95.001 -241s-88.5 -138.5 -143.5 -197.5s-115.5 -112.167 -181.5 -159.5z" />
    <glyph glyph-name="asterisk" unicode="*" horiz-adv-x="946" 
d="M830 746l-187.5 128l-188.5 127l-199.5 111l-199.5 110l61 103l188.5 -127.5l189.5 -128.5l198 -109l200 -110zM116 746l-61 104l199 111l200 109l188.5 128.5l187.5 126.5l62 -103l-200 -110l-198 -109l-188.5 -128zM412 581l11.5 227.5
c3.66699 75.667 7.16699 151.834 10.5 228.501l-10.5 226.5l-11.5 227.5h122c-4 -76 -7.66699 -151.833 -11 -227.5s-7 -151.167 -11 -226.5c3.33301 -76.667 7 -152.834 11 -228.501s7.66699 -151.5 11 -227.5h-122z" />
    <glyph glyph-name="plus" unicode="+" horiz-adv-x="1176" 
d="M513 119v181.5v164.5v266v164.5v181.5h151v-181.5v-164.5v-266v-164.5v-181.5h-151zM124 524v147h182h164h237h164.5h181.5v-147h-181.5h-164.5h-237h-164h-182z" />
    <glyph glyph-name="comma" unicode="," horiz-adv-x="460" 
d="M62 -314c26 37.333 46.499 74.667 61.499 112s25.833 76.333 32.5 117s10 84.667 10 132v95v97l84 6c36.667 -2.66699 63.334 -16.5 80.001 -41.5s25 -55.5 25 -91.5c0 -41.333 -5.5 -82.333 -16.5 -123s-26.167 -79.667 -45.5 -117s-41 -71.5 -65 -102.5
s-49 -57.833 -75 -80.5z" />
    <glyph glyph-name="hyphen" unicode="-" horiz-adv-x="845" 
d="M124 521v148h157.5h141.5h142h157v-148h-157h-142h-141.5h-157.5z" />
    <glyph glyph-name="period" unicode="." horiz-adv-x="472" 
d="M236 -22c-27.333 0 -50.832 5.66895 -70.499 17.002s-34.834 26.666 -45.501 45.999s-16 42 -16 68c0 39.333 12 70.666 36 93.999s56 35 96 35c28 0 51.667 -5.33301 71 -16s34.5 -25.667 45.5 -45s16.5 -42 16.5 -68c0 -38.667 -11.833 -70.167 -35.5 -94.5
s-56.167 -36.5 -97.5 -36.5z" />
    <glyph glyph-name="slash" unicode="/" horiz-adv-x="890" 
d="M59 0l91.5 216l103.5 240l211 496l107.5 250.5l95.5 223.5h164l-64 -150l-65 -152l-76 -176l-210 -492l-102.5 -241l-91.5 -215h-164z" />
    <glyph glyph-name="zero" unicode="0" horiz-adv-x="1305" 
d="M658 -21c-94.667 0 -176.495 17.501 -245.495 52.501s-125.833 84.5 -170.5 148.5s-77.667 139.167 -99 225.5s-32 180.5 -32 282.5c0 142 20.167 266.167 60.5 372.5s100.666 189 180.999 248s180.166 88.5 299.499 88.5c91.333 0 170.666 -17 237.999 -51
s123.666 -82.333 168.999 -145s79.166 -137.334 101.499 -224.001s33.5 -182.667 33.5 -288c0 -144.667 -20.5 -270.167 -61.5 -376.5s-101.333 -188.5 -181 -246.5s-177.5 -87 -293.5 -87zM654.005 128.001c87.333 0 157.666 24.333 210.999 73s92.333 115.334 117 200.001
s37 180.667 37 288c0 113.333 -13 211.833 -39 295.5s-66 148.5 -120 194.5s-122.667 69 -206 69c-86 0 -156 -24 -210 -72s-93.667 -114.167 -119 -198.5s-38 -180.5 -38 -288.5c0 -108.667 12.333 -205.334 37 -290.001s63.834 -151 117.501 -199s124.5 -72 212.5 -72z
" />
    <glyph glyph-name="one" unicode="1" horiz-adv-x="855" 
d="M105 976l-41 139l246.5 131l247.5 131l-5 -159l-223.5 -121zM472 0v213v225v430v214v215l86 80l83 -6v-231v-245v-457v-225v-213h-169z" />
    <glyph glyph-name="two" unicode="2" horiz-adv-x="1109" 
d="M97 0l0.00292969 121.998l122.5 107l122.5 106c96.667 84 179.167 162.5 247.5 235.5s120.833 143.5 157.5 211.5s55 136 55 204c0 86.667 -23.667 151.834 -71 195.501s-118.666 65.5 -213.999 65.5c-32 0 -64.833 -3 -98.5 -9s-67.834 -14.833 -102.501 -26.5
s-69.334 -26.167 -104.001 -43.5s-69 -37.333 -103 -60l-18 169c30 16.667 62.667 32.334 98 47.001s72.666 27.334 111.999 38.001s79.5 19.167 120.5 25.5s82.167 9.5 123.5 9.5c92 0 170.167 -15.833 234.5 -47.5s113.166 -76.834 146.499 -135.501
s50 -128.334 50 -209.001c0 -75.333 -17.333 -150.5 -52 -225.5s-86.167 -151.667 -154.5 -230s-152.5 -160.166 -252.5 -245.499l-223 -189l-25 35h278h228h228v-150h-906z" />
    <glyph glyph-name="three" unicode="3" horiz-adv-x="1141" 
d="M553 -22c-42.667 0 -85.334 2.83203 -128.001 8.49902s-84.167 13.5 -124.5 23.5s-78.333 21.833 -114 35.5s-68.167 28.167 -97.5 43.5l17 162c36 -20 72.5 -37.667 109.5 -53s73.833 -28.166 110.5 -38.499s72.834 -18.166 108.501 -23.499s70.167 -8 103.5 -8
c115.333 0 198.666 23.5 249.999 70.5s77 106.5 77 178.5c0 86.667 -35 152.667 -105 198s-167.667 68 -293 68h-64.5h-63.5v142h59.5h60.5c84.667 0 153.334 11 206.001 33s91.5 51.667 116.5 89s37.5 79.666 37.5 126.999c0 72.667 -26.167 126.334 -78.5 161.001
s-118.833 52 -199.5 52c-31.333 0 -63.833 -3.16699 -97.5 -9.5s-67.667 -15.333 -102 -27s-68.666 -26.167 -102.999 -43.5s-67.833 -37.333 -100.5 -60l-20 165c29.333 17.333 61.333 33.666 96 48.999s71.334 28.666 110.001 39.999s78.167 20.333 118.5 27
s80.5 10 120.5 10c85.333 0 160.333 -13.667 225 -41s115 -66.166 151 -116.499s54 -109.833 54 -178.5c0 -57.333 -12 -108.166 -36 -152.499s-56 -81 -96 -110s-84 -49.167 -132 -60.5v-17c36.667 -6.66699 73.167 -18.5 109.5 -35.5s69.666 -40 99.999 -69
s54.666 -64.167 72.999 -105.5s27.5 -90 27.5 -146c0 -72.667 -17.667 -138.334 -53 -197.001s-89 -105.167 -161 -139.5s-162.667 -51.5 -272 -51.5z" />
    <glyph glyph-name="four" unicode="4" horiz-adv-x="1200" 
d="M722 0v181v200l5 31v450v213.5v212.5l129 40l-111.5 -159l-109.5 -155l-239 -339l-95 -135l-96 -135l-6 61h567h29h116h126.5h110.5v-150h-110.5h-126.5h-116h-735v118l94 132.5l103.5 146.5l97.5 137l176 250l96 136l96 136h168v-243.5v-238.5v-509v-200v-181h-169z" />
    <glyph glyph-name="five" unicode="5" horiz-adv-x="1149" 
d="M548 -22c-42.667 0 -85.0029 2.83105 -127.003 8.49805s-82.833 13.667 -122.5 24s-77.167 22.166 -112.5 35.499s-67.666 27.666 -96.999 42.999l17 162c36 -20 72.5 -37.667 109.5 -53s73.667 -28.166 110 -38.499s72 -18.166 107 -23.499s68.833 -8 101.5 -8
c114.667 0 199.834 27.5 255.501 82.5s83.5 131.833 83.5 230.5c0 72.667 -14.333 130.834 -43 174.501s-67.5 75.334 -116.5 95.001s-103.5 29.5 -163.5 29.5c-52 0 -101.667 -6.33301 -149 -19s-97.666 -37.334 -150.999 -74.001l-76 7v214v261.5v242.5h791v-150h-241.5
h-241.5h-203l60 58c0 -62 -0.166992 -123.833 -0.5 -185.5s-0.833008 -123.167 -1.5 -184.5v-92h17c38 20.667 79.167 36.834 123.5 48.501s90.833 17.5 139.5 17.5c78.667 0 150.5 -15.833 215.5 -47.5s117 -79.834 156 -144.501s58.5 -146.334 58.5 -245.001
c0 -93.333 -18.833 -175.166 -56.5 -245.499s-93.667 -125.166 -168 -164.499s-165.833 -59 -274.5 -59z" />
    <glyph glyph-name="six" unicode="6" horiz-adv-x="1214" 
d="M635 -22c-112.667 0 -207.997 26.0049 -285.997 78.0049s-137.167 128.333 -177.5 229s-60.5 224.667 -60.5 372c0 120.667 12 227.167 36 319.5s59.333 169.666 106 231.999s103.5 109.333 170.5 141s143.833 47.5 230.5 47.5c35.333 0 70 -2.33301 104 -7
s66.833 -11.334 98.5 -20.001s62.167 -18.834 91.5 -30.501s57 -24.834 83 -39.501l-20 -160c-26.667 18 -54.5 33.667 -83.5 47s-58.333 24.333 -88 33s-59.334 15.167 -89.001 19.5s-58.834 6.5 -87.501 6.5c-90 0 -163.333 -22.5 -220 -67.5
s-98.334 -111.5 -125.001 -199.5s-40 -196.667 -40 -326c0 -116.667 13.5 -213.834 40.5 -291.501s66.5 -136 118.5 -175s116 -58.5 192 -58.5c72.667 0 132 15.333 178 46s80 70.5 102 119.5s33 100.833 33 155.5s-10.667 104.334 -32 149.001s-54.5 80.334 -99.5 107.001
s-102.833 40 -173.5 40c-28.667 0 -57.834 -2.66699 -87.501 -8s-59.834 -14.5 -90.501 -27.5s-61.667 -30.667 -93 -53s-63 -50.833 -95 -85.5c-11.333 21.333 -18.666 40.166 -21.999 56.499s-3.33301 32.5 0 48.5s10.333 34.667 21 56l29 -2c26 26 53.5 48.833 82.5 68.5
s59.333 36.167 91 49.5s64.834 23.333 99.501 30s70.667 10 108 10c88.667 0 165.167 -18.167 229.5 -54.5s114 -86.833 149 -151.5s52.5 -139.334 52.5 -224.001c0 -82.667 -17.5 -160.5 -52.5 -233.5s-87.833 -132.333 -158.5 -178s-159 -68.5 -265 -68.5z" />
    <glyph glyph-name="seven" unicode="7" horiz-adv-x="1056" 
d="M219 0l124.5 271.5l122.5 267.5l191 416l71 152l69 153l34 -38h-281h-249h-251v149h927v-117l-110 -242l-111 -245l-127 -279l-110 -242.5l-111 -245.5h-189z" />
    <glyph glyph-name="eight" unicode="8" horiz-adv-x="1214" 
d="M608 -22c-114.667 0 -209.331 18 -283.998 54s-130.334 84.667 -167.001 146s-55 130 -55 206c0 75.333 15.167 137.5 45.5 186.5s67.5 87 111.5 114s86 44.833 126 53.5v17c-40.667 11.333 -79 30.333 -115 57s-65.333 60.5 -88 101.5s-34 88.5 -34 142.5
c0 68.667 18.667 128.667 56 180s90.5 91.166 159.5 119.499s150.5 42.5 244.5 42.5c93.333 0 174.166 -14.167 242.499 -42.5s121.333 -68.166 159 -119.499s56.5 -111.333 56.5 -180c0 -54 -11.333 -101.5 -34 -142.5s-52.167 -74.833 -88.5 -101.5
s-74.833 -45.667 -115.5 -57v-17c40.667 -8.66699 83 -26.5 127 -53.5s81.167 -65.167 111.5 -114.5s45.5 -111.333 45.5 -186c0 -76 -18.333 -144.667 -55 -206s-92.167 -110 -166.5 -146s-168.5 -54 -282.5 -54zM608.003 130c78 0 141.669 11.667 191.002 35
s85.5 55.333 108.5 96s34.5 86.667 34.5 138c0 60 -14.667 109.833 -44 149.5s-69.5 69.334 -120.5 89.001s-108.167 29.5 -171.5 29.5c-62.667 0 -119.334 -9.83301 -170.001 -29.5s-90.667 -49.334 -120 -89.001s-44 -89.5 -44 -149.5c0 -51.333 11.5 -97.333 34.5 -138
s59.167 -72.667 108.5 -96s113.666 -35 192.999 -35zM608.005 803c92.667 0 164.5 21.833 215.5 65.5s76.5 99.167 76.5 166.5c0 70 -26.667 123.333 -80 160s-124 55 -212 55c-89.333 0 -160.5 -18.333 -213.5 -55s-79.5 -90 -79.5 -160c0 -45.333 11.5 -85.333 34.5 -120
s56.167 -62 99.5 -82s96.333 -30 159 -30z" />
    <glyph glyph-name="nine" unicode="9" horiz-adv-x="1214" 
d="M560 -22c-35.333 0 -70.0039 2.49609 -104.004 7.49609s-67 11.833 -99 20.5s-62.667 19 -92 31s-57 25 -83 39l20 160c27.333 -18 55.333 -33.667 84 -47s57.834 -24.333 87.501 -33s59.5 -15.167 89.5 -19.5s59 -6.5 87 -6.5c90.667 0 164.334 22.5 221.001 67.5
s98.167 111.5 124.5 199.5s39.5 196.667 39.5 326c0 116.667 -13.5 213.834 -40.5 291.501s-66.5 135.834 -118.5 174.501s-115.667 58 -191 58c-73.333 0 -133 -15.167 -179 -45.5s-79.833 -70 -101.5 -119s-32.5 -100.833 -32.5 -155.5s10.667 -104.334 32 -149.001
s54.333 -80.334 99 -107.001s102.334 -40 173.001 -40c28.667 0 57.834 2.66699 87.501 8s60 14.5 91 27.5s62.167 30.667 93.5 53s62.666 50.833 93.999 85.5c11.333 -21.333 18.833 -40.166 22.5 -56.499s3.66699 -32.666 0 -48.999s-10.834 -34.833 -21.501 -55.5l-28 2
c-26.667 -25.333 -54.5 -48 -83.5 -68s-59.333 -36.667 -91 -50s-64.834 -23.333 -99.501 -30s-70.667 -10 -108 -10c-88 0 -164.333 18.167 -229 54.5s-114.5 86.833 -149.5 151.5s-52.5 139.334 -52.5 224.001c0 82.667 17.667 160.5 53 233.5
s88.166 132.167 158.499 177.5s158.833 68 265.5 68c112.667 0 207.834 -25.833 285.501 -77.5s136.834 -128 177.501 -229s61 -224.833 61 -371.5c0 -121.333 -12.167 -228.166 -36.5 -320.499s-59.666 -169.5 -105.999 -231.5s-103.166 -109 -170.499 -141
s-144 -48 -230 -48z" />
    <glyph glyph-name="colon" unicode=":" horiz-adv-x="472" 
d="M236 756c-27.333 0 -50.832 5.66895 -70.499 17.002s-34.834 26.666 -45.501 45.999s-16 42 -16 68c0 39.333 12 70.666 36 93.999s56 35 96 35c28 0 51.667 -5.33301 71 -16s34.5 -25.667 45.5 -45s16.5 -42 16.5 -68c0 -38.667 -11.833 -70.167 -35.5 -94.5
s-56.167 -36.5 -97.5 -36.5zM236.001 -21.998c-27.333 0 -50.832 5.66895 -70.499 17.002s-34.834 26.666 -45.501 45.999s-16 42 -16 68c0 39.333 12 70.666 36 93.999s56 35 96 35c28 0 51.667 -5.33301 71 -16s34.5 -25.667 45.5 -45s16.5 -42 16.5 -68
c0 -38.667 -11.833 -70.167 -35.5 -94.5s-56.167 -36.5 -97.5 -36.5z" />
    <glyph glyph-name="semicolon" unicode=";" horiz-adv-x="472" 
d="M236 756c-27.333 0 -50.832 5.66895 -70.499 17.002s-34.834 26.666 -45.501 45.999s-16 42 -16 68c0 39.333 12 70.666 36 93.999s56 35 96 35c28 0 51.667 -5.33301 71 -16s34.5 -25.667 45.5 -45s16.5 -42 16.5 -68c0 -38.667 -11.833 -70.167 -35.5 -94.5
s-56.167 -36.5 -97.5 -36.5zM75.001 -313.998c26 37.333 46.499 74.667 61.499 112s25.833 76.333 32.5 117s10 84.667 10 132v95v97l84 6c36.667 -2.66699 63.334 -16.5 80.001 -41.5s25 -55.5 25 -91.5c0 -41.333 -5.5 -82.333 -16.5 -123s-26.167 -79.667 -45.5 -117
s-41 -71.5 -65 -102.5s-49 -57.833 -75 -80.5z" />
    <glyph glyph-name="less" unicode="&#x3c;" horiz-adv-x="1136" 
d="M1013 146l-181.5 76l-167.5 70l-196 84l-164 69l-180 76v150l181 77l164 69l196 83l166.5 70l181.5 77v-158l-216.5 -92l-219.5 -93l-231 -99v-18l231 -98l219.5 -93l216.5 -93v-157z" />
    <glyph glyph-name="equal" unicode="=" horiz-adv-x="1136" 
d="M129 300v148h182h164h186h165h181v-148h-181h-165h-186h-164h-182zM129 748v147h182h164h186h165h181v-147h-181h-165h-186h-164h-182z" />
    <glyph glyph-name="greater" unicode="&#x3e;" horiz-adv-x="1136" 
d="M124 146v157l216.5 93l219.5 93l230 98v18l-230 98l-220 94l-216 92v158l181.5 -76.5l165.5 -70.5l197 -83l164 -69.5l181 -76.5v-150l-181 -76l-164 -69l-197 -84l-165.5 -70z" />
    <glyph glyph-name="question" unicode="?" horiz-adv-x="856" 
d="M433 441c-78 0 -138.496 18.168 -181.496 54.501s-64.5 84.5 -64.5 144.5c0 42.667 9.83301 80.167 29.5 112.5s45.167 61.833 76.5 88.5s64.666 52.667 99.999 78c33.333 24.667 65.166 50 95.499 76s55.333 54.833 75 86.5s29.5 67.5 29.5 107.5
c0 54 -18.833 95 -56.5 123s-90.5 42 -158.5 42c-30.667 0 -61.834 -3 -93.501 -9s-64 -14.833 -97 -26.5s-65.833 -26.167 -98.5 -43.5l-10 149c18 8 38.667 16.167 62 24.5s49 16.333 77 24s57.833 13.834 89.5 18.501s64.834 7 99.501 7c70.667 0 132 -10.333 184 -31
s92.333 -52 121 -94s43 -94 43 -156c0 -61.333 -13.167 -114.666 -39.5 -159.999s-59 -85 -98 -119s-77.833 -65 -116.5 -93c-43.333 -31.333 -81.333 -62.5 -114 -93.5s-49 -65.833 -49 -104.5c0 -42 13.5 -71.167 40.5 -87.5s58.5 -24.5 94.5 -24.5
c24.667 0 47.167 2.66699 67.5 8s37.166 10.666 50.499 15.999l7 -92c-12 -4.66699 -26.833 -8.83398 -44.5 -12.501s-36.834 -6.83398 -57.501 -9.50098s-41.667 -4 -63 -4zM394.004 -21.999c-26.667 0 -49.834 5.66895 -69.501 17.002s-35 26.666 -46 45.999
s-16.5 42 -16.5 68c0 39.333 12 70.666 36 93.999s56.333 35 97 35c27.333 0 50.833 -5.33301 70.5 -16s34.834 -25.667 45.501 -45s16 -42 16 -68c0 -38.667 -11.667 -70.167 -35 -94.5s-56 -36.5 -98 -36.5z" />
    <glyph glyph-name="at" unicode="@" horiz-adv-x="1765" 
d="M945 -263c-156.667 0 -292.494 26.3359 -407.494 79.0029s-207.667 124 -278 214s-117.5 192 -141.5 306s-23.333 232 2 354c24 114.667 61.833 213.5 113.5 296.5s114 151.5 187 205.5s153.5 94 241.5 120s180 39 276 39c124 0 234.667 -22.333 332 -67
s178.166 -106.5 242.499 -185.5s108.666 -170.167 132.999 -273.5s25.166 -213.666 2.49902 -330.999c-12.667 -66.667 -32.667 -123.334 -60 -170.001s-58 -84.834 -92 -114.501s-68.833 -51.334 -104.5 -65.001s-68.5 -20.5 -98.5 -20.5c-51.333 0 -94 7.5 -128 22.5
s-60.833 34 -80.5 57s-33.167 47.167 -40.5 72.5h-14c-33.333 -46 -74.333 -79.667 -123 -101s-94.334 -32 -137.001 -32c-78.667 0 -141.834 21.833 -189.501 65.5s-79.334 100.834 -95.001 171.501s-15.167 146.667 1.5 228c15.333 72.667 40.5 136.5 75.5 191.5
s77.833 97.833 128.5 128.5s107 46 169 46c38 0 73 -5.33301 105 -16s60.667 -25.167 86 -43.5s47 -39.166 65 -62.499h15l25 102l125 9l-48.5 -235.5l-52.5 -245.5l-8 -40c-14.667 -72.667 -11 -124.667 11 -156s56 -47 102 -47c28.667 0 56 6.66699 82 20
s50 32.166 72 56.499s41.167 53.666 57.5 87.999s28.5 72.166 36.5 113.499c20.667 101.333 21.334 195.833 2.00098 283.5s-55.666 164.5 -108.999 230.5s-121.5 117.333 -204.5 154s-178.5 55 -286.5 55c-117.333 0 -223.833 -21.167 -319.5 -63.5
s-176.167 -105.833 -241.5 -190.5s-111.666 -190.334 -138.999 -317.001c-23.333 -107.333 -25.333 -210.333 -6 -309s59.166 -186.5 119.499 -263.5s140.333 -137.667 240 -182s218.5 -66.5 356.5 -66.5c52.667 0 109.667 4.5 171 13.5s125.166 25.667 191.499 50
s134.166 59.166 203.499 104.499v-128c-54 -35.333 -112.5 -64.166 -175.5 -86.499s-127.667 -38.666 -194 -48.999s-131.833 -15.5 -196.5 -15.5zM805.006 269.003c41.333 0 81.499 11.5 120.499 34.5s72.833 59.5 101.5 109.5l70 332
c-25.333 29.333 -54.833 53.333 -88.5 72s-73.5 28 -119.5 28c-72.667 0 -131 -24.667 -175 -74s-74 -111 -90 -185c-12 -58 -13.333 -111 -4 -159s29.333 -86.333 60 -115s72.334 -43 125.001 -43z" />
    <glyph glyph-name="A" unicode="A" horiz-adv-x="1380" 
d="M59 0l87.5 242l87.5 241l177 490l86 238.5l78 214.5h238l77 -216l85 -238l176 -491l86.5 -242.5l85.5 -238.5h-188l-88.5 257.5l-85.5 249.5l-260 756h-17l-262 -749l-89 -255.5l-91 -258.5h-183zM323 358l16 142h722l13 -142h-751z" />
    <glyph glyph-name="B" unicode="B" horiz-adv-x="1291" 
d="M629 0l-184.999 -0.000976562h-151h-108v229v242v479v245v231h247.5h276.5c83.333 0 154.166 -7.83301 212.499 -23.5s105.833 -38 142.5 -67s63.667 -64.167 81 -105.5s26 -88 26 -140c0 -60.667 -11 -113.667 -33 -159s-51.833 -83 -89.5 -113
s-80.5 -52.333 -128.5 -67v-18c49.333 -9.33301 96 -26.666 140 -51.999s79.667 -61.5 107 -108.5s41 -107.167 41 -180.5c0 -56 -9.5 -107.833 -28.5 -155.5s-50.333 -89.167 -94 -124.5s-102.667 -62.833 -177 -82.5s-167.5 -29.5 -279.5 -29.5zM362.001 149.999h281
c90.667 0 163.834 10.333 219.501 31s96 50 121 88s37.5 83.333 37.5 136c0 87.333 -30.667 149.833 -92 187.5s-147.333 56.5 -258 56.5h-349v145h349c73.333 0 133.166 12 179.499 36s80.166 55.333 101.499 94s32 81 32 127c0 78 -24.167 135 -72.5 171
s-120.166 54 -215.499 54h-334v-173v-189v-409v-185v-170z" />
    <glyph glyph-name="C" unicode="C" horiz-adv-x="1370" 
d="M831 -22c-112.667 0 -214.165 18.3301 -304.498 54.9971s-167.166 88.167 -230.499 154.5s-111.833 144.333 -145.5 234s-50.5 187.5 -50.5 293.5c0 144 29.667 271.5 89 382.5s141.666 197.833 246.999 260.5s228 94 368 94c47.333 0 93.333 -3.33301 138 -10
s87 -15.667 127 -27s77 -23.666 111 -36.999s63.333 -27 88 -41l-16 -174c-52 30.667 -102.5 55.5 -151.5 74.5s-97 32.833 -144 41.5s-92.833 13 -137.5 13c-102.667 0 -194 -23.333 -274 -70s-142.833 -113.167 -188.5 -199.5s-68.5 -189.166 -68.5 -308.499
c0 -79.333 11.833 -154 35.5 -224s59 -131.667 106 -185s105.333 -95.166 175 -125.499s150.834 -45.5 243.501 -45.5c34 0 68 2.16699 102 6.5s67.667 11.166 101 20.499s66.166 21.833 98.499 37.5s64.166 34.167 95.499 55.5l14 -172c-28 -18 -58.833 -33.667 -92.5 -47
s-69 -24.166 -106 -32.499s-74.833 -14.5 -113.5 -18.5s-77.334 -6 -116.001 -6z" />
    <glyph glyph-name="D" unicode="D" horiz-adv-x="1473" 
d="M185 0v229v242v478v246.5v230.5h172h163h166c110 0 207.667 -15.833 293 -47.5s157.166 -78 215.499 -139s102.666 -135.167 132.999 -222.5s45.5 -186.666 45.5 -297.999c0 -100.667 -13.333 -194.5 -40 -281.5s-69.167 -163.333 -127.5 -229
s-134.666 -116.834 -228.999 -153.501s-209.166 -55 -344.499 -55h-159h-142.5h-145.5zM366 151h267c136 0 244.333 24.833 325 74.5s138.667 117.667 174 204s53 183.833 53 292.5c0 83.333 -10.5 159 -31.5 227s-53 126.333 -96 175s-98 86 -165 112
s-146.167 39 -237.5 39h-289v-171.5v-187.5v-410v-185v-170z" />
    <glyph glyph-name="E" unicode="E" horiz-adv-x="1187" 
d="M185 0v229v242v479v245v231h886v-155h-214.5h-270.5h-324l100 129v-231.5v-244.5v-426v-241.5v-229.5l-90 128h330h247.5h223.5v-155h-888zM323 647v151h277h238h193v-151h-197.5h-234.5h-276z" />
    <glyph glyph-name="F" unicode="F" horiz-adv-x="1147" 
d="M185 0v229v242v478v246.5v230.5h869v-156h-214.5h-269.5h-284l77 130v-231.5v-245.5v-452v-242v-229h-178zM320 638v151h263h238h193v-151h-198.5h-234.5h-261z" />
    <glyph glyph-name="G" unicode="G" horiz-adv-x="1466" 
d="M860 -21c-124 0 -233.163 18.498 -327.496 55.498s-173.5 88.833 -237.5 155.5s-112.5 144.834 -145.5 234.501s-49.5 186.834 -49.5 291.501c0 143.333 29.5 270.5 88.5 381.5s142.333 197.833 250 260.5s234.5 94 380.5 94c50 0 98.5 -3.33301 145.5 -10
s91.333 -15.834 133 -27.501s80 -24.167 115 -37.5s65.167 -26.666 90.5 -39.999l-16 -174c-55.333 30.667 -109 55.5 -161 74.5s-102.667 32.833 -152 41.5s-97.333 13 -144 13c-79.333 0 -152.166 -13 -218.499 -39s-123.833 -64 -172.5 -114
s-86.167 -110.667 -112.5 -182s-39.5 -152 -39.5 -242c0 -81.333 11.5 -157.333 34.5 -228s58.333 -132.667 106 -186s108.5 -94.833 182.5 -124.5s161.667 -44.5 263 -44.5c37.333 0 74.666 1.83301 111.999 5.5s74.166 9.66699 110.499 18s72.166 19 107.499 32
s69.666 28.5 102.999 46.5l21 -170c-22.667 -10.667 -50.834 -21 -84.501 -31s-71.167 -19.167 -112.5 -27.5s-84.833 -14.833 -130.5 -19.5s-92.167 -7 -139.5 -7zM1156 60.998v185v158v166v146h171v-146v-166v-157.5v-182.5z" />
    <glyph glyph-name="H" unicode="H" horiz-adv-x="1499" 
d="M1133 0v229v242v478v246.5v230.5h181v-230.5v-246.5v-478v-242v-229h-181zM185 0v229v242v478v246.5v230.5h181v-230.5v-246.5v-478v-242v-229h-181zM303 644v156h899v-156h-899z" />
    <glyph glyph-name="I" unicode="I" horiz-adv-x="559" 
d="M188 0v229v242v478v246.5v230.5h184v-230.5v-246.5v-478v-242v-229h-184z" />
    <glyph glyph-name="J" unicode="J" horiz-adv-x="582" 
d="M30 -316c38.667 43.333 71.6699 87.001 99.0029 131.001s48.166 91.667 62.499 143s21.5 110.666 21.5 177.999v411v402v246.5v230.5h182v-230.5v-246.5v-357v-243v-230c0 -54 -4.83301 -102.833 -14.5 -146.5s-22.834 -83 -39.501 -118s-35.834 -66.333 -57.501 -94
s-44.167 -53.167 -67.5 -76.5h-186z" />
    <glyph glyph-name="K" unicode="K" horiz-adv-x="1342" 
d="M1055 0l-178.5 193.5l-162.5 176.5l-271 293h-98v149h97l235 245l164 171l188 198h220l-214.5 -221.5l-208.5 -216.5l-264 -275l-3 80l293 -323l146.5 -160l152.5 -167l131 -143h-227zM185 0v229v242v478v246.5v230.5h181v-230.5v-246.5v-478v-242v-229h-181z" />
    <glyph glyph-name="L" unicode="L" horiz-adv-x="1145" 
d="M185 0v229v242v478v246.5v230.5h181v-230.5v-246.5v-450v-242v-229l-68 133h262h201.5h162h152.5v-161h-891z" />
    <glyph glyph-name="M" unicode="M" horiz-adv-x="1915" 
d="M134 0l28.5 229l30.5 246l59 470l30 244l30 237h182l120 -293.5l115 -281.5l226 -554h14l224 553l114 282l118 294h182l28.5 -235l30.5 -245l58 -475l30 -241.5l28 -229.5h-173l-44 361l-39 319l-52 426h-13l-181 -459l-132 -334.5l-123 -312.5h-123l-80 200l-90.5 223
l-90.5 221l-187 462h-13l-52 -425l-38.5 -320l-43.5 -361h-173z" />
    <glyph glyph-name="N" unicode="N" horiz-adv-x="1508" 
d="M185 0v229v242v478v246.5v230.5h163l246 -347l233 -329l309 -436h15v635v246.5v230.5h172v-230.5v-246.5v-478v-242v-229h-161l-223 315.5l-257 363.5l-311 439h-14v-647v-242v-229h-172z" />
    <glyph glyph-name="O" unicode="O" horiz-adv-x="1634" 
d="M824 -22c-120.667 0 -226.335 19.499 -317.002 58.499s-166.167 92.667 -226.5 161s-105.5 146.833 -135.5 235.5s-45 182.334 -45 281.001c0 138.667 28.167 263.667 84.5 375s137.833 199.666 244.5 264.999s236.334 98 389.001 98c116 0 218.5 -19 307.5 -57
s163.833 -90.667 224.5 -158s106.334 -145.666 137.001 -234.999s46 -185 46 -287c0 -140.667 -28 -266.5 -84 -377.5s-137 -198.667 -243 -263s-233.333 -96.5 -382 -96.5zM818.999 133.999c91.333 0 169.995 15.8291 235.995 47.4961s120.5 74.834 163.5 129.501
s74.833 116.834 95.5 186.501s31 142.167 31 217.5c0 81.333 -11.167 157.166 -33.5 227.499s-55.666 132 -99.999 185s-99.166 94.333 -164.499 124s-141.333 44.5 -228 44.5c-89.333 0 -167.166 -15.667 -233.499 -47s-121.5 -74.166 -165.5 -128.499
s-77 -116.333 -99 -186s-33 -142.834 -33 -219.501c0 -77.333 10.667 -150.666 32 -219.999s53.833 -131.166 97.5 -185.499s98.834 -97.166 165.501 -128.499s145.334 -47 236.001 -47z" />
    <glyph glyph-name="P" unicode="P" horiz-adv-x="1255" 
d="M185 0l0.00195312 229v242v479v245v231h209.5h294.5c108.667 0 198.5 -14.333 269.5 -43s124.167 -73.167 159.5 -133.5s53 -137.5 53 -231.5c0 -87.333 -16.167 -164.833 -48.5 -232.5s-86.333 -120.834 -162 -159.501s-178.834 -58 -309.501 -58h-107h-111h-94v150h278
c85.333 0 155.166 10 209.499 30s94.5 52 120.5 96s39 101.667 39 173c0 58.667 -9.5 105.334 -28.5 140.001s-44 60.5 -75 77.5s-64.5 28.167 -100.5 33.5s-71 8 -105 8h-402l88 124v-231.5v-244.5v-453v-242v-229h-178z" />
    <glyph glyph-name="Q" unicode="Q" horiz-adv-x="1634" 
d="M1291 -337l-125.5 104.5l-125.5 103.5l-161 134l99 104l200 -155l130.5 -101.5l144.5 -112.5zM824 -22c-120.667 0 -226.335 19.499 -317.002 58.499s-166.167 92.667 -226.5 161s-105.5 146.833 -135.5 235.5s-45 182.334 -45 281.001
c0 138.667 28.167 263.667 84.5 375s137.833 199.666 244.5 264.999s236.334 98 389.001 98c116 0 218.5 -19 307.5 -57s163.833 -90.667 224.5 -158s106.334 -145.666 137.001 -234.999s46 -185 46 -287c0 -140.667 -28 -266.5 -84 -377.5s-137 -198.667 -243 -263
s-233.333 -96.5 -382 -96.5zM818.999 133.999c91.333 0 169.995 15.8291 235.995 47.4961s120.5 74.834 163.5 129.501s74.833 116.834 95.5 186.501s31 142.167 31 217.5c0 81.333 -11.167 157.166 -33.5 227.499s-55.666 132 -99.999 185s-99.166 94.333 -164.499 124
s-141.333 44.5 -228 44.5c-89.333 0 -167.166 -15.667 -233.499 -47s-121.5 -74.166 -165.5 -128.499s-77 -116.333 -99 -186s-33 -142.834 -33 -219.501c0 -77.333 10.667 -150.666 32 -219.999s53.833 -131.166 97.5 -185.499s98.834 -97.166 165.501 -128.499
s145.334 -47 236.001 -47z" />
    <glyph glyph-name="R" unicode="R" horiz-adv-x="1340" 
d="M185 0l0.00195312 229.003v242v479v245v231h131.5h163h187.5c108.667 0 199.167 -12.833 271.5 -38.5s126.666 -66.834 162.999 -123.501s54.5 -131.334 54.5 -224.001c0 -78 -15.167 -149.333 -45.5 -214s-80.833 -116.5 -151.5 -155.5s-166.334 -58.833 -287.001 -59.5
l57 79l225 -281l112 -139l115 -144.5l100 -125.5h-212l-136.5 174l-129.5 164l-256 330l111 -89h-327v149h271c83.333 0 152 9.66699 206 29s94.333 50.5 121 93.5s40 100.167 40 171.5c0 59.333 -9.5 106.166 -28.5 140.499s-44 59.5 -75 75.5s-64.5 26.333 -100.5 31
s-70.667 7 -104 7h-420l121 124v-234v-242v-453v-242v-229h-177z" />
    <glyph glyph-name="S" unicode="S" horiz-adv-x="1173" 
d="M599 -22c-59.333 0 -119.168 5.50098 -179.501 16.501s-116 24.667 -167 41s-92.167 32.833 -123.5 49.5l17 171c44.667 -24.667 91.167 -46.167 139.5 -64.5s97.666 -32.5 147.999 -42.5s101.833 -15 154.5 -15c59.333 0 112.833 8.16699 160.5 24.5
s85.334 42.333 113.001 78s41.5 82.5 41.5 140.5c0 50.667 -14.333 92.5 -43 125.5s-70.167 61.5 -124.5 85.5s-120.166 48 -197.499 72c-90.667 28.667 -168 59.667 -232 93s-112.833 74.5 -146.5 123.5s-50.5 111.5 -50.5 187.5c0 74 17.5 140.333 52.5 199
s87.167 104.834 156.5 138.501s155.333 50.5 258 50.5c42.667 0 84.834 -3 126.501 -9s81.5 -14.167 119.5 -24.5s72.667 -21.833 104 -34.5s58 -25.667 80 -39l-18 -172c-40.667 27.333 -83.667 50.166 -129 68.499s-90.333 32 -135 41s-86 13.5 -124 13.5
c-54 0 -103.667 -8 -149 -24s-81.833 -40.5 -109.5 -73.5s-41.5 -75.5 -41.5 -127.5c0 -45.333 11.667 -83 35 -113s60.166 -56.833 110.499 -80.5s115.166 -48.167 194.499 -73.5c114.667 -36 204.834 -72.5 270.501 -109.5s112.334 -79.833 140.001 -128.5
s41.5 -108.334 41.5 -179.001c0 -78 -17.167 -147.667 -51.5 -209s-87.833 -110 -160.5 -146s-166.334 -54 -281.001 -54z" />
    <glyph glyph-name="T" unicode="T" horiz-adv-x="1282" 
d="M551 0v229v242v452v245.5v231.5l72 -135h-169h-214.5h-177.5v161h1158v-161h-177h-215h-169l73 135v-231.5v-245.5v-452v-242v-229h-181z" />
    <glyph glyph-name="U" unicode="U" horiz-adv-x="1461" 
d="M731 -22c-132.667 0 -240.498 22.833 -323.498 68.5s-144 110 -183 193s-58.5 179.833 -58.5 290.5v108.5v147.5v163v246.5v230.5h180v-230.5v-246.5v-401c0 -86 12.667 -160 38 -222s66.166 -109.5 122.499 -142.5s131.166 -49.5 224.499 -49.5
c94 0 168.833 16.5 224.5 49.5s95.834 80.5 120.501 142.5s37 136.667 37 224v399v246.5v230.5h180v-230.5v-246.5v-163.5v-148.5v-107c0 -110.667 -19.667 -207.5 -59 -290.5s-100.333 -147.333 -183 -193s-189.334 -68.5 -320.001 -68.5z" />
    <glyph glyph-name="V" unicode="V" horiz-adv-x="1373" 
d="M565 0l-81.5 228l-80.5 224l-160 447l-59.5 166.5l-65.5 182.5l-64 178h201l112 -327l112 -327l201 -585h17l203 588l111 324l112 327h194l-62.5 -177.5l-64.5 -181l-59 -166.5l-160 -450l-79 -223l-81 -228h-246z" />
    <glyph glyph-name="W" unicode="W" horiz-adv-x="2040" 
d="M465 0l-65 227l-65 224l-128 446l-75 261.5l-77 267.5h200l87 -322l86 -322l153 -568h17l149 575l54.5 208.5l57 219l54.5 209.5h210l84 -318.5l85 -320.5l152 -573h17l155 576l85 318l85 318h201l-77.5 -267l-75.5 -258l-130 -450l-65.5 -227.5l-65.5 -223.5h-232
l-84.5 310l-83.5 306l-152 556h-18l-149 -556l-82 -308l-83 -308h-224z" />
    <glyph glyph-name="X" unicode="X" horiz-adv-x="1357" 
d="M73 0l122 197l130 209l219 352v-53l-191 292l-134.5 204l-146.5 225h209l122 -188.5l113 -175.5l138 -215h17l135 217l110.5 176l115.5 186h204l-136 -217l-120 -190l-205 -327v58l212 -312l150 -219.5l149 -218.5h-216l-119.5 179.5l-109.5 162.5l-172 258h-18
l-161 -259l-102.5 -165l-109.5 -176h-205z" />
    <glyph glyph-name="Y" unicode="Y" horiz-adv-x="1304" 
d="M568 557l-311 527l-96 162.5l-106 179.5h207l94 -165l74 -130.5l77 -135.5l138 -243h18l134 234l81.5 143l76.5 133.5l94 163.5h203l-101.5 -172.5l-99.5 -168.5l-311 -528h-172zM564 0v229v242v237h181v-237v-242v-229h-181z" />
    <glyph glyph-name="Z" unicode="Z" horiz-adv-x="1343" 
d="M96 0v104l126.5 166l142 185l131.5 171l543 709l42 -64h-407h-267.5h-294.5v155h1119v-130l-183.5 -238l-179.5 -234l-573 -745l-27 76h372h198h214.5h186.5v-155h-1143z" />
    <glyph glyph-name="bracketleft" unicode="[" horiz-adv-x="745" 
d="M191 -234v229.5v241.5v819v245.5v231.5h520v-139h-138.5h-175.5h-125l74 112v-230.5v-245.5v-765v-242v-229l-65 110h126h159.5h145.5v-138h-521z" />
    <glyph glyph-name="backslash" unicode="\" horiz-adv-x="890" 
d="M668 0l-92.5 216l-102.5 240l-210 492l-75 176l-65.5 152l-63.5 150h164l95.5 -223.5l106.5 -250.5l212 -496l102.5 -240l92.5 -216h-164z" />
    <glyph glyph-name="bracketright" unicode="]" horiz-adv-x="745" 
d="M34 -234v138h139h175h124l-73 -112v232.5v244.5v765v242.5v228.5l65 -111h-127h-158.5h-146.5v139h521v-229v-242v-819v-245v-232h-519z" />
    <glyph glyph-name="asciicircum" unicode="^" horiz-adv-x="1217" 
d="M937 758l-159.5 235.5l-160.5 234.5h-17l-160 -231.5l-159 -232.5h-160l192 304l192 303h207l192.5 -305l191.5 -306z" />
    <glyph glyph-name="underscore" unicode="_" horiz-adv-x="804" 
d="M-20 -242v138h182h164h152h164.5h181.5v-138h-181.5h-164.5h-152h-164h-182z" />
    <glyph glyph-name="grave" unicode="`" horiz-adv-x="1200" 
d="M614 1154l-106.5 131.5l-107 132.5l-108.5 134l184 4l136 -198.5l136 -201.5z" />
    <glyph glyph-name="a" unicode="a" horiz-adv-x="1046" 
d="M404 -20c-59.333 0 -111.332 11.5029 -155.999 34.5029s-79.5 55.833 -104.5 98.5s-37.5 94 -37.5 154c0 54 9.66699 99.5 29 136.5s44.666 67.167 75.999 90.5s66 41.5 104 54.5s76 22.833 114 29.5l311 54c2.66699 67.333 -6.16602 118.166 -26.499 152.499
s-48.833 57.5 -85.5 69.5s-77.334 18 -122.001 18c-22.667 0 -47 -1.66699 -73 -5s-53.5 -8.5 -82.5 -15.5s-59.5 -15.833 -91.5 -26.5s-65.667 -23.667 -101 -39l-9 151c24 10 51.167 19.667 81.5 29s62.666 17.833 96.999 25.5s69.5 13.5 105.5 17.5s72.333 6 109 6
c74 0 137.833 -11.667 191.5 -35s94.834 -60 123.501 -110s43 -115.333 43 -196v-117v-135v-129v-138.5v-154.5h-150l-9 141h-16c-20.667 -26.667 -46.667 -52.334 -78 -77.001s-67.5 -44.834 -108.5 -60.501s-85.833 -23.5 -134.5 -23.5zM452.001 117.003
c35.333 0 70.668 7.33398 106.001 22.001s68.5 36.5 99.5 65.5s57.167 65.5 78.5 109.5l1 214c-10.667 -6 -24.834 -12 -42.501 -18s-44 -12.833 -79 -20.5s-83.5 -17.167 -145.5 -28.5c-38 -6.66699 -71.667 -17.5 -101 -32.5s-52.5 -35.333 -69.5 -61
s-25.5 -56.834 -25.5 -93.501c0 -57.333 17.167 -97.833 51.5 -121.5s76.5 -35.5 126.5 -35.5z" />
    <glyph glyph-name="b" unicode="b" horiz-adv-x="1183" 
d="M658 -22c-46 0 -88.3359 6.16797 -127.003 18.501s-74 30 -106 53s-61 50.833 -87 83.5h-16l-14 -133h-136v213v225v549v245v232l165 20v-242.5v-254.5v-106h17c18.667 24.667 42.834 47.167 72.501 67.5s63.834 36.666 102.501 48.999s80.667 18.5 126 18.5
c90.667 0 167.834 -22.5 231.501 -67.5s112.167 -106.5 145.5 -184.5s50 -166.333 50 -265c0 -92.667 -15.5 -178.5 -46.5 -257.5s-78 -142.667 -141 -191s-141.833 -72.5 -236.5 -72.5zM607.997 126.001c71.333 0 129.5 17.667 174.5 53s78 81.166 99 137.499
s31.5 116.833 31.5 181.5c0 67.333 -11.167 128.833 -33.5 184.5s-56.166 100.167 -101.499 133.5s-103 50 -173 50c-34.667 0 -68.667 -5.16699 -102 -15.5s-64.166 -25.666 -92.499 -45.999s-52.833 -45.5 -73.5 -75.5v-441c20 -34 43.167 -63 69.5 -87
s56.166 -42.5 89.499 -55.5s70.666 -19.5 111.999 -19.5z" />
    <glyph glyph-name="c" unicode="c" horiz-adv-x="989" 
d="M604 -20c-107.333 0 -198.504 22.6689 -273.504 68.002s-132.167 107 -171.5 185s-59 166 -59 264s18.833 186.167 56.5 264.5s92.667 140.166 165 185.499s160.5 68 264.5 68c38.667 0 76.834 -3.33301 114.501 -10s73.167 -15.5 106.5 -26.5s63 -23.833 89 -38.5
l-15 -152c-37.333 21.333 -72.5 37.833 -105.5 49.5s-63.667 19.667 -92 24s-54.5 6.5 -78.5 6.5c-101.333 0 -182.666 -33.167 -243.999 -99.5s-92 -155.833 -92 -268.5c0 -70.667 13.5 -134.5 40.5 -191.5s67.667 -102 122 -135s121.833 -49.5 202.5 -49.5
c28.667 0 57.167 2.66699 85.5 8s56.5 13.166 84.5 23.499s55 23.833 81 40.5l14 -151c-22 -12 -47.667 -22.833 -77 -32.5s-62.166 -17.5 -98.499 -23.5s-76.166 -9 -119.499 -9z" />
    <glyph glyph-name="d" unicode="d" horiz-adv-x="1155" 
d="M525 -22c-94.667 0 -173.333 24.165 -236 72.498s-109.667 112 -141 191s-47 164.833 -47 257.5c0 98.667 16.667 187 50 265s81.833 139.5 145.5 184.5s140.834 67.5 231.501 67.5c46 0 88.167 -6.16699 126.5 -18.5s72.166 -28.666 101.499 -48.999
s53.666 -42.833 72.999 -67.5h17v106v244.5v232.5l165 20v-242.5v-254.5v-549v-225v-213h-144l-8 136h-16c-26 -34 -55 -62.667 -87 -86s-67.167 -41.166 -105.5 -53.499s-80.166 -18.5 -125.499 -18.5zM575.001 125.998c41.333 0 78.666 6.5 111.999 19.5
s63.166 31.5 89.499 55.5s49.5 53 69.5 87v441c-20.667 30 -45.167 55.167 -73.5 75.5s-59.166 35.666 -92.499 45.999s-67.333 15.5 -102 15.5c-70 0 -127.667 -16.667 -173 -50s-79.166 -77.833 -101.499 -133.5s-33.5 -117.167 -33.5 -184.5
c0 -64.667 10.667 -125.167 32 -181.5s54.333 -102.166 99 -137.499s102.667 -53 174 -53z" />
    <glyph glyph-name="e" unicode="e" horiz-adv-x="1055" 
d="M620 -22c-118.667 0 -216.332 22.667 -292.999 68s-133.667 107.333 -171 186s-56 168.667 -56 270c0 100 18.333 188.667 55 266s89.334 137.833 158.001 181.5s150.667 65.5 246 65.5c84 0 156.167 -16.333 216.5 -49s106.833 -80.5 139.5 -143.5
s49 -140.833 49 -233.5c0 -24.667 -0.5 -46.834 -1.5 -66.501s-3.16699 -39.5 -6.5 -59.5l-145 73c1.33301 10.667 2.16602 20.834 2.49902 30.501s0.5 19.167 0.5 28.5c0 94 -23.333 165.5 -70 214.5s-107.667 73.5 -183 73.5c-60.667 0 -112.834 -15.5 -156.501 -46.5
s-77.5 -73.833 -101.5 -128.5s-36 -117 -36 -187v-23c0 -77.333 13.333 -144 40 -200s67.167 -99.167 121.5 -129.5s123.5 -45.5 207.5 -45.5c31.333 0 64.5 2.5 99.5 7.5s69.667 12.833 104 23.5s67.166 24.667 98.499 42l7 -149
c-25.333 -14 -54.666 -26.167 -87.999 -36.5s-70 -18.333 -110 -24s-82.333 -8.5 -127 -8.5zM169.002 463v118l686 6l101 -38v-86h-787z" />
    <glyph glyph-name="f" unicode="f" horiz-adv-x="790" 
d="M237 0v213.001v225v100v128.5v140.5v151.5v163.5c0 70.667 9.5 129.667 28.5 177s45.333 85 79 113s72.167 48.167 115.5 60.5s89.666 18.5 138.999 18.5c24 0 47.333 -1.16699 70 -3.5s43.5 -5.5 62.5 -9.5s35.167 -8.66699 48.5 -14l-15 -143
c-21.333 8 -44.166 14.167 -68.499 18.5s-49.833 6.5 -76.5 6.5c-78 0 -134.833 -18.833 -170.5 -56.5s-53.5 -94.834 -53.5 -171.501v-69.5v-56.5l6 -37v-517v-225v-213h-165zM49 861.001v131h689v-131h-195h-191h-68h-235z" />
    <glyph glyph-name="g" unicode="g" horiz-adv-x="1084" 
d="M488 -406c-74 0 -135.666 6.66699 -184.999 20s-88.333 31.333 -117 54s-49.167 47.834 -61.5 75.501s-18.5 55.834 -18.5 84.501c0 44.667 11 82.167 33 112.5s47.667 54.166 77 71.499s55 29.333 77 36v14c-11.333 3.33301 -25 10.5 -41 21.5s-30.333 26.5 -43 46.5
s-19 45.333 -19 76c0 23.333 4.5 45 13.5 65s22.833 37.667 41.5 53s41.667 28.666 69 39.999v15c-15.333 5.33301 -35 15.333 -59 30s-48.167 34.5 -72.5 59.5s-44.833 55.833 -61.5 92.5s-25 80 -25 130c0 64.667 15.833 121.334 47.5 170.001s76.667 86.5 135 113.5
s126.833 40.5 205.5 40.5c32 0 59.833 -1.66699 83.5 -5l73.5 -10.5c25.333 -3.66699 56.333 -5.5 93 -5.5h309v-124h-193h-189l47 78c58.667 -28 100.834 -65.167 126.501 -111.5s38.5 -98.5 38.5 -156.5c0 -65.333 -13.333 -120.5 -40 -165.5
s-64.334 -81.333 -113.001 -109s-105.334 -48.834 -170.001 -63.501c-70 -16.667 -122 -31.834 -156 -45.501s-51 -34.167 -51 -61.5c0 -19.333 7 -34.333 21 -45s36.167 -18.334 66.5 -23.001s70.5 -7 120.5 -7h43c92 0 167.333 -7.16699 226 -21.5
s102.167 -38.166 130.5 -71.499s42.5 -77.666 42.5 -132.999c0 -57.333 -15 -107.5 -45 -150.5s-70 -78.5 -120 -106.5s-104.5 -48.833 -163.5 -62.5s-117.833 -20.5 -176.5 -20.5zM502.001 -272c73.333 0 134.832 10.166 184.499 30.499s86.834 44.5 111.501 72.5
s37 54 37 78c0 25.333 -7.33301 46.333 -22 63s-42 29.167 -82 37.5s-98 12.5 -174 12.5h-37c-42.667 -0.666992 -84 -7.66699 -124 -21s-72.833 -31.833 -98.5 -55.5s-38.5 -51.167 -38.5 -82.5c0 -17.333 4.16699 -34.166 12.5 -50.499s22 -30.833 41 -43.5
s44 -22.667 75 -30s69.167 -11 114.5 -11zM473 458.999c24.667 4 51.166 10.1689 79.499 18.502s55 20.166 80 35.499s45.5 35.666 61.5 60.999s24 57.333 24 96c0 48 -12.333 87 -37 117s-55.167 52.167 -91.5 66.5s-71.5 21.5 -105.5 21.5
c-40.667 0 -78.667 -7.16699 -114 -21.5s-64 -36 -86 -65s-33 -65.5 -33 -109.5s10.833 -81.333 32.5 -112s49.334 -55 83.001 -73s69.167 -29.667 106.5 -35z" />
    <glyph glyph-name="h" unicode="h" horiz-adv-x="1146" 
d="M172 0l0.000976562 213v225v549v245v232l165 20v-241.5v-255.5v-160h18c20 28 45.833 56.667 77.5 86s69.334 53.833 113.001 73.5s93.5 29.5 149.5 29.5c105.333 0 182.333 -30.333 231 -91s73 -148.667 73 -264v-115v-108v-222.5v-215.5h-165v214.5v216.5v188
c0 79.333 -14.167 139.333 -42.5 180s-79.5 61 -153.5 61c-44.667 0 -85.334 -9 -122.001 -27s-69.834 -42.167 -99.501 -72.5s-56.167 -63.833 -79.5 -100.5v-229v-218.5v-212.5h-165z" />
    <glyph glyph-name="i" unicode="i" horiz-adv-x="514" 
d="M174 0v213v225v100v164.5v146v143.5l166 6v-145.5v-148v-166.5v-100v-225v-213h-166zM254 1221c-36 0 -65.333 10 -88 30s-34 50.667 -34 92c0 40.667 11.333 71.167 34 91.5s52.667 30.5 90 30.5c36.667 0 66 -10.5 88 -31.5s33 -51.167 33 -90.5
c0 -41.333 -11 -72 -33 -92s-52 -30 -90 -30z" />
    <glyph glyph-name="j" unicode="j" horiz-adv-x="510" 
d="M10 -390c38.667 42 70.168 84.832 94.501 128.499s42 91.334 53 143.001s16.5 111.5 16.5 179.5v377v100v164.5v146v143.5l166 6v-145.5v-148v-166.5v-203v-158v-139c0 -50 -3.5 -96 -10.5 -138s-17.333 -80.333 -31 -115s-29.834 -66 -48.501 -94s-39.667 -53 -63 -75z
M254.001 1221c-36 0 -65.333 10 -88 30s-34 50.667 -34 92c0 40.667 11.333 71.167 34 91.5s52.667 30.5 90 30.5c36.667 0 66 -10.5 88 -31.5s33 -51.167 33 -90.5c0 -41.333 -11 -72 -33 -92s-52 -30 -90 -30z" />
    <glyph glyph-name="k" unicode="k" horiz-adv-x="1084" 
d="M830 0l-135.5 136l-135.5 135l-171 171h-70v118h80l144 153l133 139.5l132 139.5h204l-171 -174l-169 -174l-169 -172l-6 80l196 -202l177.5 -175.5l175.5 -174.5h-215zM172 0v213v225v549v245v232l165 20v-241.5v-255.5v-575v-209v-203h-165z" />
    <glyph glyph-name="l" unicode="l" horiz-adv-x="508" 
d="M172 0v213v225v549v245v232l165 20v-242.5v-254.5v-549v-225v-213h-165z" />
    <glyph glyph-name="m" unicode="m" horiz-adv-x="1745" 
d="M172 0l-0.000976562 213v225v100v225v229l144 10l5 -182h18c20.667 29.333 46.834 59.166 78.501 89.499s69.167 55.666 112.5 75.999s93 30.5 149 30.5c81.333 0 143.833 -20.167 187.5 -60.5s72.167 -98.166 85.5 -173.499l10 -6
c2.66699 -18 4.83398 -36.5 6.50098 -55.5s2.5 -38.833 2.5 -59.5v-115v-108v-222.5v-215.5h-165v214.5v216.5v188c0 79.333 -13.333 139.333 -40 180s-75 61 -145 61c-42.667 0 -81.167 -9.16699 -115.5 -27.5s-65.333 -42.666 -93 -72.999s-52.834 -63.5 -75.501 -99.5
v-229v-218.5v-212.5h-165zM1432 0l-0.000976562 214.5v216.5v188c0 79.333 -13.333 139.333 -40 180s-75 61 -145 61c-42 0 -80.167 -9 -114.5 -27s-65.666 -42.167 -93.999 -72.5s-53.5 -63.833 -75.5 -100.5l-24 156h18c22.667 30.667 50.5 61.5 83.5 92.5
s71.5 56.667 115.5 77s94 30.5 150 30.5c104 0 178.5 -31 223.5 -93s67.5 -149.333 67.5 -262v-115v-108v-222.5v-215.5h-165z" />
    <glyph glyph-name="n" unicode="n" horiz-adv-x="1146" 
d="M172 0l0.00390625 213v225v100v225v229l144 10l5 -184h18c21.333 30 48.666 60.333 81.999 91s72.666 56.167 117.999 76.5s97.333 30.5 156 30.5c105.333 0 182.333 -30.333 231 -91s73 -148.667 73 -264v-115v-108v-222.5v-215.5h-165v214.5v216.5v188
c0 79.333 -14.167 139.333 -42.5 180s-79.5 61 -153.5 61c-44.667 0 -85.334 -9 -122.001 -27s-69.834 -42.167 -99.501 -72.5s-56.167 -63.833 -79.5 -100.5v-229v-218.5v-212.5h-165z" />
    <glyph glyph-name="o" unicode="o" horiz-adv-x="1195" 
d="M601 -22c-82 0 -154.165 14.166 -216.498 42.499s-114.5 66.833 -156.5 115.5s-73.833 104.5 -95.5 167.5s-32.5 129.167 -32.5 198.5c0 99.333 20.167 187.5 60.5 264.5s97.666 137.833 171.999 182.5s162.833 67 265.5 67c79.333 0 149.666 -13 210.999 -39
s113.333 -62.333 156 -109s75 -101.167 97 -163.5s33 -129.833 33 -202.5c0 -98 -20 -186.667 -60 -266s-96.833 -142.166 -170.5 -188.499s-161.5 -69.5 -263.5 -69.5zM601.002 121.999c72.667 0 133.003 18 181.003 54s84 83 108 141s36 119.667 36 185
c0 74.667 -13.333 139.667 -40 195s-64.334 98.333 -113.001 129s-106.334 46 -173.001 46c-72 0 -132.667 -16.333 -182 -49s-86.5 -77 -111.5 -133s-37.5 -118.667 -37.5 -188c0 -65.333 12.167 -127 36.5 -185s61.166 -105 110.499 -141s111 -54 185 -54z" />
    <glyph glyph-name="p" unicode="p" horiz-adv-x="1183" 
d="M172 -390l-0.00292969 215.499v228.5v484v225v229l150 10l4 -129h17c20 26 45.333 49.833 76 71.5s65.834 39 105.501 52s83.167 19.5 130.5 19.5c90.667 0 167.834 -22.5 231.501 -67.5s112.167 -106.5 145.5 -184.5s50 -166.333 50 -265
c0 -92.667 -15.5 -178.5 -46.5 -257.5s-78 -142.667 -141 -191s-141.833 -72.5 -236.5 -72.5c-44 0 -84.667 5.83301 -122 17.5s-71.166 28.334 -101.499 50.001s-57.833 48.167 -82.5 79.5h-15v-78v-218.5v-212.5zM607.997 125.999c71.333 0 129.5 17.667 174.5 53
s78 81.166 99 137.499s31.5 116.833 31.5 181.5c0 67.333 -11.167 128.833 -33.5 184.5s-56.166 100.167 -101.499 133.5s-103 50 -173 50c-34.667 0 -68.667 -5.16699 -102 -15.5s-64.166 -25.666 -92.499 -45.999s-52.833 -45.5 -73.5 -75.5v-441
c20 -34 43.167 -63 69.5 -87s56.166 -42.5 89.499 -55.5s70.666 -19.5 111.999 -19.5z" />
    <glyph glyph-name="q" unicode="q" horiz-adv-x="1169" 
d="M846 -390l-0.000976562 215v222v79h-14c-25.333 -31.333 -53.333 -58 -84 -80s-64.5 -38.833 -101.5 -50.5s-77.5 -17.5 -121.5 -17.5c-94.667 0 -173.334 24.167 -236.001 72.5s-109.667 112 -141 191s-47 164.833 -47 257.5c0 98.667 16.667 187 50 265
s81.833 139.5 145.5 184.5s140.834 67.5 231.501 67.5c47.333 0 90.833 -6.5 130.5 -19.5s74.834 -30.333 105.501 -52s56 -45.5 76 -71.5h17l4 119l150 10v-229.5v-234.5v-484v-225v-213zM574.999 126c41.333 0 78.666 6.5 111.999 19.5s63.166 31.5 89.499 55.5
s49.5 53 69.5 87v441c-20.667 30 -45.167 55.167 -73.5 75.5s-59.166 35.666 -92.499 45.999s-67.333 15.5 -102 15.5c-70 0 -127.667 -16.667 -173 -50s-79.166 -77.833 -101.499 -133.5s-33.5 -117.167 -33.5 -184.5c0 -64.667 10.667 -125.167 32 -181.5
s54.333 -102.166 99 -137.499s102.667 -53 174 -53z" />
    <glyph glyph-name="r" unicode="r" horiz-adv-x="799" 
d="M172 0l-0.00488281 213.001v225v100v225v229l144 10l5 -202h17c27.333 60.667 58.833 106.5 94.5 137.5s71.834 51.833 108.501 62.5s70.334 16 101.001 16c18.667 0 37.334 -1.33301 56.001 -4s36.334 -7 53.001 -13l-15 -166c-22 4 -41.833 7.33301 -59.5 10
s-38.167 4 -61.5 4c-19.333 0 -41.166 -2.83301 -65.499 -8.5s-49.333 -17.334 -75 -35.001s-50.5 -44 -74.5 -79s-45 -81.5 -63 -139.5v-154v-218.5v-212.5h-165z" />
    <glyph glyph-name="s" unicode="s" horiz-adv-x="910" 
d="M452 -22c-41.333 0 -82.832 3.33594 -124.499 10.0029s-80.834 15.5 -117.501 26.5s-68.667 23.5 -96 37.5l13 155c30.667 -17.333 63.5 -32.5 98.5 -45.5s71.333 -23 109 -30s75.5 -10.5 113.5 -10.5c36.667 0 70.5 4.16699 101.5 12.5s55.667 23.666 74 45.999
s27.5 54.833 27.5 97.5c0 28 -8 51 -24 69s-42.833 34.333 -80.5 49s-88.5 31 -152.5 49c-52.667 14.667 -99.667 32.667 -141 54s-73.833 50 -97.5 86s-35.5 83 -35.5 141c0 90 29.5 160.833 88.5 212.5s138.5 77.5 238.5 77.5c41.333 0 81.333 -3.5 120 -10.5
s74.334 -16.167 107.001 -27.5s61 -23.333 85 -36l-14 -155c-32 20 -65 36.5 -99 49.5s-66.667 22.333 -98 28s-59 8.5 -83 8.5c-27.333 0 -54.5 -3.83301 -81.5 -11.5s-49.5 -21.667 -67.5 -42s-27 -49.5 -27 -87.5c0 -27.333 6.33301 -50.333 19 -69
s34.667 -35.334 66 -50.001s74.666 -30 129.999 -46c66 -19.333 122.5 -39.5 169.5 -60.5s83.167 -48.5 108.5 -82.5s38 -81 38 -141c0 -58 -12.667 -109.833 -38 -155.5s-65 -81.834 -119 -108.501s-124.333 -40 -211 -40z" />
    <glyph glyph-name="t" unicode="t" horiz-adv-x="820" 
d="M548 -22c-66 0 -122 11.5 -168 34.5s-80.833 58 -104.5 105s-35.5 107.167 -35.5 180.5v172.5v168v159v146.5v189v181l163 36v-137v-127v-142v-607c0 -71.333 15.167 -125 45.5 -161s76.833 -54 139.5 -54c24.667 0 51.667 4.16699 81 12.5s55.333 21.5 78 39.5l14 -145
c-13.333 -10 -31.333 -18.833 -54 -26.5s-47.667 -13.667 -75 -18s-55.333 -6.5 -84 -6.5zM49 861v131h702v-131h-201.5h-197.5h-68h-235z" />
    <glyph glyph-name="u" unicode="u" horiz-adv-x="1117" 
d="M451 -22c-105.333 0 -182.332 30.332 -230.999 90.999s-73 148.667 -73 264v114.5v95.5v163.5v143.5v142l165 7v-216v-223v-188c0 -78.667 14.333 -138.5 43 -179.5s79.667 -61.5 153 -61.5c42.667 0 81.667 9.16699 117 27.5s67.666 42.5 96.999 72.5s56 63.333 80 100
v229v220v212h165v-214v-235v-105v-225v-213h-144l-6 175h-18c-20.667 -30 -47.5 -60.167 -80.5 -90.5s-71.833 -55.666 -116.5 -75.999s-95 -30.5 -151 -30.5z" />
    <glyph glyph-name="v" unicode="v" horiz-adv-x="1026" 
d="M420 0l-70.5 189l-69.5 186l-66 176l-82.5 220.5l-81.5 220.5l177 7l85.5 -250l84.5 -250l109 -318h17l109 319l85.5 249.5l82.5 242.5h176l-82.5 -221l-81.5 -222l-66 -178l-69 -185.5l-69 -185.5h-188z" />
    <glyph glyph-name="w" unicode="w" horiz-adv-x="1601" 
d="M374 0l-61 187.5l-63 190.5l-57 176l-71.5 218.5l-71.5 219.5l174 7l77.5 -256.5l77.5 -258.5l92 -307h16l90 314l72 249.5l73 251.5h160l73 -247.5l73 -249.5l93 -318h16l94 322l73.5 252.5l70.5 240.5h176l-70.5 -219l-70.5 -219l-56 -174l-63 -192.5l-61 -187.5h-195
l-72 238.5l-72 234.5l-87 289h-17l-86 -292l-69 -233l-71 -237h-187z" />
    <glyph glyph-name="x" unicode="x" horiz-adv-x="1064" 
d="M58 0l78.5 117.5l63 94l63.5 94.5l150 224l2 -47l-147 213l-65.5 94l-64 92l-76.5 110l187 7l83.5 -126l77.5 -119l106 -160h14l105 160l76 117.5l79 120.5h190l-77.5 -110.5l-61.5 -87.5l-64 -91l-150 -214l-8 44l167 -228l102.5 -140.5l120.5 -164.5h-200l-81 117.5
l-81 116.5l-121 176h-14l-110 -168l-78.5 -120.5l-79.5 -121.5h-186z" />
    <glyph glyph-name="y" unicode="y" horiz-adv-x="1035" 
d="M268 -390l80 198l80 198v-42l-76 207l-75 204l-66 180l-80.5 219l-80.5 218l177 7l84 -252l84 -251l105 -319h18l115 320l89 248l89 247h175l-61.5 -154.5l-65 -164.5l-84.5 -214l-110 -279l-127.5 -323l-95.5 -241z" />
    <glyph glyph-name="z" unicode="z" horiz-adv-x="994" 
d="M77 0v85l166 217.5l153 200.5l318 417l24 -60h-219h-128.5h-155.5h-154v132h810v-99l-90.5 -117l-106 -138.5l-104.5 -135.5l-316 -413l-18 43h242h127.5h151.5h145v-132h-845z" />
    <glyph glyph-name="braceleft" unicode="{" horiz-adv-x="809" 
d="M603 -234c-68 0 -126.168 11.002 -174.501 33.002s-85.666 54.167 -111.999 96.5s-39.5 93.833 -39.5 154.5v67.5v67v67.5v67.5v67.5c0 47.333 -8.83301 85.666 -26.5 114.999s-40.5 50.666 -68.5 63.999s-58.333 20 -91 20h-66v126h66c32.667 0 63 6.5 91 19.5
s50.833 34.167 68.5 63.5s26.5 68 26.5 116v67.5v67.5v67.5v67.5v68c0 90.667 29 160.667 87 210s137.667 74 239 74h172v-139h-86h-66c-62.667 0 -110.167 -14.333 -142.5 -43s-48.5 -70.667 -48.5 -126v-312c0 -52 -6.5 -94 -19.5 -126s-31.667 -58 -56 -78
s-53.166 -37 -86.499 -51v-17c33.333 -14.667 62.166 -32 86.499 -52s43 -46.167 56 -78.5s19.5 -74.5 19.5 -126.5v-310c0 -55.333 16.167 -97.5 48.5 -126.5s79.833 -43.5 142.5 -43.5h65h90v-138h-175z" />
    <glyph glyph-name="bar" unicode="|" horiz-adv-x="528" 
d="M190 -313v172.5v164v160.5v161v564v161v160.5v164.5v172h148v-172v-164.5v-160.5v-161v-564v-161v-160.5v-164v-172.5h-148z" />
    <glyph glyph-name="braceright" unicode="}" horiz-adv-x="809" 
d="M34 -234v138h86h65c63.333 0 111.166 14.5 143.499 43.5s48.5 71.167 48.5 126.5v312c0 51.333 6.5 93.166 19.5 125.499s31.667 58.333 56 78s53.166 36.834 86.499 51.501v17c-33.333 14.667 -62.166 32 -86.499 52s-43 46.167 -56 78.5s-19.5 74.5 -19.5 126.5v310
c0 55.333 -16.167 97.333 -48.5 126s-80.166 43 -143.499 43h-64h-90v139h175c67.333 0 125.333 -11 174 -33s86 -54.333 112 -97s39 -94 39 -154v-68v-67.5v-67v-67v-67.5c0 -48 8.83301 -86.667 26.5 -116s40.667 -50.5 69 -63.5s58.5 -19.5 90.5 -19.5h66v-126h-66
c-32 0 -62.167 -6.5 -90.5 -19.5s-51.333 -34.167 -69 -63.5s-26.5 -68 -26.5 -116v-67.5v-67.5v-68v-67.5v-67.5c0 -90.667 -28.833 -160.667 -86.5 -210s-137.167 -74 -238.5 -74h-172z" />
    <glyph glyph-name="asciitilde" unicode="~" horiz-adv-x="1136" 
d="M793 442c-44.667 0 -86.3311 8.33301 -124.998 25s-75 35.834 -109 57.501s-66.833 40.834 -98.5 57.501s-62.834 25 -93.501 25c-37.333 0 -68.333 -11 -93 -33s-38 -55.667 -40 -101h-110c0 89.333 21.167 158.666 63.5 207.999s96.166 74 161.499 74
c44.667 0 86.167 -8.33301 124.5 -25s74.166 -35.834 107.499 -57.501s66 -40.834 98 -57.501s63.667 -25 95 -25c36.667 0 66.834 11 90.501 33s36.167 55.667 37.5 101h111c0 -89.333 -20.667 -158.666 -62 -207.999s-94 -74 -158 -74z" />
    <glyph glyph-name="uni00A0" unicode="&#xa0;" horiz-adv-x="383" 
 />
    <glyph glyph-name="exclamdown" unicode="&#xa1;" horiz-adv-x="472" 
d="M134 -395l19.5 484c6.33301 162.667 10.5 325.667 12.5 489l136 3c2.66699 -164 7 -326.667 13 -488s12.333 -322 19 -482zM236 838c-27.333 0 -50.832 5.66699 -70.499 17s-34.834 26.666 -45.501 45.999s-16 42 -16 68c0 39.333 12 70.5 36 93.5s56 34.5 96 34.5
c28 0 51.667 -5.16699 71 -15.5s34.5 -25.166 45.5 -44.499s16.5 -42 16.5 -68c0 -38.667 -11.833 -70.167 -35.5 -94.5s-56.167 -36.5 -97.5 -36.5z" />
    <glyph glyph-name="cent" unicode="&#xa2;" horiz-adv-x="989" 
d="M500 -274v172.5v164v160.5v161v207v161v160.5v164.5v172h125v-172v-164.5v-160.5v-161v-207v-161.5v-161v-164v-171.5h-125zM604 -20c-107.333 0 -198.504 22.6689 -273.504 68.002s-132.167 107 -171.5 185s-59 166 -59 264s18.833 186.167 56.5 264.5
s92.667 140.166 165 185.499s160.5 68 264.5 68c38.667 0 76.834 -3.33301 114.501 -10s73.167 -15.5 106.5 -26.5s63 -23.833 89 -38.5l-15 -152c-37.333 21.333 -72.5 37.833 -105.5 49.5s-63.667 19.667 -92 24s-54.5 6.5 -78.5 6.5
c-101.333 0 -182.666 -33.167 -243.999 -99.5s-92 -155.833 -92 -268.5c0 -70.667 13.5 -134.5 40.5 -191.5s67.667 -102 122 -135s121.833 -49.5 202.5 -49.5c28.667 0 57.167 2.66699 85.5 8s56.5 13.166 84.5 23.499s55 23.833 81 40.5l14 -151
c-22 -12 -47.667 -22.833 -77 -32.5s-62.166 -17.5 -98.499 -23.5s-76.166 -9 -119.499 -9z" />
    <glyph glyph-name="sterling" unicode="&#xa3;" horiz-adv-x="1182" 
d="M128 0l0.000976562 98.999c42.667 36.667 75 74.834 97 114.501s37 80.167 45 121.5s12 82.666 12 123.999v223v222c0 165.333 40.333 288.833 121 370.5s195 122.5 343 122.5c39.333 0 78 -3.16699 116 -9.5s73.667 -15.166 107 -26.499s63 -24.333 89 -39l-17 -154
c-38.667 20.667 -74.667 36.667 -108 48s-64.5 19 -93.5 23s-55.833 6 -80.5 6c-100.667 0 -176.334 -28.333 -227.001 -85s-76 -145 -76 -265v-396c0 -48.667 -5 -94.834 -15 -138.501s-28.5 -86.167 -55.5 -127.5s-66.167 -82.666 -117.5 -123.999l-16 44h285h226.5h182
h169.5v-153h-987zM119.001 689.999v123h182.5h164.5h67h165h182v-123h-182h-165h-67h-164.5h-182.5z" />
    <glyph glyph-name="currency" unicode="&#xa4;" horiz-adv-x="1246" 
d="M620 231c-60 0 -115.333 9.16406 -166 27.4971s-94.5 45.333 -131.5 81s-65.667 78.834 -86 129.501s-30.5 108 -30.5 172c0 80.667 17.833 151.834 53.5 213.501s85 109.667 148 144s135.167 51.5 216.5 51.5c59.333 0 114.333 -9.83301 165 -29.5
s94.5 -47.667 131.5 -84s65.667 -79.5 86 -129.5s30.5 -105.333 30.5 -166c0 -86 -18 -159.667 -54 -221s-85.5 -108.166 -148.5 -140.499s-134.5 -48.5 -214.5 -48.5zM196 107.997l-106 106l128.5 129l115.5 116l106 -106l-115 -116zM620 373.997
c74.667 0 137.499 21.8311 188.499 65.498s76.5 110.834 76.5 201.501c0 55.333 -11.5 103 -34.5 143s-54.333 70.667 -94 92s-84.167 32 -133.5 32s-94 -10.5 -134 -31.5s-71.833 -51.5 -95.5 -91.5s-35.5 -88 -35.5 -144c0 -60.667 11.667 -110.667 35 -150
s54.833 -68.666 94.5 -87.999s83.834 -29 132.501 -29zM334.999 824.995l-115 117l-129 128l104 104l128 -128l116 -117zM1051 108.995l-127.5 129l-116.5 116l104 104l116 -116l128 -129zM911.999 823.995l-106 106l116 117l128 128l106 -106l-128 -128z" />
    <glyph glyph-name="yen" unicode="&#xa5;" horiz-adv-x="1248" 
d="M542 539l-295 504l-53.5 92l-58 99l-80.5 137h199l88 -157.5l70 -124l73 -130.5l130 -234h19l132 236l73.5 129.5l71 125l88.5 155.5h194l-95.5 -163.5l-95.5 -163.5l-294 -505h-166zM539 0v220v232v228h173v-228v-232v-220h-173zM160 283v111h182h164h239h164.5h181.5
v-111h-181.5h-164.5h-239h-164h-182zM160 569v112h182h164h239h164.5h181.5v-112h-181.5h-164.5h-239h-164h-182z" />
    <glyph glyph-name="brokenbar" unicode="&#xa6;" horiz-adv-x="528" 
d="M190 727v182v161v160.5v164.5v172h148v-172v-164.5v-160.5v-161v-182h-148zM190 -313v172.5v164v160.5v161v182h148v-182v-161v-160.5v-164v-172.5h-148z" />
    <glyph glyph-name="section" unicode="&#xa7;" horiz-adv-x="1093" 
d="M492 -251c-50 0 -99.832 3.99902 -149.499 11.999s-96.667 19 -141 33s-82.833 30 -115.5 48l15 153c36.667 -22 75.834 -40.833 117.501 -56.5s84.667 -27.834 129 -36.501s88.166 -13 131.499 -13c48.667 0 93.167 6.16699 133.5 18.5s72.333 33.5 96 63.5
s35.5 71.667 35.5 125c0 38.667 -10.167 70 -30.5 94s-53.833 45.5 -100.5 64.5s-109.667 40.833 -189 65.5c-64.667 20 -121.667 43.667 -171 71s-87.833 61.333 -115.5 102s-41.5 91.334 -41.5 152.001c0 48 9.16699 92.667 27.5 134s45.5 77.333 81.5 108s80 54 132 70
l100 -103c-28.667 -5.33301 -56 -16 -82 -32s-47.333 -37.833 -64 -65.5s-25 -61.5 -25 -101.5c0 -39.333 9.16699 -72.166 27.5 -98.499s47.166 -49.166 86.499 -68.499s90.333 -38.333 153 -57c80 -23.333 148.333 -48 205 -74s100 -59.667 130 -101s45 -96 45 -164
c0 -64 -14.5 -121.833 -43.5 -173.5s-74.5 -92.834 -136.5 -123.501s-142.333 -46 -241 -46zM792.001 255.999l-102.001 94.002c47.333 12.667 85.5 37 114.5 73s43.5 82 43.5 138c0 40.667 -10.167 74 -30.5 100s-54 49.167 -101 69.5s-109.833 42.166 -188.5 65.499
c-61.333 17.333 -117 39.333 -167 66s-89.667 61 -119 103s-44 95.333 -44 160c0 98 34 177 102 237s161 90 279 90c47.333 0 93.5 -4 138.5 -12s86.667 -18.833 125 -32.5s72.166 -28.834 101.499 -45.501l-13 -153c-40.667 26 -80.5 46.667 -119.5 62
s-75.833 26 -110.5 32s-66.334 9 -95.001 9c-23.333 0 -48.666 -2.5 -75.999 -7.5s-53.166 -14.333 -77.499 -28s-44.166 -33 -59.499 -58s-23 -57.167 -23 -96.5c0 -36 9.16699 -66.333 27.5 -91s47 -46.667 86 -66s90.167 -38.333 153.5 -57
c79.333 -23.333 147.333 -48.5 204 -75.5s100.167 -60.833 130.5 -101.5s45.5 -92.667 45.5 -156c0 -70 -18 -133 -54 -189s-93 -99.333 -171 -130z" />
    <glyph glyph-name="dieresis" unicode="&#xa8;" horiz-adv-x="1200" 
d="M809 1207c-32.667 0 -58.998 9.66699 -78.998 29s-30 48.333 -30 87c0 38 10.167 67 30.5 87s47.166 30 80.499 30s59.666 -10.5 78.999 -31.5s29 -49.5 29 -85.5c0 -38.667 -9.83301 -67.667 -29.5 -87s-46.5 -29 -80.5 -29zM385.002 1207
c-32.667 0 -58.998 9.66699 -78.998 29s-30 48.333 -30 87c0 38 10.167 67 30.5 87s47.166 30 80.499 30s59.666 -10.5 78.999 -31.5s29 -49.5 29 -85.5c0 -38.667 -9.83301 -67.667 -29.5 -87s-46.5 -29 -80.5 -29z" />
    <glyph glyph-name="copyright" unicode="&#xa9;" horiz-adv-x="1635" 
d="M825 -22c-121.333 0 -227.168 18.8311 -317.501 56.498s-165.666 89.334 -225.999 155.001s-105.666 141.167 -135.999 226.5s-45.5 176 -45.5 272c0 133.333 28.167 253.5 84.5 360.5s138.166 191.833 245.499 254.5s236.666 94 387.999 94
c154.667 0 285.334 -31.667 392.001 -95s187.5 -148.666 242.5 -255.999s82.5 -226.333 82.5 -357c0 -136 -28.333 -257.5 -85 -364.5s-138 -191.5 -244 -253.5s-233 -93 -381 -93zM841.998 310.998c-78 0 -144.499 16.666 -199.499 49.999s-96.833 78.333 -125.5 135
s-43 120.667 -43 192s13.833 135.5 41.5 192.5s68 102.167 121 135.5s117.167 50 192.5 50c28 0 55.833 -2.33301 83.5 -7s53.834 -11.167 78.501 -19.5s46.334 -17.833 65.001 -28.5l-12 -122c-40.667 25.333 -77.834 41.666 -111.501 48.999s-63.834 11 -90.501 11
c-68 0 -124 -22.167 -168 -66.5s-66 -108.166 -66 -191.499c0 -79.333 21.833 -143.333 65.5 -192s107.167 -73 190.5 -73c32 0 63.167 4.33301 93.5 13s59.833 22 88.5 40l12 -121c-16 -8 -34.833 -15.667 -56.5 -23s-45.834 -13.166 -72.501 -17.499
s-55.667 -6.5 -87 -6.5zM823.999 86.9971c122.667 0 228.667 24.668 318 74.001s158.333 119.166 207 209.499s73 196.5 73 318.5c0 120.667 -24 226 -72 316s-117.167 159.833 -207.5 209.5s-198.166 74.5 -323.499 74.5c-124.667 0 -232.334 -25 -323.001 -75
s-160.5 -120.167 -209.5 -210.5s-73.5 -195.5 -73.5 -315.5c0 -120.667 24 -226 72 -316s117.5 -160 208.5 -210s201.167 -75 330.5 -75z" />
    <glyph glyph-name="ordfeminine" unicode="&#xaa;" horiz-adv-x="791" 
d="M301 665c-71.333 0 -126 19.665 -164 58.998s-57 88.666 -57 147.999c0 42.667 7.5 78.834 22.5 108.501s34.5 54 58.5 73s49.833 34 77.5 45s53.834 18.833 78.501 23.5l244 49c2 45.333 -4.5 80 -19.5 104s-36.167 40.333 -63.5 49s-58.666 13 -93.999 13
c-22 0 -46.5 -2 -73.5 -6s-56.333 -10.833 -88 -20.5s-65.5 -23.167 -101.5 -40.5l-8 124c19.333 8 40.5 15.333 63.5 22s47.667 12.834 74 18.501s53.166 10 80.499 13s54.666 4.5 81.999 4.5c82 0 147 -20.333 195 -61s72 -107 72 -199v-89v-101v-89v-108.5v-124.5h-112
l-6 120h-12c-16 -24.667 -36.667 -47.167 -62 -67.5s-54 -36.666 -86 -48.999s-65.667 -18.5 -101 -18.5zM347 774.998c25.333 0 51.167 4.66797 77.5 14.001s51 24.166 74 44.499s42.833 46.5 59.5 78.5v183c-8 -4.66699 -18.333 -9.5 -31 -14.5
s-31.334 -10.667 -56.001 -17s-58.667 -13.833 -102 -22.5c-27.333 -5.33301 -53.5 -13.333 -78.5 -24s-45.333 -25.5 -61 -44.5s-23.5 -43.833 -23.5 -74.5c0 -44 13.333 -75.5 40 -94.5s60.334 -28.5 101.001 -28.5z" />
    <glyph glyph-name="guillemotleft" unicode="&#xab;" horiz-adv-x="1136" 
d="M894 -4l-187.5 253.5l-187.5 252.5l187.5 253.5l187.5 253.5l168 -10l-181.5 -244.5l-181.5 -245.5v-17l181.5 -243.5l181.5 -243.5zM434 -4l-187.5 253.5l-187.5 252.5l187.5 253.5l187.5 253.5l168 -10l-181.5 -244.5l-181.5 -245.5v-17l181.5 -243.5l181.5 -243.5z
" />
    <glyph glyph-name="logicalnot" unicode="&#xac;" horiz-adv-x="1136" 
d="M862 318v182v164v162l120 -103h-165.5h-149.5h-197h-164h-182v148h182h164h197h164.5h181.5v-207v-164v-182h-151z" />
    <glyph glyph-name="uni00AD" unicode="&#xad;" horiz-adv-x="845" 
d="M124 521v148h157.5h141.5h142h157v-148h-157h-142h-141.5h-157.5z" />
    <glyph glyph-name="registered" unicode="&#xae;" horiz-adv-x="1138" 
d="M574 510c-112.667 0 -206.166 22.6699 -280.499 68.0029s-129.833 105.166 -166.5 179.499s-55 155.166 -55 242.499c0 92 19 175.167 57 249.5s94 133.166 168 176.499s164.667 65 272 65c108 0 199 -22 273 -66s129.833 -103.167 167.5 -177.5s56.5 -156.5 56.5 -246.5
c0 -94 -19.333 -178 -58 -252s-94.834 -132.333 -168.501 -175s-162.167 -64 -265.5 -64zM372.001 728.003v92v96v192v97.5v92.5l89 -13v-90v-95v-184v-96v-92h-89zM573.001 585.003c87.333 0 161.666 17.501 222.999 52.501s108.166 83.667 140.499 146
s48.5 134.833 48.5 217.5c0 81.333 -15.833 153.166 -47.5 215.499s-78.5 111 -140.5 146s-138 52.5 -228 52.5c-89.333 0 -165.166 -17.5 -227.499 -52.5s-109.666 -83.833 -141.999 -146.5s-48.5 -134.667 -48.5 -216c0 -60 9 -115.5 27 -166.5s44.667 -95 80 -132
s79.333 -65.667 132 -86s113.667 -30.5 183 -30.5zM717.001 728.004l-52.5 72.499l-49.5 66.5l-94 129l55 -35h-132v67h102c40.667 0 73.5 7.5 98.5 22.5s37.5 42.5 37.5 82.5c0 28.667 -6.5 49.334 -19.5 62.001s-28.5 20.334 -46.5 23.001s-34 4 -48 4h-136l-60 76h84.5
h115.5c62 0 111.167 -12.167 147.5 -36.5s54.5 -64.833 54.5 -121.5c0 -46.667 -14.5 -86.834 -43.5 -120.501s-79.167 -50.5 -150.5 -50.5l34 38l86 -114l65.5 -87l58.5 -78h-107z" />
    <glyph glyph-name="macron" unicode="&#xaf;" horiz-adv-x="1200" 
d="M286 1252v129h150h164h164.5h149.5v-129h-149.5h-164.5h-164h-150z" />
    <glyph glyph-name="degree" unicode="&#xb0;" horiz-adv-x="957" 
d="M478 630c-78.667 0 -148.333 15.667 -209 47s-108.167 75.666 -142.5 132.999s-51.5 124.666 -51.5 201.999c0 73.333 17.333 139 52 197s82.334 103.833 143.001 137.5s130.667 50.5 210 50.5c78.667 0 148.167 -16.833 208.5 -50.5s107.666 -79.5 141.999 -137.5
s51.5 -123.667 51.5 -197c0 -77.333 -17.167 -144.666 -51.5 -201.999s-81.833 -101.666 -142.5 -132.999s-130.667 -47 -210 -47zM478.001 757c80.667 0 144.168 22.6689 190.501 68.002s69.5 107.333 69.5 186c0 50 -10.5 94.5 -31.5 133.5s-50.833 69.833 -89.5 92.5
s-84.334 34 -137.001 34c-80 0 -143.5 -24.333 -190.5 -73s-70.5 -111 -70.5 -187c0 -52.667 10.5 -97.834 31.5 -135.501s51 -66.834 90 -87.501s84.833 -31 137.5 -31z" />
    <glyph glyph-name="plusminus" unicode="&#xb1;" horiz-adv-x="1136" 
d="M124 0v148h182h164h197h164.5h181.5v-148h-181.5h-164.5h-197h-164h-182zM124 717v148h182h164h197h164.5h181.5v-148h-181.5h-164.5h-197h-164h-182zM493 323v182v164v244v165v181h151v-181v-165v-244v-164v-182h-151z" />
    <glyph glyph-name="uni00B2" unicode="&#xb2;" horiz-adv-x="804" 
d="M70 603l0.00195312 94.998l84.5 69l85.5 70c67.333 54.667 124.833 105.334 172.5 152.001s84 91.667 109 135s37.5 87.333 37.5 132c0 54 -15.667 95 -47 123s-80.333 42 -147 42c-29.333 0 -60 -3.66699 -92 -11s-64.333 -18 -97 -32s-65 -31 -97 -51l-14 136
c21.333 10.667 44.666 20.834 69.999 30.501s52 18.167 80 25.5s56.833 13 86.5 17s59.5 6 89.5 6c66.667 0 123.167 -10.833 169.5 -32.5s81.666 -52.5 105.999 -92.5s36.5 -87.667 36.5 -143c0 -49.333 -11.833 -98.5 -35.5 -147.5s-59.167 -99 -106.5 -150
s-106.333 -104.167 -177 -159.5l-155 -122l-22 30h152h181h180v-122h-650z" />
    <glyph glyph-name="uni00B3" unicode="&#xb3;" horiz-adv-x="828" 
d="M400 586c-30 0 -60.334 1.82812 -91.001 5.49512s-60.5 8.83398 -89.5 15.501s-56.167 14.5 -81.5 23.5s-48.666 18.833 -69.999 29.5l14 127c25.333 -13.333 51 -25.166 77 -35.499s51.833 -19 77.5 -26s51 -12.167 76 -15.5s49.167 -5 72.5 -5c80 0 137 15 171 45
s51 68.333 51 115c0 54 -23.5 95.333 -70.5 124s-113.167 43 -198.5 43h-46.5h-46.5v97h43.5h43.5c84 0 145.5 15 184.5 45s58.5 68 58.5 114s-17 80 -51 102s-80 33 -138 33c-30.667 0 -61.834 -3.66699 -93.501 -11s-63.5 -18 -95.5 -32s-63.333 -30.667 -94 -50l-13 131
c20.667 10.667 43.334 20.834 68.001 30.501s50.5 18.334 77.5 26.001s55.167 13.667 84.5 18s58.666 6.5 87.999 6.5c62 0 116.333 -9.33301 163 -28s82.834 -45 108.501 -79s38.5 -74.333 38.5 -121c0 -57.333 -18.167 -104.5 -54.5 -141.5s-78.833 -61.167 -127.5 -72.5
v-11c33.333 -6 66.5 -18.5 99.5 -37.5s60.333 -45 82 -78s32.5 -74.167 32.5 -123.5c0 -75.333 -28.667 -138.166 -86 -188.499s-145.333 -75.5 -264 -75.5z" />
    <glyph glyph-name="acute" unicode="&#xb4;" horiz-adv-x="1200" 
d="M452 1154l136.5 200l134.5 198l185 4l-109 -135l-107 -133l-106 -132z" />
    <glyph glyph-name="uni00B5" unicode="&#xb5;" horiz-adv-x="1149" 
d="M172 -390v215.501v228.5v489v163.5v143.5v142l165 7v-145v-143.5v-150.5v-188c0 -78.667 14.167 -138.5 42.5 -179.5s79.5 -61.5 153.5 -61.5c42 0 80.833 9.16699 116.5 27.5s68.167 42.5 97.5 72.5s56 63.333 80 100v229v220v212h165v-143.5v-145v-160.5v-229v-146.5
v-167.5h-143l-4 88.5l-4 88.5h-18c-19.333 -30 -44.5 -60.333 -75.5 -91s-67.333 -56.334 -109 -77.001s-88.5 -31 -140.5 -31c-53.333 0 -98 9 -134 27s-65.333 46 -88 84h61v-42v-218.5v-212.5z" />
    <glyph glyph-name="paragraph" unicode="&#xb6;" horiz-adv-x="1094" 
d="M443 599c-80.667 0 -149.167 19.499 -205.5 58.499s-99 90.333 -128 154s-43.5 132.834 -43.5 207.501c0 78.667 15.667 148.667 47 210s75.333 109.5 132 144.5s122.667 52.5 198 52.5h41v-827h-41zM448 -350.001v336.5v321.5v460v321.5v336.5h115v-336.5v-321.5v-460
v-321.5v-336.5h-115zM741 -350.001v336.5v321.5v460v321.5v336.5h114v-336.5v-321.5v-460v-321.5v-336.5h-114zM497 1317v109h197h164h182v-109h-182h-164h-197z" />
    <glyph glyph-name="periodcentered" unicode="&#xb7;" horiz-adv-x="472" 
d="M236 509c-27.333 0 -50.832 5.66895 -70.499 17.002s-34.834 26.666 -45.501 45.999s-16 42 -16 68c0 39.333 12 70.666 36 93.999s56 35 96 35c28 0 51.667 -5.33301 71 -16s34.5 -25.667 45.5 -45s16.5 -42 16.5 -68c0 -38.667 -11.833 -70.167 -35.5 -94.5
s-56.167 -36.5 -97.5 -36.5z" />
    <glyph glyph-name="cedilla" unicode="&#xb8;" horiz-adv-x="1200" 
d="M550 -430c-14 0 -28.667 0.666992 -44 2s-29.833 3.16602 -43.5 5.49902s-25.5 5.16602 -35.5 8.49902v106c9.33301 -3.33301 23.166 -6.5 41.499 -9.5s38.5 -4.5 60.5 -4.5c46.667 0 79.334 7.66699 98.001 23s28 34.333 28 57c0 13.333 -4.66699 26.333 -14 39
s-26.333 24 -51 34s-60.334 17.667 -107.001 23l78 183h96v-37l-50 -115c48 -7.33301 85.333 -18.666 112 -33.999s45.334 -33.166 56.001 -53.499s16 -41.5 16 -63.5c0 -30 -8 -57.5 -24 -82.5s-41.667 -44.833 -77 -59.5s-82 -22 -140 -22z" />
    <glyph glyph-name="uni00B9" unicode="&#xb9;" horiz-adv-x="636" 
d="M80 1238l-32 111l179.5 90l176.5 87l-4 -127l-150.5 -76zM334 603v142.5v151.5v280v144.5v142.5l70 62l67 -3v-157.5v-164.5v-304v-151.5v-142.5h-137z" />
    <glyph glyph-name="ordmasculine" unicode="&#xba;" horiz-adv-x="911" 
d="M458 664c-82.667 0 -152.337 18.665 -209.004 55.998s-99.667 86.166 -129 146.499s-44 125.833 -44 196.5c0 74.667 15.333 141.334 46 200.001s74.334 104.834 131.001 138.501s124.334 50.5 203.001 50.5c80 0 148.333 -17.167 205 -51.5s99.667 -80.833 129 -139.5
s44 -124.667 44 -198c0 -74.667 -15.167 -142.167 -45.5 -202.5s-73.666 -108.166 -129.999 -143.499s-123.166 -53 -200.499 -53zM456.997 777.998c54.667 0 99.998 13.501 135.998 40.501s62.833 62.167 80.5 105.5s26.5 89.666 26.5 138.999
c0 82.667 -21.667 149.167 -65 199.5s-102.666 75.5 -177.999 75.5c-53.333 0 -98.333 -12.333 -135 -37s-64.5 -57.667 -83.5 -99s-28.5 -87.666 -28.5 -138.999c0 -48.667 9.16699 -94.834 27.5 -138.501s45.833 -79 82.5 -106s82.334 -40.5 137.001 -40.5z" />
    <glyph glyph-name="guillemotright" unicode="&#xbb;" horiz-adv-x="1136" 
d="M702 -4l-168 10l181.5 244.5l181.5 244.5v18l-181.5 243.5l-181.5 243.5l168 9l187.5 -253.5l187.5 -253.5l-187.5 -252.5zM243 -4l-168 10l181 244.5l181 244.5v18l-181 243.5l-181 243.5l168 9l187 -253.5l187 -253.5l-187 -252.5z" />
    <glyph glyph-name="onequarter" unicode="&#xbc;" horiz-adv-x="1886" 
d="M80 1141l-32 111l179.5 90l176.5 87l-4 -127l-150.5 -76zM334 506v142.5v151.5v280v144.5v142.5l70 62l67 -3v-157.5v-164.5v-304v-151.5v-142.5h-137zM454 0l117.5 216l132.5 243l270 495l93.5 172.5l82 151l81.5 148.5h165l-80.5 -148.5l-82 -151l-94.5 -172.5
l-270 -495l-131.5 -243l-117.5 -216h-166zM1531 0v120.5v135.5l12 23v293v141v142l96 48l-77.5 -104l-77.5 -103l-168 -225l-67.5 -90.5l-66.5 -88.5l-5 23h391l20 11h130h125v-122h-125h-130h-522v94l63.5 84l75 100l69.5 93l123 164l68.5 91l67.5 90h136v-165v-160v-339
v-135.5v-120.5h-138z" />
    <glyph glyph-name="onehalf" unicode="&#xbd;" horiz-adv-x="2018" 
d="M80 1141l-32 111l179.5 90l176.5 87l-4 -127l-150.5 -76zM334 506v142.5v151.5v280v144.5v142.5l70 62l67 -3v-157.5v-164.5v-304v-151.5v-142.5h-137zM454 0l117.5 216l132.5 243l270 495l93.5 172.5l82 151l81.5 148.5h165l-80.5 -148.5l-82 -151l-94.5 -172.5
l-270 -495l-131.5 -243l-117.5 -216h-166zM1284 0l0.00195312 94.998l84.5 69l85.5 70c67.333 54.667 124.833 105.334 172.5 152.001s84 91.667 109 135s37.5 87.333 37.5 132c0 54 -15.667 95 -47 123s-80.333 42 -147 42c-29.333 0 -60 -3.66699 -92 -11
s-64.333 -18 -97 -32s-65 -31 -97 -51l-14 136c21.333 10.667 44.666 20.834 69.999 30.501s52 18.167 80 25.5s56.833 13 86.5 17s59.5 6 89.5 6c66.667 0 123.167 -10.833 169.5 -32.5s81.666 -52.5 105.999 -92.5s36.5 -87.667 36.5 -143
c0 -49.333 -11.833 -98.5 -35.5 -147.5s-59.167 -99 -106.5 -150s-106.333 -104.167 -177 -159.5l-155 -122l-22 30h152h181h180v-122h-650z" />
    <glyph glyph-name="threequarters" unicode="&#xbe;" horiz-adv-x="1995" 
d="M400 489c-30 0 -60.334 1.82812 -91.001 5.49512s-60.5 8.83398 -89.5 15.501s-56.167 14.5 -81.5 23.5s-48.666 18.833 -69.999 29.5l14 127c25.333 -13.333 51 -25.166 77 -35.499s51.833 -19 77.5 -26s51 -12.167 76 -15.5s49.167 -5 72.5 -5c80 0 137 15 171 45
s51 68.333 51 115c0 54 -23.5 95.333 -70.5 124s-113.167 43 -198.5 43h-46.5h-46.5v97h43.5h43.5c84 0 145.5 15 184.5 45s58.5 68 58.5 114s-17 80 -51 102s-80 33 -138 33c-30.667 0 -61.834 -3.66699 -93.501 -11s-63.5 -18 -95.5 -32s-63.333 -30.667 -94 -50l-13 131
c20.667 10.667 43.334 20.834 68.001 30.501s50.5 18.334 77.5 26.001s55.167 13.667 84.5 18s58.666 6.5 87.999 6.5c62 0 116.333 -9.33301 163 -28s82.834 -45 108.501 -79s38.5 -74.333 38.5 -121c0 -57.333 -18.167 -104.5 -54.5 -141.5s-78.833 -61.167 -127.5 -72.5
v-11c33.333 -6 66.5 -18.5 99.5 -37.5s60.333 -45 82 -78s32.5 -74.167 32.5 -123.5c0 -75.333 -28.667 -138.166 -86 -188.499s-145.333 -75.5 -264 -75.5zM562.999 -0.00488281l117.5 216l132.5 243l270 495l93.5 172.5l82 151l81.5 148.5h165l-80.5 -148.5l-82 -151
l-94.5 -172.5l-270 -495l-131.5 -243l-117.5 -216h-166zM1641 -0.00488281v120.5v135.5l12 23v293v141v142l96 48l-77.5 -104l-77.5 -103l-168 -225l-67.5 -90.5l-66.5 -88.5l-5 23h391l20 11h130h125v-122h-125h-130h-522v94l63.5 84l75 100l69.5 93l123 164l68.5 91
l67.5 90h136v-165v-160v-339v-135.5v-120.5h-138z" />
    <glyph glyph-name="questiondown" unicode="&#xbf;" horiz-adv-x="796" 
d="M449 -422c-70.667 0 -132.001 10.499 -184.001 31.499s-92.333 52.167 -121 93.5s-43 93.333 -43 156c0 61.333 13 114.5 39 159.5s58.5 84.5 97.5 118.5s77.833 65 116.5 93c43.333 32 81.333 63.333 114 94s49 65.334 49 104.001c0 42.667 -13.333 72.167 -40 88.5
s-58 24.5 -94 24.5c-24 0 -46.167 -2.5 -66.5 -7.5s-37.5 -10.5 -51.5 -16.5l-7 92c12 4 26.833 8 44.5 12s36.834 7.33301 57.501 10s41.667 4 63 4c78 0 138.333 -18 181 -54s64 -84.333 64 -145c0 -42.667 -9.83301 -80.167 -29.5 -112.5s-45.167 -61.833 -76.5 -88.5
s-64.333 -52.667 -99 -78c-33.333 -24.667 -65.333 -50 -96 -76s-55.667 -54.833 -75 -86.5s-29 -67.5 -29 -107.5c0 -53.333 18.833 -94.166 56.5 -122.499s90.5 -42.5 158.5 -42.5c30 0 61 3 93 9s64.333 14.667 97 26s65.667 25.666 99 42.999l9 -149
c-17.333 -7.33301 -37.833 -15.166 -61.5 -23.499s-49.5 -16.333 -77.5 -24s-57.833 -13.834 -89.5 -18.501s-64.5 -7 -98.5 -7zM460.999 837.999c-27.333 0 -50.835 5.66699 -70.502 17s-35 26.666 -46 45.999s-16.5 42 -16.5 68c0 39.333 12.167 70.5 36.5 93.5
s56.5 34.5 96.5 34.5c27.333 0 50.833 -5.16699 70.5 -15.5s34.834 -25.166 45.501 -44.499s16 -42 16 -68c0 -38.667 -11.667 -70.167 -35 -94.5s-55.666 -36.5 -96.999 -36.5z" />
    <glyph glyph-name="Agrave" unicode="&#xc0;" horiz-adv-x="1380" 
d="M59 0l87.5 242l87.5 241l177 490l86 238.5l78 214.5h238l77 -216l85 -238l176 -491l86.5 -242.5l85.5 -238.5h-188l-88.5 257.5l-85.5 249.5l-260 756h-17l-262 -749l-89 -255.5l-91 -258.5h-183zM323 358l16 142h722l13 -142h-751zM704 1573l-106 119.5l-106.5 120
l-109.5 123.5l184 2l136 -181l136 -181z" />
    <glyph glyph-name="Aacute" unicode="&#xc1;" horiz-adv-x="1380" 
d="M59 0l87.5 242l87.5 241l177 490l86 238.5l78 214.5h238l77 -216l85 -238l176 -491l86.5 -242.5l85.5 -238.5h-188l-88.5 257.5l-85.5 249.5l-260 756h-17l-262 -749l-89 -255.5l-91 -258.5h-183zM323 358l16 142h722l13 -142h-751zM542 1573l136.5 182l134.5 181l185 2
l-108.5 -122.5l-107 -120.5l-106.5 -119z" />
    <glyph glyph-name="Acircumflex" unicode="&#xc2;" horiz-adv-x="1380" 
d="M59 0l87.5 242l87.5 241l177 490l86 238.5l78 214.5h238l77 -216l85 -238l176 -491l86.5 -242.5l85.5 -238.5h-188l-88.5 257.5l-85.5 249.5l-260 756h-17l-262 -749l-89 -255.5l-91 -258.5h-183zM323 358l16 142h722l13 -142h-751zM916 1571l-125.5 147.5l-127.5 148.5
h48l-125.5 -147l-125.5 -145h-134l135 179.5l136 181.5h181l136 -181.5l136 -180.5z" />
    <glyph glyph-name="Atilde" unicode="&#xc3;" horiz-adv-x="1380" 
d="M59 0l87.5 242l87.5 241l177 490l86 238.5l78 214.5h238l77 -216l85 -238l176 -491l86.5 -242.5l85.5 -238.5h-188l-88.5 257.5l-85.5 249.5l-260 756h-17l-262 -749l-89 -255.5l-91 -258.5h-183zM323 358l16 142h722l13 -142h-751zM859 1568
c-40 0 -74.502 8.66602 -103.502 25.999s-55.167 37.5 -78.5 60.5s-45.5 43.167 -66.5 60.5s-43.5 26 -67.5 26c-38.667 0 -65.667 -12.333 -81 -37s-24 -59.667 -26 -105h-101c0 86.667 17.167 153.167 51.5 199.5s80.833 69.5 139.5 69.5
c39.333 0 73.333 -8.66699 102 -26s54.334 -37.333 77.001 -60s44.667 -42.667 66 -60s44.333 -26 69 -26c38 0 64.5 12.333 79.5 37s23.167 59.667 24.5 105h101c0 -87.333 -16.667 -154.166 -50 -200.499s-78.666 -69.5 -135.999 -69.5z" />
    <glyph glyph-name="Adieresis" unicode="&#xc4;" horiz-adv-x="1380" 
d="M59 0l87.5 242l87.5 241l177 490l86 238.5l78 214.5h238l77 -216l85 -238l176 -491l86.5 -242.5l85.5 -238.5h-188l-88.5 257.5l-85.5 249.5l-260 756h-17l-262 -749l-89 -255.5l-91 -258.5h-183zM323 358l16 142h722l13 -142h-751zM901 1626
c-32.667 0 -58.998 9.83301 -78.998 29.5s-30 48.5 -30 86.5s10.167 67 30.5 87s47.166 30 80.499 30s59.666 -10.5 78.999 -31.5s29 -49.5 29 -85.5c0 -38 -9.83301 -66.833 -29.5 -86.5s-46.5 -29.5 -80.5 -29.5zM477.002 1626c-32.667 0 -58.998 9.83301 -78.998 29.5
s-30 48.5 -30 86.5s10.167 67 30.5 87s47.166 30 80.499 30s59.666 -10.5 78.999 -31.5s29 -49.5 29 -85.5c0 -38 -9.83301 -66.833 -29.5 -86.5s-46.5 -29.5 -80.5 -29.5z" />
    <glyph glyph-name="Aring" unicode="&#xc5;" horiz-adv-x="1380" 
d="M59 0l87.5 242l87.5 241l177 490l86 238.5l78 214.5h238l77 -216l85 -238l176 -491l86.5 -242.5l85.5 -238.5h-188l-88.5 257.5l-85.5 249.5l-260 756h-17l-262 -749l-89 -255.5l-91 -258.5h-183zM323 358l16 142h722l13 -142h-751zM688 1559
c-44.667 0 -84.002 8.16602 -118.002 24.499s-60.667 40.166 -80 71.499s-29 69.333 -29 114c0 62.667 21.167 112.834 63.5 150.501s97.5 56.5 165.5 56.5c44.667 0 84.167 -8.66699 118.5 -26s61 -41.666 80 -72.999s28.5 -67.333 28.5 -108
c0 -45.333 -9.66699 -83.5 -29 -114.5s-46.166 -54.667 -80.499 -71s-74.166 -24.5 -119.499 -24.5zM687.998 1647c38 0 69.167 10.167 93.5 30.5s36.5 50.5 36.5 90.5c0 36.667 -12 66.167 -36 88.5s-54.667 33.5 -92 33.5c-38 0 -69.167 -11 -93.5 -33
s-36.5 -51.667 -36.5 -89c0 -40 12.167 -70.167 36.5 -90.5s54.833 -30.5 91.5 -30.5z" />
    <glyph glyph-name="AE" unicode="&#xc6;" horiz-adv-x="1941" 
d="M29 0l131.5 241.5l130.5 241.5l268 493l126.5 234.5l116.5 215.5h1023v-155h-139h-156.5h-188.5h-280l56 129v-231.5v-244.5v-426v-241.5v-229.5l-53 128h292h168h156.5h147.5v-155h-889v229v242v479v243v217l89 -134h-126l-408 -762l-137.5 -255.5l-138.5 -258.5h-189z
M364 358l16 143h627l13 -143h-656zM1077 647v151h277h238.5h192.5v-151h-97.5h-100h-109h-124.5h-277z" />
    <glyph glyph-name="Ccedilla" unicode="&#xc7;" horiz-adv-x="1370" 
d="M831 -22c-112.667 0 -214.165 18.3301 -304.498 54.9971s-167.166 88.167 -230.499 154.5s-111.833 144.333 -145.5 234s-50.5 187.5 -50.5 293.5c0 144 29.667 271.5 89 382.5s141.666 197.833 246.999 260.5s228 94 368 94c47.333 0 93.333 -3.33301 138 -10
s87 -15.667 127 -27s77 -23.666 111 -36.999s63.333 -27 88 -41l-16 -174c-52 30.667 -102.5 55.5 -151.5 74.5s-97 32.833 -144 41.5s-92.833 13 -137.5 13c-102.667 0 -194 -23.333 -274 -70s-142.833 -113.167 -188.5 -199.5s-68.5 -189.166 -68.5 -308.499
c0 -79.333 11.833 -154 35.5 -224s59 -131.667 106 -185s105.333 -95.166 175 -125.499s150.834 -45.5 243.501 -45.5c34 0 68 2.16699 102 6.5s67.667 11.166 101 20.499s66.166 21.833 98.499 37.5s64.166 34.167 95.499 55.5l14 -172c-28 -18 -58.833 -33.667 -92.5 -47
s-69 -24.166 -106 -32.499s-74.833 -14.5 -113.5 -18.5s-77.334 -6 -116.001 -6zM749.002 -430.003c-14 0 -28.667 0.666992 -44 2s-29.833 3.16602 -43.5 5.49902s-25.5 5.16602 -35.5 8.49902v106c9.33301 -3.33301 23.166 -6.5 41.499 -9.5s38.5 -4.5 60.5 -4.5
c46.667 0 79.334 7.66699 98.001 23s28 34.333 28 57c0 13.333 -4.66699 26.333 -14 39s-26.333 24 -51 34s-60.334 17.667 -107.001 23l78 183h96v-37l-50 -115c48 -7.33301 85.333 -18.666 112 -33.999s45.334 -33.166 56.001 -53.499s16 -41.5 16 -63.5
c0 -30 -8 -57.5 -24 -82.5s-41.667 -44.833 -77 -59.5s-82 -22 -140 -22z" />
    <glyph glyph-name="Egrave" unicode="&#xc8;" horiz-adv-x="1187" 
d="M185 0v229v242v479v245v231h886v-155h-214.5h-270.5h-324l100 129v-231.5v-244.5v-426v-241.5v-229.5l-90 128h330h247.5h223.5v-155h-888zM323 647v151h277h238h193v-151h-197.5h-234.5h-276zM645 1573l-106 119.5l-106.5 120l-109.5 123.5l184 2l136 -181l136 -181z
" />
    <glyph glyph-name="Eacute" unicode="&#xc9;" horiz-adv-x="1187" 
d="M185 0v229v242v479v245v231h886v-155h-214.5h-270.5h-324l100 129v-231.5v-244.5v-426v-241.5v-229.5l-90 128h330h247.5h223.5v-155h-888zM323 647v151h277h238h193v-151h-197.5h-234.5h-276zM483 1573l136.5 182l134.5 181l185 2l-108.5 -122.5l-107 -120.5
l-106.5 -119z" />
    <glyph glyph-name="Ecircumflex" unicode="&#xca;" horiz-adv-x="1187" 
d="M185 0v229v242v479v245v231h886v-155h-214.5h-270.5h-324l100 129v-231.5v-244.5v-426v-241.5v-229.5l-90 128h330h247.5h223.5v-155h-888zM323 647v151h277h238h193v-151h-197.5h-234.5h-276zM857 1571l-125.5 147.5l-127.5 148.5h48l-125.5 -147l-125.5 -145h-134
l135 179.5l136 181.5h181l136 -181.5l136 -180.5z" />
    <glyph glyph-name="Edieresis" unicode="&#xcb;" horiz-adv-x="1187" 
d="M185 0v229v242v479v245v231h886v-155h-214.5h-270.5h-324l100 129v-231.5v-244.5v-426v-241.5v-229.5l-90 128h330h247.5h223.5v-155h-888zM323 647v151h277h238h193v-151h-197.5h-234.5h-276zM842 1626c-32.667 0 -58.998 9.83301 -78.998 29.5s-30 48.5 -30 86.5
s10.167 67 30.5 87s47.166 30 80.499 30s59.666 -10.5 78.999 -31.5s29 -49.5 29 -85.5c0 -38 -9.83301 -66.833 -29.5 -86.5s-46.5 -29.5 -80.5 -29.5zM418.002 1626c-32.667 0 -58.998 9.83301 -78.998 29.5s-30 48.5 -30 86.5s10.167 67 30.5 87s47.166 30 80.499 30
s59.666 -10.5 78.999 -31.5s29 -49.5 29 -85.5c0 -38 -9.83301 -66.833 -29.5 -86.5s-46.5 -29.5 -80.5 -29.5z" />
    <glyph glyph-name="Igrave" unicode="&#xcc;" horiz-adv-x="559" 
d="M188 0v229v242v478v246.5v230.5h184v-230.5v-246.5v-478v-242v-229h-184zM291 1573l-106 119.5l-106.5 120l-109.5 123.5l184 2l136 -181l136 -181z" />
    <glyph glyph-name="Iacute" unicode="&#xcd;" horiz-adv-x="559" 
d="M188 0v229v242v478v246.5v230.5h184v-230.5v-246.5v-478v-242v-229h-184zM129 1573l136.5 182l134.5 181l185 2l-108.5 -122.5l-107 -120.5l-106.5 -119z" />
    <glyph glyph-name="Icircumflex" unicode="&#xce;" horiz-adv-x="559" 
d="M188 0v229v242v478v246.5v230.5h184v-230.5v-246.5v-478v-242v-229h-184zM503 1571l-125.5 147.5l-127.5 148.5h48l-125.5 -147l-125.5 -145h-134l135 179.5l136 181.5h181l136 -181.5l136 -180.5z" />
    <glyph glyph-name="Idieresis" unicode="&#xcf;" horiz-adv-x="559" 
d="M188 0v229v242v478v246.5v230.5h184v-230.5v-246.5v-478v-242v-229h-184zM488 1626c-32.667 0 -58.998 9.83301 -78.998 29.5s-30 48.5 -30 86.5s10.167 67 30.5 87s47.166 30 80.499 30s59.666 -10.5 78.999 -31.5s29 -49.5 29 -85.5
c0 -38 -9.83301 -66.833 -29.5 -86.5s-46.5 -29.5 -80.5 -29.5zM64.002 1626c-32.667 0 -58.998 9.83301 -78.998 29.5s-30 48.5 -30 86.5s10.167 67 30.5 87s47.166 30 80.499 30s59.666 -10.5 78.999 -31.5s29 -49.5 29 -85.5c0 -38 -9.83301 -66.833 -29.5 -86.5
s-46.5 -29.5 -80.5 -29.5z" />
    <glyph glyph-name="Eth" unicode="&#xd0;" horiz-adv-x="1473" 
d="M-23 632v132h178.5h160.5h93h161h178v-132h-178h-161h-93h-160.5h-178.5zM185 0v229v242v478v246.5v230.5h172h163h166c110 0 207.667 -15.833 293 -47.5s157.166 -78 215.499 -139s102.666 -135.167 132.999 -222.5s45.5 -186.666 45.5 -297.999
c0 -100.667 -13.333 -194.5 -40 -281.5s-69.167 -163.333 -127.5 -229s-134.666 -116.834 -228.999 -153.501s-209.166 -55 -344.499 -55h-159h-142.5h-145.5zM366 151h267c136 0 244.333 24.833 325 74.5s138.667 117.667 174 204s53 183.833 53 292.5
c0 83.333 -10.5 159 -31.5 227s-53 126.333 -96 175s-98 86 -165 112s-146.167 39 -237.5 39h-289v-171.5v-187.5v-410v-185v-170z" />
    <glyph glyph-name="Ntilde" unicode="&#xd1;" horiz-adv-x="1508" 
d="M185 0v229v242v478v246.5v230.5h163l246 -347l233 -329l309 -436h15v635v246.5v230.5h172v-230.5v-246.5v-478v-242v-229h-161l-223 315.5l-257 363.5l-311 439h-14v-647v-242v-229h-172zM924 1568c-40 0 -74.502 8.66602 -103.502 25.999s-55.167 37.5 -78.5 60.5
s-45.5 43.167 -66.5 60.5s-43.5 26 -67.5 26c-38.667 0 -65.667 -12.333 -81 -37s-24 -59.667 -26 -105h-101c0 86.667 17.167 153.167 51.5 199.5s80.833 69.5 139.5 69.5c39.333 0 73.333 -8.66699 102 -26s54.334 -37.333 77.001 -60s44.667 -42.667 66 -60
s44.333 -26 69 -26c38 0 64.5 12.333 79.5 37s23.167 59.667 24.5 105h101c0 -87.333 -16.667 -154.166 -50 -200.499s-78.666 -69.5 -135.999 -69.5z" />
    <glyph glyph-name="Ograve" unicode="&#xd2;" horiz-adv-x="1634" 
d="M824 -22c-120.667 0 -226.335 19.499 -317.002 58.499s-166.167 92.667 -226.5 161s-105.5 146.833 -135.5 235.5s-45 182.334 -45 281.001c0 138.667 28.167 263.667 84.5 375s137.833 199.666 244.5 264.999s236.334 98 389.001 98c116 0 218.5 -19 307.5 -57
s163.833 -90.667 224.5 -158s106.334 -145.666 137.001 -234.999s46 -185 46 -287c0 -140.667 -28 -266.5 -84 -377.5s-137 -198.667 -243 -263s-233.333 -96.5 -382 -96.5zM818.999 133.999c91.333 0 169.995 15.8291 235.995 47.4961s120.5 74.834 163.5 129.501
s74.833 116.834 95.5 186.501s31 142.167 31 217.5c0 81.333 -11.167 157.166 -33.5 227.499s-55.666 132 -99.999 185s-99.166 94.333 -164.499 124s-141.333 44.5 -228 44.5c-89.333 0 -167.166 -15.667 -233.499 -47s-121.5 -74.166 -165.5 -128.499
s-77 -116.333 -99 -186s-33 -142.834 -33 -219.501c0 -77.333 10.667 -150.666 32 -219.999s53.833 -131.166 97.5 -185.499s98.834 -97.166 165.501 -128.499s145.334 -47 236.001 -47zM829.994 1573l-106 119.5l-106.5 120l-109.5 123.5l184 2l136 -181l136 -181z" />
    <glyph glyph-name="Oacute" unicode="&#xd3;" horiz-adv-x="1634" 
d="M824 -22c-120.667 0 -226.335 19.499 -317.002 58.499s-166.167 92.667 -226.5 161s-105.5 146.833 -135.5 235.5s-45 182.334 -45 281.001c0 138.667 28.167 263.667 84.5 375s137.833 199.666 244.5 264.999s236.334 98 389.001 98c116 0 218.5 -19 307.5 -57
s163.833 -90.667 224.5 -158s106.334 -145.666 137.001 -234.999s46 -185 46 -287c0 -140.667 -28 -266.5 -84 -377.5s-137 -198.667 -243 -263s-233.333 -96.5 -382 -96.5zM818.999 133.999c91.333 0 169.995 15.8291 235.995 47.4961s120.5 74.834 163.5 129.501
s74.833 116.834 95.5 186.501s31 142.167 31 217.5c0 81.333 -11.167 157.166 -33.5 227.499s-55.666 132 -99.999 185s-99.166 94.333 -164.499 124s-141.333 44.5 -228 44.5c-89.333 0 -167.166 -15.667 -233.499 -47s-121.5 -74.166 -165.5 -128.499
s-77 -116.333 -99 -186s-33 -142.834 -33 -219.501c0 -77.333 10.667 -150.666 32 -219.999s53.833 -131.166 97.5 -185.499s98.834 -97.166 165.501 -128.499s145.334 -47 236.001 -47zM667.994 1573l136.5 182l134.5 181l185 2l-108.5 -122.5l-107 -120.5l-106.5 -119z
" />
    <glyph glyph-name="Ocircumflex" unicode="&#xd4;" horiz-adv-x="1634" 
d="M824 -22c-120.667 0 -226.335 19.499 -317.002 58.499s-166.167 92.667 -226.5 161s-105.5 146.833 -135.5 235.5s-45 182.334 -45 281.001c0 138.667 28.167 263.667 84.5 375s137.833 199.666 244.5 264.999s236.334 98 389.001 98c116 0 218.5 -19 307.5 -57
s163.833 -90.667 224.5 -158s106.334 -145.666 137.001 -234.999s46 -185 46 -287c0 -140.667 -28 -266.5 -84 -377.5s-137 -198.667 -243 -263s-233.333 -96.5 -382 -96.5zM818.999 133.999c91.333 0 169.995 15.8291 235.995 47.4961s120.5 74.834 163.5 129.501
s74.833 116.834 95.5 186.501s31 142.167 31 217.5c0 81.333 -11.167 157.166 -33.5 227.499s-55.666 132 -99.999 185s-99.166 94.333 -164.499 124s-141.333 44.5 -228 44.5c-89.333 0 -167.166 -15.667 -233.499 -47s-121.5 -74.166 -165.5 -128.499
s-77 -116.333 -99 -186s-33 -142.834 -33 -219.501c0 -77.333 10.667 -150.666 32 -219.999s53.833 -131.166 97.5 -185.499s98.834 -97.166 165.501 -128.499s145.334 -47 236.001 -47zM1041.99 1571l-125.5 147.5l-127.5 148.5h48l-125.5 -147l-125.5 -145h-134l135 179.5
l136 181.5h181l136 -181.5l136 -180.5z" />
    <glyph glyph-name="Otilde" unicode="&#xd5;" horiz-adv-x="1634" 
d="M824 -22c-120.667 0 -226.335 19.499 -317.002 58.499s-166.167 92.667 -226.5 161s-105.5 146.833 -135.5 235.5s-45 182.334 -45 281.001c0 138.667 28.167 263.667 84.5 375s137.833 199.666 244.5 264.999s236.334 98 389.001 98c116 0 218.5 -19 307.5 -57
s163.833 -90.667 224.5 -158s106.334 -145.666 137.001 -234.999s46 -185 46 -287c0 -140.667 -28 -266.5 -84 -377.5s-137 -198.667 -243 -263s-233.333 -96.5 -382 -96.5zM818.999 133.999c91.333 0 169.995 15.8291 235.995 47.4961s120.5 74.834 163.5 129.501
s74.833 116.834 95.5 186.501s31 142.167 31 217.5c0 81.333 -11.167 157.166 -33.5 227.499s-55.666 132 -99.999 185s-99.166 94.333 -164.499 124s-141.333 44.5 -228 44.5c-89.333 0 -167.166 -15.667 -233.499 -47s-121.5 -74.166 -165.5 -128.499
s-77 -116.333 -99 -186s-33 -142.834 -33 -219.501c0 -77.333 10.667 -150.666 32 -219.999s53.833 -131.166 97.5 -185.499s98.834 -97.166 165.501 -128.499s145.334 -47 236.001 -47zM984.994 1568c-40 0 -74.502 8.66602 -103.502 25.999s-55.167 37.5 -78.5 60.5
s-45.5 43.167 -66.5 60.5s-43.5 26 -67.5 26c-38.667 0 -65.667 -12.333 -81 -37s-24 -59.667 -26 -105h-101c0 86.667 17.167 153.167 51.5 199.5s80.833 69.5 139.5 69.5c39.333 0 73.333 -8.66699 102 -26s54.334 -37.333 77.001 -60s44.667 -42.667 66 -60
s44.333 -26 69 -26c38 0 64.5 12.333 79.5 37s23.167 59.667 24.5 105h101c0 -87.333 -16.667 -154.166 -50 -200.499s-78.666 -69.5 -135.999 -69.5z" />
    <glyph glyph-name="Odieresis" unicode="&#xd6;" horiz-adv-x="1634" 
d="M824 -22c-120.667 0 -226.335 19.499 -317.002 58.499s-166.167 92.667 -226.5 161s-105.5 146.833 -135.5 235.5s-45 182.334 -45 281.001c0 138.667 28.167 263.667 84.5 375s137.833 199.666 244.5 264.999s236.334 98 389.001 98c116 0 218.5 -19 307.5 -57
s163.833 -90.667 224.5 -158s106.334 -145.666 137.001 -234.999s46 -185 46 -287c0 -140.667 -28 -266.5 -84 -377.5s-137 -198.667 -243 -263s-233.333 -96.5 -382 -96.5zM818.999 133.999c91.333 0 169.995 15.8291 235.995 47.4961s120.5 74.834 163.5 129.501
s74.833 116.834 95.5 186.501s31 142.167 31 217.5c0 81.333 -11.167 157.166 -33.5 227.499s-55.666 132 -99.999 185s-99.166 94.333 -164.499 124s-141.333 44.5 -228 44.5c-89.333 0 -167.166 -15.667 -233.499 -47s-121.5 -74.166 -165.5 -128.499
s-77 -116.333 -99 -186s-33 -142.834 -33 -219.501c0 -77.333 10.667 -150.666 32 -219.999s53.833 -131.166 97.5 -185.499s98.834 -97.166 165.501 -128.499s145.334 -47 236.001 -47zM1026.99 1626c-32.667 0 -58.998 9.83301 -78.998 29.5s-30 48.5 -30 86.5
s10.167 67 30.5 87s47.166 30 80.499 30s59.666 -10.5 78.999 -31.5s29 -49.5 29 -85.5c0 -38 -9.83301 -66.833 -29.5 -86.5s-46.5 -29.5 -80.5 -29.5zM602.996 1626c-32.667 0 -58.998 9.83301 -78.998 29.5s-30 48.5 -30 86.5s10.167 67 30.5 87s47.166 30 80.499 30
s59.666 -10.5 78.999 -31.5s29 -49.5 29 -85.5c0 -38 -9.83301 -66.833 -29.5 -86.5s-46.5 -29.5 -80.5 -29.5z" />
    <glyph glyph-name="multiply" unicode="&#xd7;" horiz-adv-x="1132" 
d="M901 157l-129 130l-117 116l-285 285l-116 116.5l-129 127.5l106 106l129 -128l117 -118l284 -283l117.5 -117l128.5 -129zM231 157l-106 106l87.5 86.5l82.5 82.5l76 77l285 284l117 117l128 128l106 -106l-128.5 -127.5l-117.5 -117.5l-284 -284l-116 -116z" />
    <glyph glyph-name="Oslash" unicode="&#xd8;" horiz-adv-x="1634" 
d="M824 -22c-120.667 0 -226.335 19.499 -317.002 58.499s-166.167 92.667 -226.5 161s-105.5 146.833 -135.5 235.5s-45 182.334 -45 281.001c0 138.667 28.167 263.667 84.5 375s137.833 199.666 244.5 264.999s236.334 98 389.001 98c116 0 218.5 -19 307.5 -57
s163.833 -90.667 224.5 -158s106.334 -145.666 137.001 -234.999s46 -185 46 -287c0 -140.667 -28 -266.5 -84 -377.5s-137 -198.667 -243 -263s-233.333 -96.5 -382 -96.5zM818.999 133.999c91.333 0 169.995 15.8291 235.995 47.4961s120.5 74.834 163.5 129.501
s74.833 116.834 95.5 186.501s31 142.167 31 217.5c0 81.333 -11.167 157.166 -33.5 227.499s-55.666 132 -99.999 185s-99.166 94.333 -164.499 124s-141.333 44.5 -228 44.5c-89.333 0 -167.166 -15.667 -233.499 -47s-121.5 -74.166 -165.5 -128.499
s-77 -116.333 -99 -186s-33 -142.834 -33 -219.501c0 -77.333 10.667 -150.666 32 -219.999s53.833 -131.166 97.5 -185.499s98.834 -97.166 165.501 -128.499s145.334 -47 236.001 -47zM262.994 -130.005l-92 78l196.5 257.5l200.5 260.5l393 515l205.5 268.5l195.5 255.5
l96 -73l-196 -256l-204 -266l-397 -519l-203.5 -266.5z" />
    <glyph glyph-name="Ugrave" unicode="&#xd9;" horiz-adv-x="1461" 
d="M731 -22c-132.667 0 -240.498 22.833 -323.498 68.5s-144 110 -183 193s-58.5 179.833 -58.5 290.5v108.5v147.5v163v246.5v230.5h180v-230.5v-246.5v-401c0 -86 12.667 -160 38 -222s66.166 -109.5 122.499 -142.5s131.166 -49.5 224.499 -49.5
c94 0 168.833 16.5 224.5 49.5s95.834 80.5 120.501 142.5s37 136.667 37 224v399v246.5v230.5h180v-230.5v-246.5v-163.5v-148.5v-107c0 -110.667 -19.667 -207.5 -59 -290.5s-100.333 -147.333 -183 -193s-189.334 -68.5 -320.001 -68.5zM746.002 1573l-106 119.5
l-106.5 120l-109.5 123.5l184 2l136 -181l136 -181z" />
    <glyph glyph-name="Uacute" unicode="&#xda;" horiz-adv-x="1461" 
d="M731 -22c-132.667 0 -240.498 22.833 -323.498 68.5s-144 110 -183 193s-58.5 179.833 -58.5 290.5v108.5v147.5v163v246.5v230.5h180v-230.5v-246.5v-401c0 -86 12.667 -160 38 -222s66.166 -109.5 122.499 -142.5s131.166 -49.5 224.499 -49.5
c94 0 168.833 16.5 224.5 49.5s95.834 80.5 120.501 142.5s37 136.667 37 224v399v246.5v230.5h180v-230.5v-246.5v-163.5v-148.5v-107c0 -110.667 -19.667 -207.5 -59 -290.5s-100.333 -147.333 -183 -193s-189.334 -68.5 -320.001 -68.5zM584.002 1573l136.5 182
l134.5 181l185 2l-108.5 -122.5l-107 -120.5l-106.5 -119z" />
    <glyph glyph-name="Ucircumflex" unicode="&#xdb;" horiz-adv-x="1461" 
d="M731 -22c-132.667 0 -240.498 22.833 -323.498 68.5s-144 110 -183 193s-58.5 179.833 -58.5 290.5v108.5v147.5v163v246.5v230.5h180v-230.5v-246.5v-401c0 -86 12.667 -160 38 -222s66.166 -109.5 122.499 -142.5s131.166 -49.5 224.499 -49.5
c94 0 168.833 16.5 224.5 49.5s95.834 80.5 120.501 142.5s37 136.667 37 224v399v246.5v230.5h180v-230.5v-246.5v-163.5v-148.5v-107c0 -110.667 -19.667 -207.5 -59 -290.5s-100.333 -147.333 -183 -193s-189.334 -68.5 -320.001 -68.5zM958.002 1571l-125.5 147.5
l-127.5 148.5h48l-125.5 -147l-125.5 -145h-134l135 179.5l136 181.5h181l136 -181.5l136 -180.5z" />
    <glyph glyph-name="Udieresis" unicode="&#xdc;" horiz-adv-x="1461" 
d="M731 -22c-132.667 0 -240.498 22.833 -323.498 68.5s-144 110 -183 193s-58.5 179.833 -58.5 290.5v108.5v147.5v163v246.5v230.5h180v-230.5v-246.5v-401c0 -86 12.667 -160 38 -222s66.166 -109.5 122.499 -142.5s131.166 -49.5 224.499 -49.5
c94 0 168.833 16.5 224.5 49.5s95.834 80.5 120.501 142.5s37 136.667 37 224v399v246.5v230.5h180v-230.5v-246.5v-163.5v-148.5v-107c0 -110.667 -19.667 -207.5 -59 -290.5s-100.333 -147.333 -183 -193s-189.334 -68.5 -320.001 -68.5zM943.002 1626
c-32.667 0 -58.998 9.83301 -78.998 29.5s-30 48.5 -30 86.5s10.167 67 30.5 87s47.166 30 80.499 30s59.666 -10.5 78.999 -31.5s29 -49.5 29 -85.5c0 -38 -9.83301 -66.833 -29.5 -86.5s-46.5 -29.5 -80.5 -29.5zM519.004 1626c-32.667 0 -58.998 9.83301 -78.998 29.5
s-30 48.5 -30 86.5s10.167 67 30.5 87s47.166 30 80.499 30s59.666 -10.5 78.999 -31.5s29 -49.5 29 -85.5c0 -38 -9.83301 -66.833 -29.5 -86.5s-46.5 -29.5 -80.5 -29.5z" />
    <glyph glyph-name="Yacute" unicode="&#xdd;" horiz-adv-x="1304" 
d="M568 557l-311 527l-96 162.5l-106 179.5h207l94 -165l74 -130.5l77 -135.5l138 -243h18l134 234l81.5 143l76.5 133.5l94 163.5h203l-101.5 -172.5l-99.5 -168.5l-311 -528h-172zM564 0v229v242v237h181v-237v-242v-229h-181zM506 1573l136.5 182l134.5 181l185 2
l-108.5 -122.5l-107 -120.5l-106.5 -119z" />
    <glyph glyph-name="Thorn" unicode="&#xde;" horiz-adv-x="1254" 
d="M185 0v229v242v479v245v231h178v-231v-245v-479v-242v-229h-178zM651 314l-106.998 0.000976562h-110.5h-93.5v149h277c85.333 0 155.166 10.167 209.499 30.5s94.5 52.5 120.5 96.5s39 101.333 39 172c0 58.667 -9.5 105.334 -28.5 140.001s-44 60.5 -75 77.5
s-64.5 28.167 -100.5 33.5s-71 8 -105 8h-337v150h151h198c108.667 0 198.5 -14.333 269.5 -43s124.167 -73 159.5 -133s53 -137.333 53 -232c0 -86.667 -16.167 -163.834 -48.5 -231.501s-86.333 -120.834 -162 -159.501s-178.834 -58 -309.501 -58z" />
    <glyph glyph-name="germandbls" unicode="&#xdf;" horiz-adv-x="1212" 
d="M688 -9c-20 0 -40.501 1 -61.501 3s-39.833 4.33301 -56.5 7v128c10.667 -2 23.5 -3.66699 38.5 -5s30.5 -2 46.5 -2c93.333 0 164.5 27.167 213.5 81.5s73.5 125.5 73.5 213.5c0 68 -15 124.667 -45 170s-70.667 79.333 -122 102s-109 34 -173 34v130
c46.667 0 90.5 10.333 131.5 31s73.833 50.167 98.5 88.5s37 85.166 37 140.499c0 70.667 -21 127.167 -63 169.5s-99.667 63.5 -173 63.5c-82.667 0 -146.167 -25.667 -190.5 -77s-66.5 -130.666 -66.5 -237.999v-593v-225v-213h-165v213v225v100v246v247
c0 148.667 38 262.5 114 341.5s180 118.5 312 118.5c78.667 0 147.167 -14.167 205.5 -42.5s103.833 -68.5 136.5 -120.5s49 -114 49 -186c0 -60 -10.167 -111 -30.5 -153s-46 -76.333 -77 -103s-62.167 -47 -93.5 -61v-17c30 -10 61.667 -24.5 95 -43.5s64.333 -44 93 -75
s51.834 -69.167 69.501 -114.5s26.5 -99.333 26.5 -162c0 -125.333 -37.5 -227 -112.5 -305s-178.5 -117 -310.5 -117zM48.999 862v130h210v-130h-210z" />
    <glyph glyph-name="agrave" unicode="&#xe0;" horiz-adv-x="1037" 
d="M404 -20c-59.333 0 -111.332 11.5029 -155.999 34.5029s-79.5 55.833 -104.5 98.5s-37.5 94 -37.5 154c0 54 9.66699 99.5 29 136.5s44.666 67.167 75.999 90.5s66 41.5 104 54.5s76 22.833 114 29.5l311 54c2.66699 67.333 -6.16602 118.166 -26.499 152.499
s-48.833 57.5 -85.5 69.5s-77.334 18 -122.001 18c-22.667 0 -47 -1.66699 -73 -5s-53.5 -8.5 -82.5 -15.5s-59.5 -15.833 -91.5 -26.5s-65.667 -23.667 -101 -39l-9 151c24 10 51.167 19.667 81.5 29s62.666 17.833 96.999 25.5s69.5 13.5 105.5 17.5s72.333 6 109 6
c74 0 137.833 -11.667 191.5 -35s94.834 -60 123.501 -110s43 -115.333 43 -196v-117v-135v-129v-138.5v-154.5h-150l-9 141h-16c-20.667 -26.667 -46.667 -52.334 -78 -77.001s-67.5 -44.834 -108.5 -60.501s-85.833 -23.5 -134.5 -23.5zM452.001 117.003
c35.333 0 70.668 7.33398 106.001 22.001s68.5 36.5 99.5 65.5s57.167 65.5 78.5 109.5l1 214c-10.667 -6 -24.834 -12 -42.501 -18s-44 -12.833 -79 -20.5s-83.5 -17.167 -145.5 -28.5c-38 -6.66699 -71.667 -17.5 -101 -32.5s-52.5 -35.333 -69.5 -61
s-25.5 -56.834 -25.5 -93.501c0 -57.333 17.167 -97.833 51.5 -121.5s76.5 -35.5 126.5 -35.5zM544.003 1154l-106.5 131.5l-107 132.5l-108.5 134l184 4l136 -198.5l136 -201.5z" />
    <glyph glyph-name="aacute" unicode="&#xe1;" horiz-adv-x="1037" 
d="M404 -20c-59.333 0 -111.332 11.5029 -155.999 34.5029s-79.5 55.833 -104.5 98.5s-37.5 94 -37.5 154c0 54 9.66699 99.5 29 136.5s44.666 67.167 75.999 90.5s66 41.5 104 54.5s76 22.833 114 29.5l311 54c2.66699 67.333 -6.16602 118.166 -26.499 152.499
s-48.833 57.5 -85.5 69.5s-77.334 18 -122.001 18c-22.667 0 -47 -1.66699 -73 -5s-53.5 -8.5 -82.5 -15.5s-59.5 -15.833 -91.5 -26.5s-65.667 -23.667 -101 -39l-9 151c24 10 51.167 19.667 81.5 29s62.666 17.833 96.999 25.5s69.5 13.5 105.5 17.5s72.333 6 109 6
c74 0 137.833 -11.667 191.5 -35s94.834 -60 123.501 -110s43 -115.333 43 -196v-117v-135v-129v-138.5v-154.5h-150l-9 141h-16c-20.667 -26.667 -46.667 -52.334 -78 -77.001s-67.5 -44.834 -108.5 -60.501s-85.833 -23.5 -134.5 -23.5zM452.001 117.003
c35.333 0 70.668 7.33398 106.001 22.001s68.5 36.5 99.5 65.5s57.167 65.5 78.5 109.5l1 214c-10.667 -6 -24.834 -12 -42.501 -18s-44 -12.833 -79 -20.5s-83.5 -17.167 -145.5 -28.5c-38 -6.66699 -71.667 -17.5 -101 -32.5s-52.5 -35.333 -69.5 -61
s-25.5 -56.834 -25.5 -93.501c0 -57.333 17.167 -97.833 51.5 -121.5s76.5 -35.5 126.5 -35.5zM382.003 1154l136.5 200l134.5 198l185 4l-109 -135l-107 -133l-106 -132z" />
    <glyph glyph-name="acircumflex" unicode="&#xe2;" horiz-adv-x="1037" 
d="M404 -20c-59.333 0 -111.332 11.5029 -155.999 34.5029s-79.5 55.833 -104.5 98.5s-37.5 94 -37.5 154c0 54 9.66699 99.5 29 136.5s44.666 67.167 75.999 90.5s66 41.5 104 54.5s76 22.833 114 29.5l311 54c2.66699 67.333 -6.16602 118.166 -26.499 152.499
s-48.833 57.5 -85.5 69.5s-77.334 18 -122.001 18c-22.667 0 -47 -1.66699 -73 -5s-53.5 -8.5 -82.5 -15.5s-59.5 -15.833 -91.5 -26.5s-65.667 -23.667 -101 -39l-9 151c24 10 51.167 19.667 81.5 29s62.666 17.833 96.999 25.5s69.5 13.5 105.5 17.5s72.333 6 109 6
c74 0 137.833 -11.667 191.5 -35s94.834 -60 123.501 -110s43 -115.333 43 -196v-117v-135v-129v-138.5v-154.5h-150l-9 141h-16c-20.667 -26.667 -46.667 -52.334 -78 -77.001s-67.5 -44.834 -108.5 -60.501s-85.833 -23.5 -134.5 -23.5zM452.001 117.003
c35.333 0 70.668 7.33398 106.001 22.001s68.5 36.5 99.5 65.5s57.167 65.5 78.5 109.5l1 214c-10.667 -6 -24.834 -12 -42.501 -18s-44 -12.833 -79 -20.5s-83.5 -17.167 -145.5 -28.5c-38 -6.66699 -71.667 -17.5 -101 -32.5s-52.5 -35.333 -69.5 -61
s-25.5 -56.834 -25.5 -93.501c0 -57.333 17.167 -97.833 51.5 -121.5s76.5 -35.5 126.5 -35.5zM756.003 1152l-124 161.5l-126 161.5h44l-124.5 -160.5l-125.5 -158.5h-134l135 197.5l136 198.5h181l136 -198.5l136 -199.5z" />
    <glyph glyph-name="atilde" unicode="&#xe3;" horiz-adv-x="1037" 
d="M404 -20c-59.333 0 -111.332 11.5029 -155.999 34.5029s-79.5 55.833 -104.5 98.5s-37.5 94 -37.5 154c0 54 9.66699 99.5 29 136.5s44.666 67.167 75.999 90.5s66 41.5 104 54.5s76 22.833 114 29.5l311 54c2.66699 67.333 -6.16602 118.166 -26.499 152.499
s-48.833 57.5 -85.5 69.5s-77.334 18 -122.001 18c-22.667 0 -47 -1.66699 -73 -5s-53.5 -8.5 -82.5 -15.5s-59.5 -15.833 -91.5 -26.5s-65.667 -23.667 -101 -39l-9 151c24 10 51.167 19.667 81.5 29s62.666 17.833 96.999 25.5s69.5 13.5 105.5 17.5s72.333 6 109 6
c74 0 137.833 -11.667 191.5 -35s94.834 -60 123.501 -110s43 -115.333 43 -196v-117v-135v-129v-138.5v-154.5h-150l-9 141h-16c-20.667 -26.667 -46.667 -52.334 -78 -77.001s-67.5 -44.834 -108.5 -60.501s-85.833 -23.5 -134.5 -23.5zM452.001 117.003
c35.333 0 70.668 7.33398 106.001 22.001s68.5 36.5 99.5 65.5s57.167 65.5 78.5 109.5l1 214c-10.667 -6 -24.834 -12 -42.501 -18s-44 -12.833 -79 -20.5s-83.5 -17.167 -145.5 -28.5c-38 -6.66699 -71.667 -17.5 -101 -32.5s-52.5 -35.333 -69.5 -61
s-25.5 -56.834 -25.5 -93.501c0 -57.333 17.167 -97.833 51.5 -121.5s76.5 -35.5 126.5 -35.5zM699.003 1149c-40 0 -74.502 8.66504 -103.502 25.998s-55.167 37.5 -78.5 60.5s-45.5 43 -66.5 60s-43.5 25.5 -67.5 25.5c-38.667 0 -65.667 -12.167 -81 -36.5
s-24 -59.166 -26 -104.499h-101c0 86.667 17.167 153.167 51.5 199.5s80.833 69.5 139.5 69.5c39.333 0 73.333 -8.66699 102 -26s54.334 -37.333 77.001 -60s44.667 -42.667 66 -60s44.333 -26 69 -26c38 0 64.5 12.333 79.5 37s23.167 59.667 24.5 105h101
c0 -87.333 -16.667 -154.166 -50 -200.499s-78.666 -69.5 -135.999 -69.5z" />
    <glyph glyph-name="adieresis" unicode="&#xe4;" horiz-adv-x="1037" 
d="M404 -20c-59.333 0 -111.332 11.5029 -155.999 34.5029s-79.5 55.833 -104.5 98.5s-37.5 94 -37.5 154c0 54 9.66699 99.5 29 136.5s44.666 67.167 75.999 90.5s66 41.5 104 54.5s76 22.833 114 29.5l311 54c2.66699 67.333 -6.16602 118.166 -26.499 152.499
s-48.833 57.5 -85.5 69.5s-77.334 18 -122.001 18c-22.667 0 -47 -1.66699 -73 -5s-53.5 -8.5 -82.5 -15.5s-59.5 -15.833 -91.5 -26.5s-65.667 -23.667 -101 -39l-9 151c24 10 51.167 19.667 81.5 29s62.666 17.833 96.999 25.5s69.5 13.5 105.5 17.5s72.333 6 109 6
c74 0 137.833 -11.667 191.5 -35s94.834 -60 123.501 -110s43 -115.333 43 -196v-117v-135v-129v-138.5v-154.5h-150l-9 141h-16c-20.667 -26.667 -46.667 -52.334 -78 -77.001s-67.5 -44.834 -108.5 -60.501s-85.833 -23.5 -134.5 -23.5zM452.001 117.003
c35.333 0 70.668 7.33398 106.001 22.001s68.5 36.5 99.5 65.5s57.167 65.5 78.5 109.5l1 214c-10.667 -6 -24.834 -12 -42.501 -18s-44 -12.833 -79 -20.5s-83.5 -17.167 -145.5 -28.5c-38 -6.66699 -71.667 -17.5 -101 -32.5s-52.5 -35.333 -69.5 -61
s-25.5 -56.834 -25.5 -93.501c0 -57.333 17.167 -97.833 51.5 -121.5s76.5 -35.5 126.5 -35.5zM741.003 1207c-32.667 0 -58.998 9.66699 -78.998 29s-30 48.333 -30 87c0 38 10.167 67 30.5 87s47.166 30 80.499 30s59.666 -10.5 78.999 -31.5s29 -49.5 29 -85.5
c0 -38.667 -9.83301 -67.667 -29.5 -87s-46.5 -29 -80.5 -29zM317.005 1207c-32.667 0 -58.998 9.66699 -78.998 29s-30 48.333 -30 87c0 38 10.167 67 30.5 87s47.166 30 80.499 30s59.666 -10.5 78.999 -31.5s29 -49.5 29 -85.5c0 -38.667 -9.83301 -67.667 -29.5 -87
s-46.5 -29 -80.5 -29z" />
    <glyph glyph-name="aring" unicode="&#xe5;" horiz-adv-x="1037" 
d="M404 -20c-59.333 0 -111.332 11.5029 -155.999 34.5029s-79.5 55.833 -104.5 98.5s-37.5 94 -37.5 154c0 54 9.66699 99.5 29 136.5s44.666 67.167 75.999 90.5s66 41.5 104 54.5s76 22.833 114 29.5l311 54c2.66699 67.333 -6.16602 118.166 -26.499 152.499
s-48.833 57.5 -85.5 69.5s-77.334 18 -122.001 18c-22.667 0 -47 -1.66699 -73 -5s-53.5 -8.5 -82.5 -15.5s-59.5 -15.833 -91.5 -26.5s-65.667 -23.667 -101 -39l-9 151c24 10 51.167 19.667 81.5 29s62.666 17.833 96.999 25.5s69.5 13.5 105.5 17.5s72.333 6 109 6
c74 0 137.833 -11.667 191.5 -35s94.834 -60 123.501 -110s43 -115.333 43 -196v-117v-135v-129v-138.5v-154.5h-150l-9 141h-16c-20.667 -26.667 -46.667 -52.334 -78 -77.001s-67.5 -44.834 -108.5 -60.501s-85.833 -23.5 -134.5 -23.5zM452.001 117.003
c35.333 0 70.668 7.33398 106.001 22.001s68.5 36.5 99.5 65.5s57.167 65.5 78.5 109.5l1 214c-10.667 -6 -24.834 -12 -42.501 -18s-44 -12.833 -79 -20.5s-83.5 -17.167 -145.5 -28.5c-38 -6.66699 -71.667 -17.5 -101 -32.5s-52.5 -35.333 -69.5 -61
s-25.5 -56.834 -25.5 -93.501c0 -57.333 17.167 -97.833 51.5 -121.5s76.5 -35.5 126.5 -35.5zM528.003 1125c-44.667 0 -84.002 8.16602 -118.002 24.499s-60.667 40.166 -80 71.499s-29 69.333 -29 114c0 62.667 21.167 112.834 63.5 150.501s97.5 56.5 165.5 56.5
c44.667 0 84.167 -8.66699 118.5 -26s61 -41.666 80 -72.999s28.5 -67.333 28.5 -108c0 -45.333 -9.66699 -83.5 -29 -114.5s-46.166 -54.667 -80.499 -71s-74.166 -24.5 -119.499 -24.5zM528.001 1213c38 0 69.167 10.167 93.5 30.5s36.5 50.5 36.5 90.5
c0 36.667 -12 66.167 -36 88.5s-54.667 33.5 -92 33.5c-38 0 -69.167 -11 -93.5 -33s-36.5 -51.667 -36.5 -89c0 -40 12.167 -70.167 36.5 -90.5s54.833 -30.5 91.5 -30.5z" />
    <glyph glyph-name="ae" unicode="&#xe6;" horiz-adv-x="1630" 
d="M1216 -22c-114 0 -207.166 22.667 -279.499 68s-125.666 107.333 -159.999 186s-51.5 168.667 -51.5 270c0 100 16.833 188.667 50.5 266s82.667 137.833 147 181.5s142.5 65.5 234.5 65.5c82.667 0 154 -16.333 214 -49s106.333 -80.5 139 -143.5s49 -140.833 49 -233.5
c0 -24.667 -0.5 -46.834 -1.5 -66.501s-3.16699 -39.5 -6.5 -59.5l-145 73c1.33301 10.667 2.33301 20.834 3 30.501s1 19.167 1 28.5c0 94 -23.667 165.5 -71 214.5s-108 73.5 -182 73.5c-60.667 0 -112.334 -15.5 -155.001 -46.5s-75.167 -73.833 -97.5 -128.5
s-33.5 -117 -33.5 -187v-23c0 -116 28.667 -207.5 86 -274.5s148.666 -100.5 273.999 -100.5c31.333 0 64.5 2.5 99.5 7.5s69.833 12.833 104.5 23.5s67.334 24.667 98.001 42l7 -149c-25.333 -14 -54.833 -26.167 -88.5 -36.5s-70.334 -18.333 -110.001 -24
s-81.5 -8.5 -125.5 -8.5zM430.001 117c35.333 0 70.835 7.33398 106.502 22.001s68.834 36.5 99.501 65.5s56.667 65.5 78 109.5l1 214c-10.667 -6 -24.834 -12 -42.501 -18s-43.834 -12.833 -78.501 -20.5s-83.334 -17.167 -146.001 -28.5
c-38 -6.66699 -71.667 -17.5 -101 -32.5s-52.5 -35.333 -69.5 -61s-25.5 -56.834 -25.5 -93.501c0 -57.333 17.333 -97.833 52 -121.5s76.667 -35.5 126 -35.5zM393.003 -19.999c-63.333 0 -117.999 11.501 -163.999 34.501s-81.667 55.833 -107 98.5s-38 94 -38 154
c0 54 9.66699 99.5 29 136.5s44.666 67.167 75.999 90.5s66 41.5 104 54.5s76 22.833 114 29.5l312 54c2 67.333 -7.16699 118.166 -27.5 152.499s-48.666 57.5 -84.999 69.5s-77.166 18 -122.499 18c-22.667 0 -47 -1.66699 -73 -5s-53.333 -8.5 -82 -15.5
s-59 -15.833 -91 -26.5s-65.667 -23.667 -101 -39l-10 151c24 10 50.667 19.667 80 29s60.666 17.833 93.999 25.5s67.666 13.5 102.999 17.5s70.333 6 105 6c107.333 0 190.666 -26.667 249.999 -80s89 -140.333 89 -261l-31 -170l10 -246
c-33.333 -64 -72.666 -116.5 -117.999 -157.5s-94.833 -71.333 -148.5 -91s-109.5 -29.5 -167.5 -29.5zM772.004 463.002v118l678 6l101 -34v-90h-779z" />
    <glyph glyph-name="ccedilla" unicode="&#xe7;" horiz-adv-x="989" 
d="M604 -20c-107.333 0 -198.504 22.6689 -273.504 68.002s-132.167 107 -171.5 185s-59 166 -59 264s18.833 186.167 56.5 264.5s92.667 140.166 165 185.499s160.5 68 264.5 68c38.667 0 76.834 -3.33301 114.501 -10s73.167 -15.5 106.5 -26.5s63 -23.833 89 -38.5
l-15 -152c-37.333 21.333 -72.5 37.833 -105.5 49.5s-63.667 19.667 -92 24s-54.5 6.5 -78.5 6.5c-101.333 0 -182.666 -33.167 -243.999 -99.5s-92 -155.833 -92 -268.5c0 -70.667 13.5 -134.5 40.5 -191.5s67.667 -102 122 -135s121.833 -49.5 202.5 -49.5
c28.667 0 57.167 2.66699 85.5 8s56.5 13.166 84.5 23.499s55 23.833 81 40.5l14 -151c-22 -12 -47.667 -22.833 -77 -32.5s-62.166 -17.5 -98.499 -23.5s-76.166 -9 -119.499 -9zM522.996 -429.998c-14 0 -28.667 0.666992 -44 2s-29.833 3.16602 -43.5 5.49902
s-25.5 5.16602 -35.5 8.49902v106c9.33301 -3.33301 23.166 -6.5 41.499 -9.5s38.5 -4.5 60.5 -4.5c46.667 0 79.334 7.66699 98.001 23s28 34.333 28 57c0 13.333 -4.66699 26.333 -14 39s-26.333 24 -51 34s-60.334 17.667 -107.001 23l78 183h96v-37l-50 -115
c48 -7.33301 85.333 -18.666 112 -33.999s45.334 -33.166 56.001 -53.499s16 -41.5 16 -63.5c0 -30 -8 -57.5 -24 -82.5s-41.667 -44.833 -77 -59.5s-82 -22 -140 -22z" />
    <glyph glyph-name="egrave" unicode="&#xe8;" horiz-adv-x="1055" 
d="M620 -22c-118.667 0 -216.332 22.667 -292.999 68s-133.667 107.333 -171 186s-56 168.667 -56 270c0 100 18.333 188.667 55 266s89.334 137.833 158.001 181.5s150.667 65.5 246 65.5c84 0 156.167 -16.333 216.5 -49s106.833 -80.5 139.5 -143.5
s49 -140.833 49 -233.5c0 -24.667 -0.5 -46.834 -1.5 -66.501s-3.16699 -39.5 -6.5 -59.5l-145 73c1.33301 10.667 2.16602 20.834 2.49902 30.501s0.5 19.167 0.5 28.5c0 94 -23.333 165.5 -70 214.5s-107.667 73.5 -183 73.5c-60.667 0 -112.834 -15.5 -156.501 -46.5
s-77.5 -73.833 -101.5 -128.5s-36 -117 -36 -187v-23c0 -77.333 13.333 -144 40 -200s67.167 -99.167 121.5 -129.5s123.5 -45.5 207.5 -45.5c31.333 0 64.5 2.5 99.5 7.5s69.667 12.833 104 23.5s67.166 24.667 98.499 42l7 -149
c-25.333 -14 -54.666 -26.167 -87.999 -36.5s-70 -18.333 -110 -24s-82.333 -8.5 -127 -8.5zM169.002 463v118l686 6l101 -38v-86h-787zM569.002 1154l-106.5 131.5l-107 132.5l-108.5 134l184 4l136 -198.5l136 -201.5z" />
    <glyph glyph-name="eacute" unicode="&#xe9;" horiz-adv-x="1055" 
d="M620 -22c-118.667 0 -216.332 22.667 -292.999 68s-133.667 107.333 -171 186s-56 168.667 -56 270c0 100 18.333 188.667 55 266s89.334 137.833 158.001 181.5s150.667 65.5 246 65.5c84 0 156.167 -16.333 216.5 -49s106.833 -80.5 139.5 -143.5
s49 -140.833 49 -233.5c0 -24.667 -0.5 -46.834 -1.5 -66.501s-3.16699 -39.5 -6.5 -59.5l-145 73c1.33301 10.667 2.16602 20.834 2.49902 30.501s0.5 19.167 0.5 28.5c0 94 -23.333 165.5 -70 214.5s-107.667 73.5 -183 73.5c-60.667 0 -112.834 -15.5 -156.501 -46.5
s-77.5 -73.833 -101.5 -128.5s-36 -117 -36 -187v-23c0 -77.333 13.333 -144 40 -200s67.167 -99.167 121.5 -129.5s123.5 -45.5 207.5 -45.5c31.333 0 64.5 2.5 99.5 7.5s69.667 12.833 104 23.5s67.166 24.667 98.499 42l7 -149
c-25.333 -14 -54.666 -26.167 -87.999 -36.5s-70 -18.333 -110 -24s-82.333 -8.5 -127 -8.5zM169.002 463v118l686 6l101 -38v-86h-787zM407.002 1154l136.5 200l134.5 198l185 4l-109 -135l-107 -133l-106 -132z" />
    <glyph glyph-name="ecircumflex" unicode="&#xea;" horiz-adv-x="1055" 
d="M620 -22c-118.667 0 -216.332 22.667 -292.999 68s-133.667 107.333 -171 186s-56 168.667 -56 270c0 100 18.333 188.667 55 266s89.334 137.833 158.001 181.5s150.667 65.5 246 65.5c84 0 156.167 -16.333 216.5 -49s106.833 -80.5 139.5 -143.5
s49 -140.833 49 -233.5c0 -24.667 -0.5 -46.834 -1.5 -66.501s-3.16699 -39.5 -6.5 -59.5l-145 73c1.33301 10.667 2.16602 20.834 2.49902 30.501s0.5 19.167 0.5 28.5c0 94 -23.333 165.5 -70 214.5s-107.667 73.5 -183 73.5c-60.667 0 -112.834 -15.5 -156.501 -46.5
s-77.5 -73.833 -101.5 -128.5s-36 -117 -36 -187v-23c0 -77.333 13.333 -144 40 -200s67.167 -99.167 121.5 -129.5s123.5 -45.5 207.5 -45.5c31.333 0 64.5 2.5 99.5 7.5s69.667 12.833 104 23.5s67.166 24.667 98.499 42l7 -149
c-25.333 -14 -54.666 -26.167 -87.999 -36.5s-70 -18.333 -110 -24s-82.333 -8.5 -127 -8.5zM169.002 463v118l686 6l101 -38v-86h-787zM781.002 1152l-124 161.5l-126 161.5h44l-124.5 -160.5l-125.5 -158.5h-134l135 197.5l136 198.5h181l136 -198.5l136 -199.5z" />
    <glyph glyph-name="edieresis" unicode="&#xeb;" horiz-adv-x="1055" 
d="M620 -22c-118.667 0 -216.332 22.667 -292.999 68s-133.667 107.333 -171 186s-56 168.667 -56 270c0 100 18.333 188.667 55 266s89.334 137.833 158.001 181.5s150.667 65.5 246 65.5c84 0 156.167 -16.333 216.5 -49s106.833 -80.5 139.5 -143.5
s49 -140.833 49 -233.5c0 -24.667 -0.5 -46.834 -1.5 -66.501s-3.16699 -39.5 -6.5 -59.5l-145 73c1.33301 10.667 2.16602 20.834 2.49902 30.501s0.5 19.167 0.5 28.5c0 94 -23.333 165.5 -70 214.5s-107.667 73.5 -183 73.5c-60.667 0 -112.834 -15.5 -156.501 -46.5
s-77.5 -73.833 -101.5 -128.5s-36 -117 -36 -187v-23c0 -77.333 13.333 -144 40 -200s67.167 -99.167 121.5 -129.5s123.5 -45.5 207.5 -45.5c31.333 0 64.5 2.5 99.5 7.5s69.667 12.833 104 23.5s67.166 24.667 98.499 42l7 -149
c-25.333 -14 -54.666 -26.167 -87.999 -36.5s-70 -18.333 -110 -24s-82.333 -8.5 -127 -8.5zM169.002 463v118l686 6l101 -38v-86h-787zM766.002 1207c-32.667 0 -58.998 9.66699 -78.998 29s-30 48.333 -30 87c0 38 10.167 67 30.5 87s47.166 30 80.499 30
s59.666 -10.5 78.999 -31.5s29 -49.5 29 -85.5c0 -38.667 -9.83301 -67.667 -29.5 -87s-46.5 -29 -80.5 -29zM342.004 1207c-32.667 0 -58.998 9.66699 -78.998 29s-30 48.333 -30 87c0 38 10.167 67 30.5 87s47.166 30 80.499 30s59.666 -10.5 78.999 -31.5
s29 -49.5 29 -85.5c0 -38.667 -9.83301 -67.667 -29.5 -87s-46.5 -29 -80.5 -29z" />
    <glyph glyph-name="igrave" unicode="&#xec;" horiz-adv-x="514" 
d="M174 0v213v225v100v164.5v146v143.5l166 6v-145.5v-148v-166.5v-100v-225v-213h-166zM271 1154l-106.5 131.5l-107 132.5l-108.5 134l184 4l136 -198.5l136 -201.5z" />
    <glyph glyph-name="iacute" unicode="&#xed;" horiz-adv-x="514" 
d="M174 0v213v225v100v164.5v146v143.5l166 6v-145.5v-148v-166.5v-100v-225v-213h-166zM109 1154l136.5 200l134.5 198l185 4l-109 -135l-107 -133l-106 -132z" />
    <glyph glyph-name="icircumflex" unicode="&#xee;" horiz-adv-x="514" 
d="M174 0v213v225v100v164.5v146v143.5l166 6v-145.5v-148v-166.5v-100v-225v-213h-166zM450 1152l-85.5 133l-86 133l-87.5 134h145l118.5 -197.5l119.5 -200.5zM-64 1156l119.5 198l118.5 198h144l-86.5 -133l-85.5 -131.5l-86 -131.5h-124z" />
    <glyph glyph-name="idieresis" unicode="&#xef;" horiz-adv-x="514" 
d="M174 0v213v225v100v164.5v146v143.5l166 6v-145.5v-148v-166.5v-100v-225v-213h-166zM431 1207c-31.333 0 -56.499 9.66699 -75.499 29s-28.5 48.333 -28.5 87c0 38 9.66699 67 29 87s45 30 77 30c32.667 0 58.334 -10.5 77.001 -31.5s28 -49.5 28 -85.5
c0 -26 -4.33301 -47.5 -13 -64.5s-20.834 -29.833 -36.501 -38.5s-34.834 -13 -57.501 -13zM80.001 1207c-32 0 -57.499 9.66699 -76.499 29s-28.5 48.333 -28.5 87c0 38 9.66699 67 29 87s45.333 30 78 30c32 0 57.333 -10.5 76 -31.5s28 -49.5 28 -85.5
c0 -26 -4.33301 -47.5 -13 -64.5s-20.834 -29.833 -36.501 -38.5s-34.5 -13 -56.5 -13z" />
    <glyph glyph-name="eth" unicode="&#xf0;" horiz-adv-x="1182" 
d="M596 -22c-108 0 -198.826 23.6719 -272.493 71.0049s-129.334 109.666 -167.001 186.999s-56.5 160.666 -56.5 249.999c0 90.667 18.167 172 54.5 244s86.833 129 151.5 171s140.334 63 227.001 63c36 0 73.5 -4.33301 112.5 -13s77.5 -22.334 115.5 -41.001
s74 -43 108 -73l43 13c15.333 -32 24.666 -66 27.999 -102s-1.33398 -70 -14.001 -102c-41.333 51.333 -82.833 89.5 -124.5 114.5s-80.834 41.5 -117.501 49.5s-68.334 12 -95.001 12c-71.333 0 -130.833 -16.167 -178.5 -48.5s-83.334 -74.5 -107.001 -126.5
s-35.5 -107.667 -35.5 -167c0 -60.667 12.167 -118.334 36.5 -173.001s60.666 -99.334 108.999 -134.001s108.5 -52 180.5 -52c107.333 0 187.166 43.333 239.499 130s78.5 209 78.5 367c0 122 -21 234 -63 336s-104 195.667 -186 281c-34.667 38 -73.5 74.333 -116.5 109
s-89.5 68 -139.5 100l137 58c48 -28.667 93.833 -60.167 137.5 -94.5s84.5 -71.5 122.5 -111.5c86 -90 153.833 -191.167 203.5 -303.5s74.5 -241.833 74.5 -388.5c0 -128 -17.833 -238.833 -53.5 -332.5s-89.5 -166 -161.5 -217s-162.333 -76.5 -271 -76.5zM344.007 1093
l-35 111l169 53l150 46l92 29l148.5 46l169.5 53l35 -112l-168 -52l-150 -47l-92 -28l-150.5 -47z" />
    <glyph glyph-name="ntilde" unicode="&#xf1;" horiz-adv-x="1146" 
d="M172 0l0.00390625 213v225v100v225v229l144 10l5 -184h18c21.333 30 48.666 60.333 81.999 91s72.666 56.167 117.999 76.5s97.333 30.5 156 30.5c105.333 0 182.333 -30.333 231 -91s73 -148.667 73 -264v-115v-108v-222.5v-215.5h-165v214.5v216.5v188
c0 79.333 -14.167 139.333 -42.5 180s-79.5 61 -153.5 61c-44.667 0 -85.334 -9 -122.001 -27s-69.834 -42.167 -99.501 -72.5s-56.167 -63.833 -79.5 -100.5v-229v-218.5v-212.5h-165zM756.004 1149c-40 0 -74.502 8.66504 -103.502 25.998s-55.167 37.5 -78.5 60.5
s-45.5 43 -66.5 60s-43.5 25.5 -67.5 25.5c-38.667 0 -65.667 -12.167 -81 -36.5s-24 -59.166 -26 -104.499h-101c0 86.667 17.167 153.167 51.5 199.5s80.833 69.5 139.5 69.5c39.333 0 73.333 -8.66699 102 -26s54.334 -37.333 77.001 -60s44.667 -42.667 66 -60
s44.333 -26 69 -26c38 0 64.5 12.333 79.5 37s23.167 59.667 24.5 105h101c0 -87.333 -16.667 -154.166 -50 -200.499s-78.666 -69.5 -135.999 -69.5z" />
    <glyph glyph-name="ograve" unicode="&#xf2;" horiz-adv-x="1195" 
d="M601 -22c-82 0 -154.165 14.166 -216.498 42.499s-114.5 66.833 -156.5 115.5s-73.833 104.5 -95.5 167.5s-32.5 129.167 -32.5 198.5c0 99.333 20.167 187.5 60.5 264.5s97.666 137.833 171.999 182.5s162.833 67 265.5 67c79.333 0 149.666 -13 210.999 -39
s113.333 -62.333 156 -109s75 -101.167 97 -163.5s33 -129.833 33 -202.5c0 -98 -20 -186.667 -60 -266s-96.833 -142.166 -170.5 -188.499s-161.5 -69.5 -263.5 -69.5zM601.002 121.999c72.667 0 133.003 18 181.003 54s84 83 108 141s36 119.667 36 185
c0 74.667 -13.333 139.667 -40 195s-64.334 98.333 -113.001 129s-106.334 46 -173.001 46c-72 0 -132.667 -16.333 -182 -49s-86.5 -77 -111.5 -133s-37.5 -118.667 -37.5 -188c0 -65.333 12.167 -127 36.5 -185s61.166 -105 110.499 -141s111 -54 185 -54zM611.005 1154
l-106.5 131.5l-107 132.5l-108.5 134l184 4l136 -198.5l136 -201.5z" />
    <glyph glyph-name="oacute" unicode="&#xf3;" horiz-adv-x="1195" 
d="M601 -22c-82 0 -154.165 14.166 -216.498 42.499s-114.5 66.833 -156.5 115.5s-73.833 104.5 -95.5 167.5s-32.5 129.167 -32.5 198.5c0 99.333 20.167 187.5 60.5 264.5s97.666 137.833 171.999 182.5s162.833 67 265.5 67c79.333 0 149.666 -13 210.999 -39
s113.333 -62.333 156 -109s75 -101.167 97 -163.5s33 -129.833 33 -202.5c0 -98 -20 -186.667 -60 -266s-96.833 -142.166 -170.5 -188.499s-161.5 -69.5 -263.5 -69.5zM601.002 121.999c72.667 0 133.003 18 181.003 54s84 83 108 141s36 119.667 36 185
c0 74.667 -13.333 139.667 -40 195s-64.334 98.333 -113.001 129s-106.334 46 -173.001 46c-72 0 -132.667 -16.333 -182 -49s-86.5 -77 -111.5 -133s-37.5 -118.667 -37.5 -188c0 -65.333 12.167 -127 36.5 -185s61.166 -105 110.499 -141s111 -54 185 -54zM449.005 1154
l136.5 200l134.5 198l185 4l-109 -135l-107 -133l-106 -132z" />
    <glyph glyph-name="ocircumflex" unicode="&#xf4;" horiz-adv-x="1195" 
d="M601 -22c-82 0 -154.165 14.166 -216.498 42.499s-114.5 66.833 -156.5 115.5s-73.833 104.5 -95.5 167.5s-32.5 129.167 -32.5 198.5c0 99.333 20.167 187.5 60.5 264.5s97.666 137.833 171.999 182.5s162.833 67 265.5 67c79.333 0 149.666 -13 210.999 -39
s113.333 -62.333 156 -109s75 -101.167 97 -163.5s33 -129.833 33 -202.5c0 -98 -20 -186.667 -60 -266s-96.833 -142.166 -170.5 -188.499s-161.5 -69.5 -263.5 -69.5zM601.002 121.999c72.667 0 133.003 18 181.003 54s84 83 108 141s36 119.667 36 185
c0 74.667 -13.333 139.667 -40 195s-64.334 98.333 -113.001 129s-106.334 46 -173.001 46c-72 0 -132.667 -16.333 -182 -49s-86.5 -77 -111.5 -133s-37.5 -118.667 -37.5 -188c0 -65.333 12.167 -127 36.5 -185s61.166 -105 110.499 -141s111 -54 185 -54zM823.005 1152
l-124 161.5l-126 161.5h44l-124.5 -160.5l-125.5 -158.5h-134l135 197.5l136 198.5h181l136 -198.5l136 -199.5z" />
    <glyph glyph-name="otilde" unicode="&#xf5;" horiz-adv-x="1195" 
d="M601 -22c-82 0 -154.165 14.166 -216.498 42.499s-114.5 66.833 -156.5 115.5s-73.833 104.5 -95.5 167.5s-32.5 129.167 -32.5 198.5c0 99.333 20.167 187.5 60.5 264.5s97.666 137.833 171.999 182.5s162.833 67 265.5 67c79.333 0 149.666 -13 210.999 -39
s113.333 -62.333 156 -109s75 -101.167 97 -163.5s33 -129.833 33 -202.5c0 -98 -20 -186.667 -60 -266s-96.833 -142.166 -170.5 -188.499s-161.5 -69.5 -263.5 -69.5zM601.002 121.999c72.667 0 133.003 18 181.003 54s84 83 108 141s36 119.667 36 185
c0 74.667 -13.333 139.667 -40 195s-64.334 98.333 -113.001 129s-106.334 46 -173.001 46c-72 0 -132.667 -16.333 -182 -49s-86.5 -77 -111.5 -133s-37.5 -118.667 -37.5 -188c0 -65.333 12.167 -127 36.5 -185s61.166 -105 110.499 -141s111 -54 185 -54zM766.005 1149
c-40 0 -74.502 8.66504 -103.502 25.998s-55.167 37.5 -78.5 60.5s-45.5 43 -66.5 60s-43.5 25.5 -67.5 25.5c-38.667 0 -65.667 -12.167 -81 -36.5s-24 -59.166 -26 -104.499h-101c0 86.667 17.167 153.167 51.5 199.5s80.833 69.5 139.5 69.5
c39.333 0 73.333 -8.66699 102 -26s54.334 -37.333 77.001 -60s44.667 -42.667 66 -60s44.333 -26 69 -26c38 0 64.5 12.333 79.5 37s23.167 59.667 24.5 105h101c0 -87.333 -16.667 -154.166 -50 -200.499s-78.666 -69.5 -135.999 -69.5z" />
    <glyph glyph-name="odieresis" unicode="&#xf6;" horiz-adv-x="1195" 
d="M601 -22c-82 0 -154.165 14.166 -216.498 42.499s-114.5 66.833 -156.5 115.5s-73.833 104.5 -95.5 167.5s-32.5 129.167 -32.5 198.5c0 99.333 20.167 187.5 60.5 264.5s97.666 137.833 171.999 182.5s162.833 67 265.5 67c79.333 0 149.666 -13 210.999 -39
s113.333 -62.333 156 -109s75 -101.167 97 -163.5s33 -129.833 33 -202.5c0 -98 -20 -186.667 -60 -266s-96.833 -142.166 -170.5 -188.499s-161.5 -69.5 -263.5 -69.5zM601.002 121.999c72.667 0 133.003 18 181.003 54s84 83 108 141s36 119.667 36 185
c0 74.667 -13.333 139.667 -40 195s-64.334 98.333 -113.001 129s-106.334 46 -173.001 46c-72 0 -132.667 -16.333 -182 -49s-86.5 -77 -111.5 -133s-37.5 -118.667 -37.5 -188c0 -65.333 12.167 -127 36.5 -185s61.166 -105 110.499 -141s111 -54 185 -54zM808.005 1207
c-32.667 0 -58.998 9.66699 -78.998 29s-30 48.333 -30 87c0 38 10.167 67 30.5 87s47.166 30 80.499 30s59.666 -10.5 78.999 -31.5s29 -49.5 29 -85.5c0 -38.667 -9.83301 -67.667 -29.5 -87s-46.5 -29 -80.5 -29zM384.007 1207c-32.667 0 -58.998 9.66699 -78.998 29
s-30 48.333 -30 87c0 38 10.167 67 30.5 87s47.166 30 80.499 30s59.666 -10.5 78.999 -31.5s29 -49.5 29 -85.5c0 -38.667 -9.83301 -67.667 -29.5 -87s-46.5 -29 -80.5 -29z" />
    <glyph glyph-name="divide" unicode="&#xf7;" horiz-adv-x="1136" 
d="M124 524v147h182h164h197h164.5h181.5v-147h-181.5h-164.5h-197h-164h-182zM566 113c-36.667 0 -66.167 11.167 -88.5 33.5s-33.5 51.166 -33.5 86.499c0 36.667 11.167 65.5 33.5 86.5s51.833 31.5 88.5 31.5c38 0 67.833 -10.5 89.5 -31.5s32.5 -49.833 32.5 -86.5
c0 -35.333 -10.833 -64.166 -32.5 -86.499s-51.5 -33.5 -89.5 -33.5zM566 841c-36.667 0 -66.167 11.167 -88.5 33.5s-33.5 51.166 -33.5 86.499c0 36.667 11.167 65.667 33.5 87s51.833 32 88.5 32c38 0 67.833 -10.667 89.5 -32s32.5 -50.333 32.5 -87
c0 -35.333 -10.833 -64.166 -32.5 -86.499s-51.5 -33.5 -89.5 -33.5z" />
    <glyph glyph-name="oslash" unicode="&#xf8;" horiz-adv-x="1194" 
d="M601 -22c-82 0 -154 14.165 -216 42.498s-114.167 66.833 -156.5 115.5s-74.333 104.5 -96 167.5s-32.5 129.167 -32.5 198.5c0 99.333 20 187.5 60 264.5s97.333 137.667 172 182s163.667 66.5 267 66.5c78.667 0 148.667 -13 210 -39s113.333 -62.167 156 -108.5
s75 -100.666 97 -162.999s33 -129.833 33 -202.5c0 -98 -20 -186.667 -60 -266s-96.833 -142.166 -170.5 -188.499s-161.5 -69.5 -263.5 -69.5zM600 120.998c73.333 0 134.002 18.166 182.002 54.499s84 83.5 108 141.5s36 119.667 36 185
c0 74.667 -13.333 139.834 -40 195.501s-64.334 98.667 -113.001 129s-106.334 45.5 -173.001 45.5c-72 0 -132.667 -16.5 -182 -49.5s-86.666 -77.5 -111.999 -133.5s-38 -118.333 -38 -187c0 -65.333 12.333 -127 37 -185s61.667 -105.167 111 -141.5
s110.666 -54.5 183.999 -54.5zM198.002 -129.003l-85 67l146.5 190.5l146.5 191.5l288 377l152 198.5l142 186.5l88 -64l-146 -190l-152 -198l-290 -379l-147.5 -194z" />
    <glyph glyph-name="ugrave" unicode="&#xf9;" horiz-adv-x="1117" 
d="M451 -22c-105.333 0 -182.332 30.332 -230.999 90.999s-73 148.667 -73 264v114.5v95.5v163.5v143.5v142l165 7v-216v-223v-188c0 -78.667 14.333 -138.5 43 -179.5s79.667 -61.5 153 -61.5c42.667 0 81.667 9.16699 117 27.5s67.666 42.5 96.999 72.5s56 63.333 80 100
v229v220v212h165v-214v-235v-105v-225v-213h-144l-6 175h-18c-20.667 -30 -47.5 -60.167 -80.5 -90.5s-71.833 -55.666 -116.5 -75.999s-95 -30.5 -151 -30.5zM572.001 1154l-106.5 131.5l-107 132.5l-108.5 134l184 4l136 -198.5l136 -201.5z" />
    <glyph glyph-name="uacute" unicode="&#xfa;" horiz-adv-x="1117" 
d="M451 -22c-105.333 0 -182.332 30.332 -230.999 90.999s-73 148.667 -73 264v114.5v95.5v163.5v143.5v142l165 7v-216v-223v-188c0 -78.667 14.333 -138.5 43 -179.5s79.667 -61.5 153 -61.5c42.667 0 81.667 9.16699 117 27.5s67.666 42.5 96.999 72.5s56 63.333 80 100
v229v220v212h165v-214v-235v-105v-225v-213h-144l-6 175h-18c-20.667 -30 -47.5 -60.167 -80.5 -90.5s-71.833 -55.666 -116.5 -75.999s-95 -30.5 -151 -30.5zM410.001 1154l136.5 200l134.5 198l185 4l-109 -135l-107 -133l-106 -132z" />
    <glyph glyph-name="ucircumflex" unicode="&#xfb;" horiz-adv-x="1117" 
d="M451 -22c-105.333 0 -182.332 30.332 -230.999 90.999s-73 148.667 -73 264v114.5v95.5v163.5v143.5v142l165 7v-216v-223v-188c0 -78.667 14.333 -138.5 43 -179.5s79.667 -61.5 153 -61.5c42.667 0 81.667 9.16699 117 27.5s67.666 42.5 96.999 72.5s56 63.333 80 100
v229v220v212h165v-214v-235v-105v-225v-213h-144l-6 175h-18c-20.667 -30 -47.5 -60.167 -80.5 -90.5s-71.833 -55.666 -116.5 -75.999s-95 -30.5 -151 -30.5zM784.001 1152l-124 161.5l-126 161.5h44l-124.5 -160.5l-125.5 -158.5h-134l135 197.5l136 198.5h181l136 -198.5
l136 -199.5z" />
    <glyph glyph-name="udieresis" unicode="&#xfc;" horiz-adv-x="1117" 
d="M451 -22c-105.333 0 -182.332 30.332 -230.999 90.999s-73 148.667 -73 264v114.5v95.5v163.5v143.5v142l165 7v-216v-223v-188c0 -78.667 14.333 -138.5 43 -179.5s79.667 -61.5 153 -61.5c42.667 0 81.667 9.16699 117 27.5s67.666 42.5 96.999 72.5s56 63.333 80 100
v229v220v212h165v-214v-235v-105v-225v-213h-144l-6 175h-18c-20.667 -30 -47.5 -60.167 -80.5 -90.5s-71.833 -55.666 -116.5 -75.999s-95 -30.5 -151 -30.5zM769.001 1207c-32.667 0 -58.998 9.66699 -78.998 29s-30 48.333 -30 87c0 38 10.167 67 30.5 87
s47.166 30 80.499 30s59.666 -10.5 78.999 -31.5s29 -49.5 29 -85.5c0 -38.667 -9.83301 -67.667 -29.5 -87s-46.5 -29 -80.5 -29zM345.003 1207c-32.667 0 -58.998 9.66699 -78.998 29s-30 48.333 -30 87c0 38 10.167 67 30.5 87s47.166 30 80.499 30
s59.666 -10.5 78.999 -31.5s29 -49.5 29 -85.5c0 -38.667 -9.83301 -67.667 -29.5 -87s-46.5 -29 -80.5 -29z" />
    <glyph glyph-name="yacute" unicode="&#xfd;" horiz-adv-x="1035" 
d="M268 -390l80 198l80 198v-42l-76 207l-75 204l-66 180l-80.5 219l-80.5 218l177 7l84 -252l84 -251l105 -319h18l115 320l89 248l89 247h175l-61.5 -154.5l-65 -164.5l-84.5 -214l-110 -279l-127.5 -323l-95.5 -241zM370 1154l136.5 200l134.5 198l185 4l-109 -135
l-107 -133l-106 -132z" />
    <glyph glyph-name="thorn" unicode="&#xfe;" horiz-adv-x="1183" 
d="M172 -390l-0.00195312 215.501v228.5v933v245v232l165 20v-241.5v-255.5v-110h18c18.667 23.333 42.834 45.666 72.501 66.999s64 38.666 103 51.999s81.833 20 128.5 20c89.333 0 165.5 -22.5 228.5 -67.5s111.167 -106.5 144.5 -184.5s50 -166.333 50 -265
c0 -92.667 -15.5 -178.5 -46.5 -257.5s-78 -142.667 -141 -191s-141.833 -72.5 -236.5 -72.5c-44 0 -84.667 5.83301 -122 17.5s-71.166 28.334 -101.499 50.001s-57.833 48.167 -82.5 79.5h-15v-78v-218.5v-212.5zM607.998 126.001c71.333 0 129.5 17.667 174.5 53
s78 81.166 99 137.499s31.5 116.833 31.5 181.5c0 67.333 -11.167 128.833 -33.5 184.5s-56.166 100.167 -101.499 133.5s-103 50 -173 50c-34.667 0 -68.667 -5.16699 -102 -15.5s-64.166 -25.666 -92.499 -45.999s-52.833 -45.5 -73.5 -75.5v-441
c20 -34 43.167 -63 69.5 -87s56.166 -42.5 89.499 -55.5s70.666 -19.5 111.999 -19.5z" />
    <glyph glyph-name="ydieresis" unicode="&#xff;" horiz-adv-x="1035" 
d="M268 -390l80 198l80 198v-42l-76 207l-75 204l-66 180l-80.5 219l-80.5 218l177 7l84 -252l84 -251l105 -319h18l115 320l89 248l89 247h175l-61.5 -154.5l-65 -164.5l-84.5 -214l-110 -279l-127.5 -323l-95.5 -241zM729 1207c-32.667 0 -58.998 9.66699 -78.998 29
s-30 48.333 -30 87c0 38 10.167 67 30.5 87s47.166 30 80.499 30s59.666 -10.5 78.999 -31.5s29 -49.5 29 -85.5c0 -38.667 -9.83301 -67.667 -29.5 -87s-46.5 -29 -80.5 -29zM305.002 1207c-32.667 0 -58.998 9.66699 -78.998 29s-30 48.333 -30 87c0 38 10.167 67 30.5 87
s47.166 30 80.499 30s59.666 -10.5 78.999 -31.5s29 -49.5 29 -85.5c0 -38.667 -9.83301 -67.667 -29.5 -87s-46.5 -29 -80.5 -29z" />
    <glyph glyph-name="Amacron" unicode="&#x100;" horiz-adv-x="1380" 
d="M59 0l87.5 242l87.5 241l177 490l86 238.5l78 214.5h238l77 -216l85 -238l176 -491l86.5 -242.5l85.5 -238.5h-188l-88.5 257.5l-85.5 249.5l-260 756h-17l-262 -749l-89 -255.5l-91 -258.5h-183zM323 358l16 142h722l13 -142h-751zM376 1671v129h150h164h164.5h149.5
v-129h-149.5h-164.5h-164h-150z" />
    <glyph glyph-name="amacron" unicode="&#x101;" horiz-adv-x="1037" 
d="M404 -20c-59.333 0 -111.332 11.5029 -155.999 34.5029s-79.5 55.833 -104.5 98.5s-37.5 94 -37.5 154c0 54 9.66699 99.5 29 136.5s44.666 67.167 75.999 90.5s66 41.5 104 54.5s76 22.833 114 29.5l311 54c2.66699 67.333 -6.16602 118.166 -26.499 152.499
s-48.833 57.5 -85.5 69.5s-77.334 18 -122.001 18c-22.667 0 -47 -1.66699 -73 -5s-53.5 -8.5 -82.5 -15.5s-59.5 -15.833 -91.5 -26.5s-65.667 -23.667 -101 -39l-9 151c24 10 51.167 19.667 81.5 29s62.666 17.833 96.999 25.5s69.5 13.5 105.5 17.5s72.333 6 109 6
c74 0 137.833 -11.667 191.5 -35s94.834 -60 123.501 -110s43 -115.333 43 -196v-117v-135v-129v-138.5v-154.5h-150l-9 141h-16c-20.667 -26.667 -46.667 -52.334 -78 -77.001s-67.5 -44.834 -108.5 -60.501s-85.833 -23.5 -134.5 -23.5zM452.001 117.003
c35.333 0 70.668 7.33398 106.001 22.001s68.5 36.5 99.5 65.5s57.167 65.5 78.5 109.5l1 214c-10.667 -6 -24.834 -12 -42.501 -18s-44 -12.833 -79 -20.5s-83.5 -17.167 -145.5 -28.5c-38 -6.66699 -71.667 -17.5 -101 -32.5s-52.5 -35.333 -69.5 -61
s-25.5 -56.834 -25.5 -93.501c0 -57.333 17.167 -97.833 51.5 -121.5s76.5 -35.5 126.5 -35.5zM216.003 1252v129h150h164h164.5h149.5v-129h-149.5h-164.5h-164h-150z" />
    <glyph glyph-name="Abreve" unicode="&#x102;" horiz-adv-x="1380" 
d="M59 0l87.5 242l87.5 241l177 490l86 238.5l78 214.5h238l77 -216l85 -238l176 -491l86.5 -242.5l85.5 -238.5h-188l-88.5 257.5l-85.5 249.5l-260 756h-17l-262 -749l-89 -255.5l-91 -258.5h-183zM323 358l16 142h722l13 -142h-751zM687 1563
c-104.667 0 -184.499 31.667 -239.499 95s-82.5 156.333 -82.5 279l122 5c0 -88.667 17.167 -153.5 51.5 -194.5s83.833 -61.5 148.5 -61.5c65.333 0 115.166 20.167 149.499 60.5s51.5 103.833 51.5 190.5h122c0 -82 -12.167 -150.833 -36.5 -206.5
s-60.5 -97.5 -108.5 -125.5s-107.333 -42 -178 -42z" />
    <glyph glyph-name="abreve" unicode="&#x103;" horiz-adv-x="1037" 
d="M404 -20c-59.333 0 -111.332 11.5029 -155.999 34.5029s-79.5 55.833 -104.5 98.5s-37.5 94 -37.5 154c0 54 9.66699 99.5 29 136.5s44.666 67.167 75.999 90.5s66 41.5 104 54.5s76 22.833 114 29.5l311 54c2.66699 67.333 -6.16602 118.166 -26.499 152.499
s-48.833 57.5 -85.5 69.5s-77.334 18 -122.001 18c-22.667 0 -47 -1.66699 -73 -5s-53.5 -8.5 -82.5 -15.5s-59.5 -15.833 -91.5 -26.5s-65.667 -23.667 -101 -39l-9 151c24 10 51.167 19.667 81.5 29s62.666 17.833 96.999 25.5s69.5 13.5 105.5 17.5s72.333 6 109 6
c74 0 137.833 -11.667 191.5 -35s94.834 -60 123.501 -110s43 -115.333 43 -196v-117v-135v-129v-138.5v-154.5h-150l-9 141h-16c-20.667 -26.667 -46.667 -52.334 -78 -77.001s-67.5 -44.834 -108.5 -60.501s-85.833 -23.5 -134.5 -23.5zM452.001 117.003
c35.333 0 70.668 7.33398 106.001 22.001s68.5 36.5 99.5 65.5s57.167 65.5 78.5 109.5l1 214c-10.667 -6 -24.834 -12 -42.501 -18s-44 -12.833 -79 -20.5s-83.5 -17.167 -145.5 -28.5c-38 -6.66699 -71.667 -17.5 -101 -32.5s-52.5 -35.333 -69.5 -61
s-25.5 -56.834 -25.5 -93.501c0 -57.333 17.167 -97.833 51.5 -121.5s76.5 -35.5 126.5 -35.5zM527.003 1144c-104.667 0 -184.499 31.5 -239.499 94.5s-82.5 156.167 -82.5 279.5l122 5c0 -88.667 17.167 -153.5 51.5 -194.5s83.833 -61.5 148.5 -61.5
c65.333 0 115.166 20.167 149.499 60.5s51.5 103.833 51.5 190.5h122c0 -82 -12.167 -150.833 -36.5 -206.5s-60.5 -97.5 -108.5 -125.5s-107.333 -42 -178 -42z" />
    <glyph glyph-name="Aogonek" unicode="&#x104;" horiz-adv-x="1380" 
d="M59 0l87.5 242l87.5 241l177 490l86 238.5l78 214.5h238l77 -216l85 -238l176 -491l86.5 -242.5l85.5 -238.5h-188l-88.5 257.5l-85.5 249.5l-260 756h-17l-262 -749l-89 -255.5l-91 -258.5h-183zM323 358l16 142h722l13 -142h-751zM1213 -416
c-48 0 -88.167 6.83203 -120.5 20.499s-56.833 32.667 -73.5 57s-25 52.833 -25 85.5c0 32 7.66699 63 23 93s38.166 58.833 68.499 86.5s67.5 54.5 111.5 80.5v36l87 7l38 -50c-54 -27.333 -100.167 -60.166 -138.5 -98.499s-57.5 -77.5 -57.5 -117.5
c0 -29.333 9.83301 -51.166 29.5 -65.499s45.834 -21.5 78.501 -21.5c22.667 0 42 1.66699 58 5s28.667 6.66602 38 9.99902v-111c-14.667 -4.66699 -32.5 -8.66699 -53.5 -12s-42.167 -5 -63.5 -5z" />
    <glyph glyph-name="aogonek" unicode="&#x105;" horiz-adv-x="1046" 
d="M404 -20c-59.333 0 -111.332 11.5029 -155.999 34.5029s-79.5 55.833 -104.5 98.5s-37.5 94 -37.5 154c0 54 9.66699 99.5 29 136.5s44.666 67.167 75.999 90.5s66 41.5 104 54.5s76 22.833 114 29.5l311 54c2.66699 67.333 -6.16602 118.166 -26.499 152.499
s-48.833 57.5 -85.5 69.5s-77.334 18 -122.001 18c-22.667 0 -47 -1.66699 -73 -5s-53.5 -8.5 -82.5 -15.5s-59.5 -15.833 -91.5 -26.5s-65.667 -23.667 -101 -39l-9 151c24 10 51.167 19.667 81.5 29s62.666 17.833 96.999 25.5s69.5 13.5 105.5 17.5s72.333 6 109 6
c74 0 137.833 -11.667 191.5 -35s94.834 -60 123.501 -110s43 -115.333 43 -196v-117v-135v-129v-138.5v-154.5h-150l-9 141h-16c-20.667 -26.667 -46.667 -52.334 -78 -77.001s-67.5 -44.834 -108.5 -60.501s-85.833 -23.5 -134.5 -23.5zM452.001 117.003
c35.333 0 70.668 7.33398 106.001 22.001s68.5 36.5 99.5 65.5s57.167 65.5 78.5 109.5l1 214c-10.667 -6 -24.834 -12 -42.501 -18s-44 -12.833 -79 -20.5s-83.5 -17.167 -145.5 -28.5c-38 -6.66699 -71.667 -17.5 -101 -32.5s-52.5 -35.333 -69.5 -61
s-25.5 -56.834 -25.5 -93.501c0 -57.333 17.167 -97.833 51.5 -121.5s76.5 -35.5 126.5 -35.5zM791.003 -415.996c-48 0 -88.167 6.83203 -120.5 20.499s-56.833 32.667 -73.5 57s-25 52.833 -25 85.5c0 32 7.66699 63 23 93s38.166 58.833 68.499 86.5
s67.5 54.5 111.5 80.5v39l75 7l50 -53c-54 -27.333 -100.167 -60.166 -138.5 -98.499s-57.5 -77.5 -57.5 -117.5c0 -29.333 9.83301 -51.166 29.5 -65.499s45.834 -21.5 78.501 -21.5c22.667 0 42 1.66699 58 5s28.667 6.66602 38 9.99902v-111
c-14.667 -4.66699 -32.5 -8.66699 -53.5 -12s-42.167 -5 -63.5 -5z" />
    <glyph glyph-name="Cacute" unicode="&#x106;" horiz-adv-x="1370" 
d="M831 -22c-112.667 0 -214.165 18.3301 -304.498 54.9971s-167.166 88.167 -230.499 154.5s-111.833 144.333 -145.5 234s-50.5 187.5 -50.5 293.5c0 144 29.667 271.5 89 382.5s141.666 197.833 246.999 260.5s228 94 368 94c47.333 0 93.333 -3.33301 138 -10
s87 -15.667 127 -27s77 -23.666 111 -36.999s63.333 -27 88 -41l-16 -174c-52 30.667 -102.5 55.5 -151.5 74.5s-97 32.833 -144 41.5s-92.833 13 -137.5 13c-102.667 0 -194 -23.333 -274 -70s-142.833 -113.167 -188.5 -199.5s-68.5 -189.166 -68.5 -308.499
c0 -79.333 11.833 -154 35.5 -224s59 -131.667 106 -185s105.333 -95.166 175 -125.499s150.834 -45.5 243.501 -45.5c34 0 68 2.16699 102 6.5s67.667 11.166 101 20.499s66.166 21.833 98.499 37.5s64.166 34.167 95.499 55.5l14 -172c-28 -18 -58.833 -33.667 -92.5 -47
s-69 -24.166 -106 -32.499s-74.833 -14.5 -113.5 -18.5s-77.334 -6 -116.001 -6zM635.002 1573l136.5 182l134.5 181l185 2l-108.5 -122.5l-107 -120.5l-106.5 -119z" />
    <glyph glyph-name="cacute" unicode="&#x107;" horiz-adv-x="989" 
d="M604 -20c-107.333 0 -198.504 22.6689 -273.504 68.002s-132.167 107 -171.5 185s-59 166 -59 264s18.833 186.167 56.5 264.5s92.667 140.166 165 185.499s160.5 68 264.5 68c38.667 0 76.834 -3.33301 114.501 -10s73.167 -15.5 106.5 -26.5s63 -23.833 89 -38.5
l-15 -152c-37.333 21.333 -72.5 37.833 -105.5 49.5s-63.667 19.667 -92 24s-54.5 6.5 -78.5 6.5c-101.333 0 -182.666 -33.167 -243.999 -99.5s-92 -155.833 -92 -268.5c0 -70.667 13.5 -134.5 40.5 -191.5s67.667 -102 122 -135s121.833 -49.5 202.5 -49.5
c28.667 0 57.167 2.66699 85.5 8s56.5 13.166 84.5 23.499s55 23.833 81 40.5l14 -151c-22 -12 -47.667 -22.833 -77 -32.5s-62.166 -17.5 -98.499 -23.5s-76.166 -9 -119.499 -9zM409.996 1154l136.5 200l134.5 198l185 4l-109 -135l-107 -133l-106 -132z" />
    <glyph glyph-name="Ccircumflex" unicode="&#x108;" horiz-adv-x="1370" 
d="M831 -22c-112.667 0 -214.165 18.3301 -304.498 54.9971s-167.166 88.167 -230.499 154.5s-111.833 144.333 -145.5 234s-50.5 187.5 -50.5 293.5c0 144 29.667 271.5 89 382.5s141.666 197.833 246.999 260.5s228 94 368 94c47.333 0 93.333 -3.33301 138 -10
s87 -15.667 127 -27s77 -23.666 111 -36.999s63.333 -27 88 -41l-16 -174c-52 30.667 -102.5 55.5 -151.5 74.5s-97 32.833 -144 41.5s-92.833 13 -137.5 13c-102.667 0 -194 -23.333 -274 -70s-142.833 -113.167 -188.5 -199.5s-68.5 -189.166 -68.5 -308.499
c0 -79.333 11.833 -154 35.5 -224s59 -131.667 106 -185s105.333 -95.166 175 -125.499s150.834 -45.5 243.501 -45.5c34 0 68 2.16699 102 6.5s67.667 11.166 101 20.499s66.166 21.833 98.499 37.5s64.166 34.167 95.499 55.5l14 -172c-28 -18 -58.833 -33.667 -92.5 -47
s-69 -24.166 -106 -32.499s-74.833 -14.5 -113.5 -18.5s-77.334 -6 -116.001 -6zM1009 1571l-125.5 147.5l-127.5 148.5h48l-125.5 -147l-125.5 -145h-134l135 179.5l136 181.5h181l136 -181.5l136 -180.5z" />
    <glyph glyph-name="ccircumflex" unicode="&#x109;" horiz-adv-x="989" 
d="M604 -20c-107.333 0 -198.504 22.6689 -273.504 68.002s-132.167 107 -171.5 185s-59 166 -59 264s18.833 186.167 56.5 264.5s92.667 140.166 165 185.499s160.5 68 264.5 68c38.667 0 76.834 -3.33301 114.501 -10s73.167 -15.5 106.5 -26.5s63 -23.833 89 -38.5
l-15 -152c-37.333 21.333 -72.5 37.833 -105.5 49.5s-63.667 19.667 -92 24s-54.5 6.5 -78.5 6.5c-101.333 0 -182.666 -33.167 -243.999 -99.5s-92 -155.833 -92 -268.5c0 -70.667 13.5 -134.5 40.5 -191.5s67.667 -102 122 -135s121.833 -49.5 202.5 -49.5
c28.667 0 57.167 2.66699 85.5 8s56.5 13.166 84.5 23.499s55 23.833 81 40.5l14 -151c-22 -12 -47.667 -22.833 -77 -32.5s-62.166 -17.5 -98.499 -23.5s-76.166 -9 -119.499 -9zM783.996 1152l-124 161.5l-126 161.5h44l-124.5 -160.5l-125.5 -158.5h-134l135 197.5
l136 198.5h181l136 -198.5l136 -199.5z" />
    <glyph glyph-name="Cdotaccent" unicode="&#x10a;" horiz-adv-x="1370" 
d="M831 -22c-112.667 0 -214.165 18.3301 -304.498 54.9971s-167.166 88.167 -230.499 154.5s-111.833 144.333 -145.5 234s-50.5 187.5 -50.5 293.5c0 144 29.667 271.5 89 382.5s141.666 197.833 246.999 260.5s228 94 368 94c47.333 0 93.333 -3.33301 138 -10
s87 -15.667 127 -27s77 -23.666 111 -36.999s63.333 -27 88 -41l-16 -174c-52 30.667 -102.5 55.5 -151.5 74.5s-97 32.833 -144 41.5s-92.833 13 -137.5 13c-102.667 0 -194 -23.333 -274 -70s-142.833 -113.167 -188.5 -199.5s-68.5 -189.166 -68.5 -308.499
c0 -79.333 11.833 -154 35.5 -224s59 -131.667 106 -185s105.333 -95.166 175 -125.499s150.834 -45.5 243.501 -45.5c34 0 68 2.16699 102 6.5s67.667 11.166 101 20.499s66.166 21.833 98.499 37.5s64.166 34.167 95.499 55.5l14 -172c-28 -18 -58.833 -33.667 -92.5 -47
s-69 -24.166 -106 -32.499s-74.833 -14.5 -113.5 -18.5s-77.334 -6 -116.001 -6zM780.002 1626c-36 0 -65.333 9.83301 -88 29.5s-34 50.5 -34 92.5c0 40 11.333 70.333 34 91s52.667 31 90 31c36.667 0 66 -10.667 88 -32s33 -51.333 33 -90c0 -42 -11 -72.833 -33 -92.5
s-52 -29.5 -90 -29.5z" />
    <glyph glyph-name="cdotaccent" unicode="&#x10b;" horiz-adv-x="989" 
d="M604 -20c-107.333 0 -198.504 22.6689 -273.504 68.002s-132.167 107 -171.5 185s-59 166 -59 264s18.833 186.167 56.5 264.5s92.667 140.166 165 185.499s160.5 68 264.5 68c38.667 0 76.834 -3.33301 114.501 -10s73.167 -15.5 106.5 -26.5s63 -23.833 89 -38.5
l-15 -152c-37.333 21.333 -72.5 37.833 -105.5 49.5s-63.667 19.667 -92 24s-54.5 6.5 -78.5 6.5c-101.333 0 -182.666 -33.167 -243.999 -99.5s-92 -155.833 -92 -268.5c0 -70.667 13.5 -134.5 40.5 -191.5s67.667 -102 122 -135s121.833 -49.5 202.5 -49.5
c28.667 0 57.167 2.66699 85.5 8s56.5 13.166 84.5 23.499s55 23.833 81 40.5l14 -151c-22 -12 -47.667 -22.833 -77 -32.5s-62.166 -17.5 -98.499 -23.5s-76.166 -9 -119.499 -9zM554.996 1221c-36 0 -65.333 10 -88 30s-34 50.667 -34 92c0 40.667 11.333 71.167 34 91.5
s52.667 30.5 90 30.5c36.667 0 66 -10.5 88 -31.5s33 -51.167 33 -90.5c0 -41.333 -11 -72 -33 -92s-52 -30 -90 -30z" />
    <glyph glyph-name="Ccaron" unicode="&#x10c;" horiz-adv-x="1370" 
d="M831 -22c-112.667 0 -214.165 18.3301 -304.498 54.9971s-167.166 88.167 -230.499 154.5s-111.833 144.333 -145.5 234s-50.5 187.5 -50.5 293.5c0 144 29.667 271.5 89 382.5s141.666 197.833 246.999 260.5s228 94 368 94c47.333 0 93.333 -3.33301 138 -10
s87 -15.667 127 -27s77 -23.666 111 -36.999s63.333 -27 88 -41l-16 -174c-52 30.667 -102.5 55.5 -151.5 74.5s-97 32.833 -144 41.5s-92.833 13 -137.5 13c-102.667 0 -194 -23.333 -274 -70s-142.833 -113.167 -188.5 -199.5s-68.5 -189.166 -68.5 -308.499
c0 -79.333 11.833 -154 35.5 -224s59 -131.667 106 -185s105.333 -95.166 175 -125.499s150.834 -45.5 243.501 -45.5c34 0 68 2.16699 102 6.5s67.667 11.166 101 20.499s66.166 21.833 98.499 37.5s64.166 34.167 95.499 55.5l14 -172c-28 -18 -58.833 -33.667 -92.5 -47
s-69 -24.166 -106 -32.499s-74.833 -14.5 -113.5 -18.5s-77.334 -6 -116.001 -6zM693.002 1572l-136 182.5l-136 180.5l134 2l125.5 -147l127.5 -149h-48l126 147.5l125 144.5h134l-134.5 -179l-136.5 -182h-181z" />
    <glyph glyph-name="ccaron" unicode="&#x10d;" horiz-adv-x="989" 
d="M604 -20c-107.333 0 -198.504 22.6689 -273.504 68.002s-132.167 107 -171.5 185s-59 166 -59 264s18.833 186.167 56.5 264.5s92.667 140.166 165 185.499s160.5 68 264.5 68c38.667 0 76.834 -3.33301 114.501 -10s73.167 -15.5 106.5 -26.5s63 -23.833 89 -38.5
l-15 -152c-37.333 21.333 -72.5 37.833 -105.5 49.5s-63.667 19.667 -92 24s-54.5 6.5 -78.5 6.5c-101.333 0 -182.666 -33.167 -243.999 -99.5s-92 -155.833 -92 -268.5c0 -70.667 13.5 -134.5 40.5 -191.5s67.667 -102 122 -135s121.833 -49.5 202.5 -49.5
c28.667 0 57.167 2.66699 85.5 8s56.5 13.166 84.5 23.499s55 23.833 81 40.5l14 -151c-22 -12 -47.667 -22.833 -77 -32.5s-62.166 -17.5 -98.499 -23.5s-76.166 -9 -119.499 -9zM467.996 1143l-136 199.5l-136 198.5l134 3l125 -161l125 -162h-44l125 160l125 159h134
l-135 -197.5l-136 -199.5h-181z" />
    <glyph glyph-name="Dcaron" unicode="&#x10e;" horiz-adv-x="1473" 
d="M185 0v229v242v478v246.5v230.5h172h163h166c110 0 207.667 -15.833 293 -47.5s157.166 -78 215.499 -139s102.666 -135.167 132.999 -222.5s45.5 -186.666 45.5 -297.999c0 -100.667 -13.333 -194.5 -40 -281.5s-69.167 -163.333 -127.5 -229
s-134.666 -116.834 -228.999 -153.501s-209.166 -55 -344.499 -55h-159h-142.5h-145.5zM366 151h267c136 0 244.333 24.833 325 74.5s138.667 117.667 174 204s53 183.833 53 292.5c0 83.333 -10.5 159 -31.5 227s-53 126.333 -96 175s-98 86 -165 112
s-146.167 39 -237.5 39h-289v-171.5v-187.5v-410v-185v-170zM613 1572l-136 182.5l-136 180.5l134 2l125.5 -147l127.5 -149h-48l126 147.5l125 144.5h134l-134.5 -179l-136.5 -182h-181z" />
    <glyph glyph-name="dcaron" unicode="&#x10f;" horiz-adv-x="1177" 
d="M525 -22c-94.667 0 -173.333 24.165 -236 72.498s-109.667 112 -141 191s-47 164.833 -47 257.5c0 98.667 16.667 187 50 265s81.833 139.5 145.5 184.5s140.834 67.5 231.501 67.5c46 0 88.167 -6.16699 126.5 -18.5s72.166 -28.666 101.499 -48.999
s53.666 -42.833 72.999 -67.5h17v106v244.5v232.5l165 20v-242.5v-254.5v-549v-225v-213h-144l-8 136h-16c-26 -34 -55 -62.667 -87 -86s-67.167 -41.166 -105.5 -53.499s-80.166 -18.5 -125.499 -18.5zM575.001 125.998c41.333 0 78.666 6.5 111.999 19.5
s63.166 31.5 89.499 55.5s49.5 53 69.5 87v441c-20.667 30 -45.167 55.167 -73.5 75.5s-59.166 35.666 -92.499 45.999s-67.333 15.5 -102 15.5c-70 0 -127.667 -16.667 -173 -50s-79.166 -77.833 -101.499 -133.5s-33.5 -117.167 -33.5 -184.5
c0 -64.667 10.667 -125.167 32 -181.5s54.333 -102.166 99 -137.499s102.667 -53 174 -53zM1172 1088c14 33.333 25.6689 68.333 35.002 105s16.166 72 20.499 106s6.5 63.667 6.5 89v80v78l73 7c23.333 -2 41.166 -10.833 53.499 -26.5s18.5 -38.167 18.5 -67.5
c0 -32 -3.33301 -65.167 -10 -99.5s-15.834 -68 -27.501 -101s-24.667 -64 -39 -93s-29.166 -53.833 -44.499 -74.5z" />
    <glyph glyph-name="Dcroat" unicode="&#x110;" horiz-adv-x="1473" 
d="M-23 632v132h178.5h160.5h93h161h178v-132h-178h-161h-93h-160.5h-178.5zM185 0v229v242v478v246.5v230.5h172h163h166c110 0 207.667 -15.833 293 -47.5s157.166 -78 215.499 -139s102.666 -135.167 132.999 -222.5s45.5 -186.666 45.5 -297.999
c0 -100.667 -13.333 -194.5 -40 -281.5s-69.167 -163.333 -127.5 -229s-134.666 -116.834 -228.999 -153.501s-209.166 -55 -344.499 -55h-159h-142.5h-145.5zM366 151h267c136 0 244.333 24.833 325 74.5s138.667 117.667 174 204s53 183.833 53 292.5
c0 83.333 -10.5 159 -31.5 227s-53 126.333 -96 175s-98 86 -165 112s-146.167 39 -237.5 39h-289v-171.5v-187.5v-410v-185v-170z" />
    <glyph glyph-name="dcroat" unicode="&#x111;" horiz-adv-x="1155" 
d="M490 1190v118h165.5h147.5h87h148h165v-118h-165h-148h-87h-147.5h-165.5zM525 -22c-94.667 0 -173.333 24.165 -236 72.498s-109.667 112 -141 191s-47 164.833 -47 257.5c0 98.667 16.667 187 50 265s81.833 139.5 145.5 184.5s140.834 67.5 231.501 67.5
c46 0 88.167 -6.16699 126.5 -18.5s72.166 -28.666 101.499 -48.999s53.666 -42.833 72.999 -67.5h17v106v244.5v232.5l165 20v-242.5v-254.5v-549v-225v-213h-144l-8 136h-16c-26 -34 -55 -62.667 -87 -86s-67.167 -41.166 -105.5 -53.499s-80.166 -18.5 -125.499 -18.5z
M575.001 125.998c41.333 0 78.666 6.5 111.999 19.5s63.166 31.5 89.499 55.5s49.5 53 69.5 87v441c-20.667 30 -45.167 55.167 -73.5 75.5s-59.166 35.666 -92.499 45.999s-67.333 15.5 -102 15.5c-70 0 -127.667 -16.667 -173 -50s-79.166 -77.833 -101.499 -133.5
s-33.5 -117.167 -33.5 -184.5c0 -64.667 10.667 -125.167 32 -181.5s54.333 -102.166 99 -137.499s102.667 -53 174 -53z" />
    <glyph glyph-name="Emacron" unicode="&#x112;" horiz-adv-x="1187" 
d="M185 0v229v242v479v245v231h886v-155h-214.5h-270.5h-324l100 129v-231.5v-244.5v-426v-241.5v-229.5l-90 128h330h247.5h223.5v-155h-888zM323 647v151h277h238h193v-151h-197.5h-234.5h-276zM317 1671v129h150h164h164.5h149.5v-129h-149.5h-164.5h-164h-150z" />
    <glyph glyph-name="emacron" unicode="&#x113;" horiz-adv-x="1055" 
d="M620 -22c-118.667 0 -216.332 22.667 -292.999 68s-133.667 107.333 -171 186s-56 168.667 -56 270c0 100 18.333 188.667 55 266s89.334 137.833 158.001 181.5s150.667 65.5 246 65.5c84 0 156.167 -16.333 216.5 -49s106.833 -80.5 139.5 -143.5
s49 -140.833 49 -233.5c0 -24.667 -0.5 -46.834 -1.5 -66.501s-3.16699 -39.5 -6.5 -59.5l-145 73c1.33301 10.667 2.16602 20.834 2.49902 30.501s0.5 19.167 0.5 28.5c0 94 -23.333 165.5 -70 214.5s-107.667 73.5 -183 73.5c-60.667 0 -112.834 -15.5 -156.501 -46.5
s-77.5 -73.833 -101.5 -128.5s-36 -117 -36 -187v-23c0 -77.333 13.333 -144 40 -200s67.167 -99.167 121.5 -129.5s123.5 -45.5 207.5 -45.5c31.333 0 64.5 2.5 99.5 7.5s69.667 12.833 104 23.5s67.166 24.667 98.499 42l7 -149
c-25.333 -14 -54.666 -26.167 -87.999 -36.5s-70 -18.333 -110 -24s-82.333 -8.5 -127 -8.5zM169.002 463v118l686 6l101 -38v-86h-787zM241.002 1252v129h150h164h164.5h149.5v-129h-149.5h-164.5h-164h-150z" />
    <glyph glyph-name="Ebreve" unicode="&#x114;" horiz-adv-x="1187" 
d="M185 0v229v242v479v245v231h886v-155h-214.5h-270.5h-324l100 129v-231.5v-244.5v-426v-241.5v-229.5l-90 128h330h247.5h223.5v-155h-888zM323 647v151h277h238h193v-151h-197.5h-234.5h-276zM628 1563c-104.667 0 -184.499 31.667 -239.499 95s-82.5 156.333 -82.5 279
l122 5c0 -88.667 17.167 -153.5 51.5 -194.5s83.833 -61.5 148.5 -61.5c65.333 0 115.166 20.167 149.499 60.5s51.5 103.833 51.5 190.5h122c0 -82 -12.167 -150.833 -36.5 -206.5s-60.5 -97.5 -108.5 -125.5s-107.333 -42 -178 -42z" />
    <glyph glyph-name="ebreve" unicode="&#x115;" horiz-adv-x="1055" 
d="M620 -22c-118.667 0 -216.332 22.667 -292.999 68s-133.667 107.333 -171 186s-56 168.667 -56 270c0 100 18.333 188.667 55 266s89.334 137.833 158.001 181.5s150.667 65.5 246 65.5c84 0 156.167 -16.333 216.5 -49s106.833 -80.5 139.5 -143.5
s49 -140.833 49 -233.5c0 -24.667 -0.5 -46.834 -1.5 -66.501s-3.16699 -39.5 -6.5 -59.5l-145 73c1.33301 10.667 2.16602 20.834 2.49902 30.501s0.5 19.167 0.5 28.5c0 94 -23.333 165.5 -70 214.5s-107.667 73.5 -183 73.5c-60.667 0 -112.834 -15.5 -156.501 -46.5
s-77.5 -73.833 -101.5 -128.5s-36 -117 -36 -187v-23c0 -77.333 13.333 -144 40 -200s67.167 -99.167 121.5 -129.5s123.5 -45.5 207.5 -45.5c31.333 0 64.5 2.5 99.5 7.5s69.667 12.833 104 23.5s67.166 24.667 98.499 42l7 -149
c-25.333 -14 -54.666 -26.167 -87.999 -36.5s-70 -18.333 -110 -24s-82.333 -8.5 -127 -8.5zM169.002 463v118l686 6l101 -38v-86h-787zM552.002 1144c-104.667 0 -184.499 31.5 -239.499 94.5s-82.5 156.167 -82.5 279.5l122 5c0 -88.667 17.167 -153.5 51.5 -194.5
s83.833 -61.5 148.5 -61.5c65.333 0 115.166 20.167 149.499 60.5s51.5 103.833 51.5 190.5h122c0 -82 -12.167 -150.833 -36.5 -206.5s-60.5 -97.5 -108.5 -125.5s-107.333 -42 -178 -42z" />
    <glyph glyph-name="Edotaccent" unicode="&#x116;" horiz-adv-x="1187" 
d="M185 0v229v242v479v245v231h886v-155h-214.5h-270.5h-324l100 129v-231.5v-244.5v-426v-241.5v-229.5l-90 128h330h247.5h223.5v-155h-888zM323 647v151h277h238h193v-151h-197.5h-234.5h-276zM628 1626c-36 0 -65.333 9.83301 -88 29.5s-34 50.5 -34 92.5
c0 40 11.333 70.333 34 91s52.667 31 90 31c36.667 0 66 -10.667 88 -32s33 -51.333 33 -90c0 -42 -11 -72.833 -33 -92.5s-52 -29.5 -90 -29.5z" />
    <glyph glyph-name="edotaccent" unicode="&#x117;" horiz-adv-x="1055" 
d="M620 -22c-118.667 0 -216.332 22.667 -292.999 68s-133.667 107.333 -171 186s-56 168.667 -56 270c0 100 18.333 188.667 55 266s89.334 137.833 158.001 181.5s150.667 65.5 246 65.5c84 0 156.167 -16.333 216.5 -49s106.833 -80.5 139.5 -143.5
s49 -140.833 49 -233.5c0 -24.667 -0.5 -46.834 -1.5 -66.501s-3.16699 -39.5 -6.5 -59.5l-145 73c1.33301 10.667 2.16602 20.834 2.49902 30.501s0.5 19.167 0.5 28.5c0 94 -23.333 165.5 -70 214.5s-107.667 73.5 -183 73.5c-60.667 0 -112.834 -15.5 -156.501 -46.5
s-77.5 -73.833 -101.5 -128.5s-36 -117 -36 -187v-23c0 -77.333 13.333 -144 40 -200s67.167 -99.167 121.5 -129.5s123.5 -45.5 207.5 -45.5c31.333 0 64.5 2.5 99.5 7.5s69.667 12.833 104 23.5s67.166 24.667 98.499 42l7 -149
c-25.333 -14 -54.666 -26.167 -87.999 -36.5s-70 -18.333 -110 -24s-82.333 -8.5 -127 -8.5zM169.002 463v118l686 6l101 -38v-86h-787zM553.002 1221c-36 0 -65.333 10 -88 30s-34 50.667 -34 92c0 40.667 11.333 71.167 34 91.5s52.667 30.5 90 30.5
c36.667 0 66 -10.5 88 -31.5s33 -51.167 33 -90.5c0 -41.333 -11 -72 -33 -92s-52 -30 -90 -30z" />
    <glyph glyph-name="Eogonek" unicode="&#x118;" horiz-adv-x="1187" 
d="M185 0v229v242v479v245v231h886v-155h-214.5h-270.5h-324l100 129v-231.5v-244.5v-426v-241.5v-229.5l-90 128h330h247.5h223.5v-155h-888zM323 647v151h277h238h193v-151h-197.5h-234.5h-276zM963 -416c-48 0 -88.167 6.83203 -120.5 20.499s-56.833 32.667 -73.5 57
s-25 52.833 -25 85.5c0 32 7.66699 63 23 93s38.166 58.833 68.499 86.5s67.5 54.5 111.5 80.5v36l87 7l38 -50c-54 -27.333 -100.167 -60.166 -138.5 -98.499s-57.5 -77.5 -57.5 -117.5c0 -29.333 9.83301 -51.166 29.5 -65.499s45.834 -21.5 78.501 -21.5
c22.667 0 42 1.66699 58 5s28.667 6.66602 38 9.99902v-111c-14.667 -4.66699 -32.5 -8.66699 -53.5 -12s-42.167 -5 -63.5 -5z" />
    <glyph glyph-name="eogonek" unicode="&#x119;" horiz-adv-x="1055" 
d="M620 -22c-118.667 0 -216.332 22.667 -292.999 68s-133.667 107.333 -171 186s-56 168.667 -56 270c0 100 18.333 188.667 55 266s89.334 137.833 158.001 181.5s150.667 65.5 246 65.5c84 0 156.167 -16.333 216.5 -49s106.833 -80.5 139.5 -143.5
s49 -140.833 49 -233.5c0 -24.667 -0.5 -46.834 -1.5 -66.501s-3.16699 -39.5 -6.5 -59.5l-145 73c1.33301 10.667 2.16602 20.834 2.49902 30.501s0.5 19.167 0.5 28.5c0 94 -23.333 165.5 -70 214.5s-107.667 73.5 -183 73.5c-60.667 0 -112.834 -15.5 -156.501 -46.5
s-77.5 -73.833 -101.5 -128.5s-36 -117 -36 -187v-23c0 -77.333 13.333 -144 40 -200s67.167 -99.167 121.5 -129.5s123.5 -45.5 207.5 -45.5c31.333 0 64.5 2.5 99.5 7.5s69.667 12.833 104 23.5s67.166 24.667 98.499 42l7 -149
c-25.333 -14 -54.666 -26.167 -87.999 -36.5s-70 -18.333 -110 -24s-82.333 -8.5 -127 -8.5zM169.002 463v118l686 6l101 -38v-86h-787zM668.002 -416c-48 0 -88.167 6.83203 -120.5 20.499s-56.833 32.667 -73.5 57s-25 52.833 -25 85.5c0 32 7.66699 63 23 93
s38.166 58.833 68.499 86.5s67.5 54.5 111.5 80.5v36l87 7l38 -50c-54 -27.333 -100.167 -60.166 -138.5 -98.499s-57.5 -77.5 -57.5 -117.5c0 -29.333 9.83301 -51.166 29.5 -65.499s45.834 -21.5 78.501 -21.5c22.667 0 42 1.66699 58 5s28.667 6.66602 38 9.99902v-111
c-14.667 -4.66699 -32.5 -8.66699 -53.5 -12s-42.167 -5 -63.5 -5z" />
    <glyph glyph-name="Ecaron" unicode="&#x11a;" horiz-adv-x="1187" 
d="M185 0v229v242v479v245v231h886v-155h-214.5h-270.5h-324l100 129v-231.5v-244.5v-426v-241.5v-229.5l-90 128h330h247.5h223.5v-155h-888zM323 647v151h277h238h193v-151h-197.5h-234.5h-276zM541 1572l-136 182.5l-136 180.5l134 2l125.5 -147l127.5 -149h-48
l126 147.5l125 144.5h134l-134.5 -179l-136.5 -182h-181z" />
    <glyph glyph-name="ecaron" unicode="&#x11b;" horiz-adv-x="1055" 
d="M620 -22c-118.667 0 -216.332 22.667 -292.999 68s-133.667 107.333 -171 186s-56 168.667 -56 270c0 100 18.333 188.667 55 266s89.334 137.833 158.001 181.5s150.667 65.5 246 65.5c84 0 156.167 -16.333 216.5 -49s106.833 -80.5 139.5 -143.5
s49 -140.833 49 -233.5c0 -24.667 -0.5 -46.834 -1.5 -66.501s-3.16699 -39.5 -6.5 -59.5l-145 73c1.33301 10.667 2.16602 20.834 2.49902 30.501s0.5 19.167 0.5 28.5c0 94 -23.333 165.5 -70 214.5s-107.667 73.5 -183 73.5c-60.667 0 -112.834 -15.5 -156.501 -46.5
s-77.5 -73.833 -101.5 -128.5s-36 -117 -36 -187v-23c0 -77.333 13.333 -144 40 -200s67.167 -99.167 121.5 -129.5s123.5 -45.5 207.5 -45.5c31.333 0 64.5 2.5 99.5 7.5s69.667 12.833 104 23.5s67.166 24.667 98.499 42l7 -149
c-25.333 -14 -54.666 -26.167 -87.999 -36.5s-70 -18.333 -110 -24s-82.333 -8.5 -127 -8.5zM169.002 463v118l686 6l101 -38v-86h-787zM465.002 1143l-136 199.5l-136 198.5l134 3l125 -161l125 -162h-44l125 160l125 159h134l-135 -197.5l-136 -199.5h-181z" />
    <glyph glyph-name="Gcircumflex" unicode="&#x11c;" horiz-adv-x="1466" 
d="M860 -21c-124 0 -233.163 18.498 -327.496 55.498s-173.5 88.833 -237.5 155.5s-112.5 144.834 -145.5 234.501s-49.5 186.834 -49.5 291.501c0 143.333 29.5 270.5 88.5 381.5s142.333 197.833 250 260.5s234.5 94 380.5 94c50 0 98.5 -3.33301 145.5 -10
s91.333 -15.834 133 -27.501s80 -24.167 115 -37.5s65.167 -26.666 90.5 -39.999l-16 -174c-55.333 30.667 -109 55.5 -161 74.5s-102.667 32.833 -152 41.5s-97.333 13 -144 13c-79.333 0 -152.166 -13 -218.499 -39s-123.833 -64 -172.5 -114
s-86.167 -110.667 -112.5 -182s-39.5 -152 -39.5 -242c0 -81.333 11.5 -157.333 34.5 -228s58.333 -132.667 106 -186s108.5 -94.833 182.5 -124.5s161.667 -44.5 263 -44.5c37.333 0 74.666 1.83301 111.999 5.5s74.166 9.66699 110.499 18s72.166 19 107.499 32
s69.666 28.5 102.999 46.5l21 -170c-22.667 -10.667 -50.834 -21 -84.501 -31s-71.167 -19.167 -112.5 -27.5s-84.833 -14.833 -130.5 -19.5s-92.167 -7 -139.5 -7zM1156 60.998v185v158v166v146h171v-146v-166v-157.5v-182.5zM1024 1571l-125.5 147.5l-127.5 148.5h48
l-125.5 -147l-125.5 -145h-134l135 179.5l136 181.5h181l136 -181.5l136 -180.5z" />
    <glyph glyph-name="gcircumflex" unicode="&#x11d;" horiz-adv-x="1084" 
d="M488 -406c-74 0 -135.666 6.66699 -184.999 20s-88.333 31.333 -117 54s-49.167 47.834 -61.5 75.501s-18.5 55.834 -18.5 84.501c0 44.667 11 82.167 33 112.5s47.667 54.166 77 71.499s55 29.333 77 36v14c-11.333 3.33301 -25 10.5 -41 21.5s-30.333 26.5 -43 46.5
s-19 45.333 -19 76c0 23.333 4.5 45 13.5 65s22.833 37.667 41.5 53s41.667 28.666 69 39.999v15c-15.333 5.33301 -35 15.333 -59 30s-48.167 34.5 -72.5 59.5s-44.833 55.833 -61.5 92.5s-25 80 -25 130c0 64.667 15.833 121.334 47.5 170.001s76.667 86.5 135 113.5
s126.833 40.5 205.5 40.5c32 0 59.833 -1.66699 83.5 -5l73.5 -10.5c25.333 -3.66699 56.333 -5.5 93 -5.5h309v-124h-193h-189l47 78c58.667 -28 100.834 -65.167 126.501 -111.5s38.5 -98.5 38.5 -156.5c0 -65.333 -13.333 -120.5 -40 -165.5
s-64.334 -81.333 -113.001 -109s-105.334 -48.834 -170.001 -63.501c-70 -16.667 -122 -31.834 -156 -45.501s-51 -34.167 -51 -61.5c0 -19.333 7 -34.333 21 -45s36.167 -18.334 66.5 -23.001s70.5 -7 120.5 -7h43c92 0 167.333 -7.16699 226 -21.5
s102.167 -38.166 130.5 -71.499s42.5 -77.666 42.5 -132.999c0 -57.333 -15 -107.5 -45 -150.5s-70 -78.5 -120 -106.5s-104.5 -48.833 -163.5 -62.5s-117.833 -20.5 -176.5 -20.5zM502.001 -272c73.333 0 134.832 10.166 184.499 30.499s86.834 44.5 111.501 72.5
s37 54 37 78c0 25.333 -7.33301 46.333 -22 63s-42 29.167 -82 37.5s-98 12.5 -174 12.5h-37c-42.667 -0.666992 -84 -7.66699 -124 -21s-72.833 -31.833 -98.5 -55.5s-38.5 -51.167 -38.5 -82.5c0 -17.333 4.16699 -34.166 12.5 -50.499s22 -30.833 41 -43.5
s44 -22.667 75 -30s69.167 -11 114.5 -11zM473 458.999c24.667 4 51.166 10.1689 79.499 18.502s55 20.166 80 35.499s45.5 35.666 61.5 60.999s24 57.333 24 96c0 48 -12.333 87 -37 117s-55.167 52.167 -91.5 66.5s-71.5 21.5 -105.5 21.5
c-40.667 0 -78.667 -7.16699 -114 -21.5s-64 -36 -86 -65s-33 -65.5 -33 -109.5s10.833 -81.333 32.5 -112s49.334 -55 83.001 -73s69.167 -29.667 106.5 -35zM740.999 1152l-124 161.5l-126 161.5h44l-124.5 -160.5l-125.5 -158.5h-134l135 197.5l136 198.5h181l136 -198.5
l136 -199.5z" />
    <glyph glyph-name="Gbreve" unicode="&#x11e;" horiz-adv-x="1466" 
d="M860 -21c-124 0 -233.163 18.498 -327.496 55.498s-173.5 88.833 -237.5 155.5s-112.5 144.834 -145.5 234.501s-49.5 186.834 -49.5 291.501c0 143.333 29.5 270.5 88.5 381.5s142.333 197.833 250 260.5s234.5 94 380.5 94c50 0 98.5 -3.33301 145.5 -10
s91.333 -15.834 133 -27.501s80 -24.167 115 -37.5s65.167 -26.666 90.5 -39.999l-16 -174c-55.333 30.667 -109 55.5 -161 74.5s-102.667 32.833 -152 41.5s-97.333 13 -144 13c-79.333 0 -152.166 -13 -218.499 -39s-123.833 -64 -172.5 -114
s-86.167 -110.667 -112.5 -182s-39.5 -152 -39.5 -242c0 -81.333 11.5 -157.333 34.5 -228s58.333 -132.667 106 -186s108.5 -94.833 182.5 -124.5s161.667 -44.5 263 -44.5c37.333 0 74.666 1.83301 111.999 5.5s74.166 9.66699 110.499 18s72.166 19 107.499 32
s69.666 28.5 102.999 46.5l21 -170c-22.667 -10.667 -50.834 -21 -84.501 -31s-71.167 -19.167 -112.5 -27.5s-84.833 -14.833 -130.5 -19.5s-92.167 -7 -139.5 -7zM1156 60.998v185v158v166v146h171v-146v-166v-157.5v-182.5zM795.004 1563
c-104.667 0 -184.499 31.667 -239.499 95s-82.5 156.333 -82.5 279l122 5c0 -88.667 17.167 -153.5 51.5 -194.5s83.833 -61.5 148.5 -61.5c65.333 0 115.166 20.167 149.499 60.5s51.5 103.833 51.5 190.5h122c0 -82 -12.167 -150.833 -36.5 -206.5
s-60.5 -97.5 -108.5 -125.5s-107.333 -42 -178 -42z" />
    <glyph glyph-name="gbreve" unicode="&#x11f;" horiz-adv-x="1084" 
d="M488 -406c-74 0 -135.666 6.66699 -184.999 20s-88.333 31.333 -117 54s-49.167 47.834 -61.5 75.501s-18.5 55.834 -18.5 84.501c0 44.667 11 82.167 33 112.5s47.667 54.166 77 71.499s55 29.333 77 36v14c-11.333 3.33301 -25 10.5 -41 21.5s-30.333 26.5 -43 46.5
s-19 45.333 -19 76c0 23.333 4.5 45 13.5 65s22.833 37.667 41.5 53s41.667 28.666 69 39.999v15c-15.333 5.33301 -35 15.333 -59 30s-48.167 34.5 -72.5 59.5s-44.833 55.833 -61.5 92.5s-25 80 -25 130c0 64.667 15.833 121.334 47.5 170.001s76.667 86.5 135 113.5
s126.833 40.5 205.5 40.5c32 0 59.833 -1.66699 83.5 -5l73.5 -10.5c25.333 -3.66699 56.333 -5.5 93 -5.5h309v-124h-193h-189l47 78c58.667 -28 100.834 -65.167 126.501 -111.5s38.5 -98.5 38.5 -156.5c0 -65.333 -13.333 -120.5 -40 -165.5
s-64.334 -81.333 -113.001 -109s-105.334 -48.834 -170.001 -63.501c-70 -16.667 -122 -31.834 -156 -45.501s-51 -34.167 -51 -61.5c0 -19.333 7 -34.333 21 -45s36.167 -18.334 66.5 -23.001s70.5 -7 120.5 -7h43c92 0 167.333 -7.16699 226 -21.5
s102.167 -38.166 130.5 -71.499s42.5 -77.666 42.5 -132.999c0 -57.333 -15 -107.5 -45 -150.5s-70 -78.5 -120 -106.5s-104.5 -48.833 -163.5 -62.5s-117.833 -20.5 -176.5 -20.5zM502.001 -272c73.333 0 134.832 10.166 184.499 30.499s86.834 44.5 111.501 72.5
s37 54 37 78c0 25.333 -7.33301 46.333 -22 63s-42 29.167 -82 37.5s-98 12.5 -174 12.5h-37c-42.667 -0.666992 -84 -7.66699 -124 -21s-72.833 -31.833 -98.5 -55.5s-38.5 -51.167 -38.5 -82.5c0 -17.333 4.16699 -34.166 12.5 -50.499s22 -30.833 41 -43.5
s44 -22.667 75 -30s69.167 -11 114.5 -11zM473 458.999c24.667 4 51.166 10.1689 79.499 18.502s55 20.166 80 35.499s45.5 35.666 61.5 60.999s24 57.333 24 96c0 48 -12.333 87 -37 117s-55.167 52.167 -91.5 66.5s-71.5 21.5 -105.5 21.5
c-40.667 0 -78.667 -7.16699 -114 -21.5s-64 -36 -86 -65s-33 -65.5 -33 -109.5s10.833 -81.333 32.5 -112s49.334 -55 83.001 -73s69.167 -29.667 106.5 -35zM511.999 1144c-104.667 0 -184.499 31.5 -239.499 94.5s-82.5 156.167 -82.5 279.5l122 5
c0 -88.667 17.167 -153.5 51.5 -194.5s83.833 -61.5 148.5 -61.5c65.333 0 115.166 20.167 149.499 60.5s51.5 103.833 51.5 190.5h122c0 -82 -12.167 -150.833 -36.5 -206.5s-60.5 -97.5 -108.5 -125.5s-107.333 -42 -178 -42z" />
    <glyph glyph-name="Gdotaccent" unicode="&#x120;" horiz-adv-x="1466" 
d="M860 -21c-124 0 -233.163 18.498 -327.496 55.498s-173.5 88.833 -237.5 155.5s-112.5 144.834 -145.5 234.501s-49.5 186.834 -49.5 291.501c0 143.333 29.5 270.5 88.5 381.5s142.333 197.833 250 260.5s234.5 94 380.5 94c50 0 98.5 -3.33301 145.5 -10
s91.333 -15.834 133 -27.501s80 -24.167 115 -37.5s65.167 -26.666 90.5 -39.999l-16 -174c-55.333 30.667 -109 55.5 -161 74.5s-102.667 32.833 -152 41.5s-97.333 13 -144 13c-79.333 0 -152.166 -13 -218.499 -39s-123.833 -64 -172.5 -114
s-86.167 -110.667 -112.5 -182s-39.5 -152 -39.5 -242c0 -81.333 11.5 -157.333 34.5 -228s58.333 -132.667 106 -186s108.5 -94.833 182.5 -124.5s161.667 -44.5 263 -44.5c37.333 0 74.666 1.83301 111.999 5.5s74.166 9.66699 110.499 18s72.166 19 107.499 32
s69.666 28.5 102.999 46.5l21 -170c-22.667 -10.667 -50.834 -21 -84.501 -31s-71.167 -19.167 -112.5 -27.5s-84.833 -14.833 -130.5 -19.5s-92.167 -7 -139.5 -7zM1156 60.998v185v158v166v146h171v-146v-166v-157.5v-182.5zM795.004 1626c-36 0 -65.333 9.83301 -88 29.5
s-34 50.5 -34 92.5c0 40 11.333 70.333 34 91s52.667 31 90 31c36.667 0 66 -10.667 88 -32s33 -51.333 33 -90c0 -42 -11 -72.833 -33 -92.5s-52 -29.5 -90 -29.5z" />
    <glyph glyph-name="gdotaccent" unicode="&#x121;" horiz-adv-x="1084" 
d="M488 -406c-74 0 -135.666 6.66699 -184.999 20s-88.333 31.333 -117 54s-49.167 47.834 -61.5 75.501s-18.5 55.834 -18.5 84.501c0 44.667 11 82.167 33 112.5s47.667 54.166 77 71.499s55 29.333 77 36v14c-11.333 3.33301 -25 10.5 -41 21.5s-30.333 26.5 -43 46.5
s-19 45.333 -19 76c0 23.333 4.5 45 13.5 65s22.833 37.667 41.5 53s41.667 28.666 69 39.999v15c-15.333 5.33301 -35 15.333 -59 30s-48.167 34.5 -72.5 59.5s-44.833 55.833 -61.5 92.5s-25 80 -25 130c0 64.667 15.833 121.334 47.5 170.001s76.667 86.5 135 113.5
s126.833 40.5 205.5 40.5c32 0 59.833 -1.66699 83.5 -5l73.5 -10.5c25.333 -3.66699 56.333 -5.5 93 -5.5h309v-124h-193h-189l47 78c58.667 -28 100.834 -65.167 126.501 -111.5s38.5 -98.5 38.5 -156.5c0 -65.333 -13.333 -120.5 -40 -165.5
s-64.334 -81.333 -113.001 -109s-105.334 -48.834 -170.001 -63.501c-70 -16.667 -122 -31.834 -156 -45.501s-51 -34.167 -51 -61.5c0 -19.333 7 -34.333 21 -45s36.167 -18.334 66.5 -23.001s70.5 -7 120.5 -7h43c92 0 167.333 -7.16699 226 -21.5
s102.167 -38.166 130.5 -71.499s42.5 -77.666 42.5 -132.999c0 -57.333 -15 -107.5 -45 -150.5s-70 -78.5 -120 -106.5s-104.5 -48.833 -163.5 -62.5s-117.833 -20.5 -176.5 -20.5zM502.001 -272c73.333 0 134.832 10.166 184.499 30.499s86.834 44.5 111.501 72.5
s37 54 37 78c0 25.333 -7.33301 46.333 -22 63s-42 29.167 -82 37.5s-98 12.5 -174 12.5h-37c-42.667 -0.666992 -84 -7.66699 -124 -21s-72.833 -31.833 -98.5 -55.5s-38.5 -51.167 -38.5 -82.5c0 -17.333 4.16699 -34.166 12.5 -50.499s22 -30.833 41 -43.5
s44 -22.667 75 -30s69.167 -11 114.5 -11zM473 458.999c24.667 4 51.166 10.1689 79.499 18.502s55 20.166 80 35.499s45.5 35.666 61.5 60.999s24 57.333 24 96c0 48 -12.333 87 -37 117s-55.167 52.167 -91.5 66.5s-71.5 21.5 -105.5 21.5
c-40.667 0 -78.667 -7.16699 -114 -21.5s-64 -36 -86 -65s-33 -65.5 -33 -109.5s10.833 -81.333 32.5 -112s49.334 -55 83.001 -73s69.167 -29.667 106.5 -35zM511.999 1221c-36 0 -65.333 10 -88 30s-34 50.667 -34 92c0 40.667 11.333 71.167 34 91.5s52.667 30.5 90 30.5
c36.667 0 66 -10.5 88 -31.5s33 -51.167 33 -90.5c0 -41.333 -11 -72 -33 -92s-52 -30 -90 -30z" />
    <glyph glyph-name="uni0122" unicode="&#x122;" horiz-adv-x="1466" 
d="M860 -21c-124 0 -233.163 18.498 -327.496 55.498s-173.5 88.833 -237.5 155.5s-112.5 144.834 -145.5 234.501s-49.5 186.834 -49.5 291.501c0 143.333 29.5 270.5 88.5 381.5s142.333 197.833 250 260.5s234.5 94 380.5 94c50 0 98.5 -3.33301 145.5 -10
s91.333 -15.834 133 -27.501s80 -24.167 115 -37.5s65.167 -26.666 90.5 -39.999l-16 -174c-55.333 30.667 -109 55.5 -161 74.5s-102.667 32.833 -152 41.5s-97.333 13 -144 13c-79.333 0 -152.166 -13 -218.499 -39s-123.833 -64 -172.5 -114
s-86.167 -110.667 -112.5 -182s-39.5 -152 -39.5 -242c0 -81.333 11.5 -157.333 34.5 -228s58.333 -132.667 106 -186s108.5 -94.833 182.5 -124.5s161.667 -44.5 263 -44.5c37.333 0 74.666 1.83301 111.999 5.5s74.166 9.66699 110.499 18s72.166 19 107.499 32
s69.666 28.5 102.999 46.5l21 -170c-22.667 -10.667 -50.834 -21 -84.501 -31s-71.167 -19.167 -112.5 -27.5s-84.833 -14.833 -130.5 -19.5s-92.167 -7 -139.5 -7zM1156 60.998v185v158v166v146h171v-146v-166v-157.5v-182.5zM663.004 -570.002c26.667 38 43.333 75 50 111
s10 80.667 10 134v66v66l83 6c34.667 -1.33301 60.667 -11.666 78 -30.999s26 -44 26 -74c0 -34.667 -6.83301 -69.167 -20.5 -103.5s-33 -66.333 -58 -96s-54.5 -54.834 -88.5 -75.501z" />
    <glyph glyph-name="uni0123" unicode="&#x123;" horiz-adv-x="1084" 
d="M488 -406c-74 0 -135.666 6.66699 -184.999 20s-88.333 31.333 -117 54s-49.167 47.834 -61.5 75.501s-18.5 55.834 -18.5 84.501c0 44.667 11 82.167 33 112.5s47.667 54.166 77 71.499s55 29.333 77 36v14c-11.333 3.33301 -25 10.5 -41 21.5s-30.333 26.5 -43 46.5
s-19 45.333 -19 76c0 23.333 4.5 45 13.5 65s22.833 37.667 41.5 53s41.667 28.666 69 39.999v15c-15.333 5.33301 -35 15.333 -59 30s-48.167 34.5 -72.5 59.5s-44.833 55.833 -61.5 92.5s-25 80 -25 130c0 64.667 15.833 121.334 47.5 170.001s76.667 86.5 135 113.5
s126.833 40.5 205.5 40.5c32 0 59.833 -1.66699 83.5 -5l73.5 -10.5c25.333 -3.66699 56.333 -5.5 93 -5.5h309v-124h-193h-189l47 78c58.667 -28 100.834 -65.167 126.501 -111.5s38.5 -98.5 38.5 -156.5c0 -65.333 -13.333 -120.5 -40 -165.5
s-64.334 -81.333 -113.001 -109s-105.334 -48.834 -170.001 -63.501c-70 -16.667 -122 -31.834 -156 -45.501s-51 -34.167 -51 -61.5c0 -19.333 7 -34.333 21 -45s36.167 -18.334 66.5 -23.001s70.5 -7 120.5 -7h43c92 0 167.333 -7.16699 226 -21.5
s102.167 -38.166 130.5 -71.499s42.5 -77.666 42.5 -132.999c0 -57.333 -15 -107.5 -45 -150.5s-70 -78.5 -120 -106.5s-104.5 -48.833 -163.5 -62.5s-117.833 -20.5 -176.5 -20.5zM502.001 -272c73.333 0 134.832 10.166 184.499 30.499s86.834 44.5 111.501 72.5
s37 54 37 78c0 25.333 -7.33301 46.333 -22 63s-42 29.167 -82 37.5s-98 12.5 -174 12.5h-37c-42.667 -0.666992 -84 -7.66699 -124 -21s-72.833 -31.833 -98.5 -55.5s-38.5 -51.167 -38.5 -82.5c0 -17.333 4.16699 -34.166 12.5 -50.499s22 -30.833 41 -43.5
s44 -22.667 75 -30s69.167 -11 114.5 -11zM473 458.999c24.667 4 51.166 10.1689 79.499 18.502s55 20.166 80 35.499s45.5 35.666 61.5 60.999s24 57.333 24 96c0 48 -12.333 87 -37 117s-55.167 52.167 -91.5 66.5s-71.5 21.5 -105.5 21.5
c-40.667 0 -78.667 -7.16699 -114 -21.5s-64 -36 -86 -65s-33 -65.5 -33 -109.5s10.833 -81.333 32.5 -112s49.334 -55 83.001 -73s69.167 -29.667 106.5 -35zM500.999 1221c-34.667 2 -60.666 12.6641 -77.999 31.9971s-26 44 -26 74c0 34.667 6.83301 69.167 20.5 103.5
s33 66.333 58 96s54.5 54.834 88.5 75.501l80 3c-26.667 -37.333 -43.334 -74.166 -50.001 -110.499s-10 -81.166 -10 -134.499v-66.5v-65.5z" />
    <glyph glyph-name="Hcircumflex" unicode="&#x124;" horiz-adv-x="1499" 
d="M1133 0v229v242v478v246.5v230.5h181v-230.5v-246.5v-478v-242v-229h-181zM185 0v229v242v478v246.5v230.5h181v-230.5v-246.5v-478v-242v-229h-181zM303 644v156h899v-156h-899zM977 1571l-125.5 147.5l-127.5 148.5h48l-125.5 -147l-125.5 -145h-134l135 179.5
l136 181.5h181l136 -181.5l136 -180.5z" />
    <glyph glyph-name="hcircumflex" unicode="&#x125;" horiz-adv-x="1146" 
d="M172 0l0.000976562 213v225v549v245v232l165 20v-241.5v-255.5v-160h18c20 28 45.833 56.667 77.5 86s69.334 53.833 113.001 73.5s93.5 29.5 149.5 29.5c105.333 0 182.333 -30.333 231 -91s73 -148.667 73 -264v-115v-108v-222.5v-215.5h-165v214.5v216.5v188
c0 79.333 -14.167 139.333 -42.5 180s-79.5 61 -153.5 61c-44.667 0 -85.334 -9 -122.001 -27s-69.834 -42.167 -99.501 -72.5s-56.167 -63.833 -79.5 -100.5v-229v-218.5v-212.5h-165zM771.001 1611l-124 161.5l-126 161.5h44l-124.5 -160.5l-125.5 -158.5h-134l135 197.5
l136 198.5h181l136 -198.5l136 -199.5z" />
    <glyph glyph-name="Hbar" unicode="&#x126;" horiz-adv-x="1499" 
d="M1133 0v229v242v478v246.5v230.5h181v-155.5v-153.5v-168v-478v-242v-229h-181zM185 0v229v242v478v168v153.5v155.5h181v-230.5v-246.5v-478v-242v-229h-181zM303 631v150h899v-150h-899zM30 1043v126h200h180h681h181h199v-126h-199h-181h-681h-180h-200z" />
    <glyph glyph-name="hbar" unicode="&#x127;" horiz-adv-x="1146" 
d="M-20 1190v118h166h147h87h149h164v-118h-164h-149h-87h-147h-166zM172 0l0.000976562 213v225v549v245v232l165 20v-241.5v-255.5v-160h18c20 28 45.833 56.667 77.5 86s69.334 53.833 113.001 73.5s93.5 29.5 149.5 29.5c105.333 0 182.333 -30.333 231 -91
s73 -148.667 73 -264v-115v-108v-222.5v-215.5h-165v214.5v216.5v188c0 79.333 -14.167 139.333 -42.5 180s-79.5 61 -153.5 61c-44.667 0 -85.334 -9 -122.001 -27s-69.834 -42.167 -99.501 -72.5s-56.167 -63.833 -79.5 -100.5v-229v-218.5v-212.5h-165z" />
    <glyph glyph-name="Itilde" unicode="&#x128;" horiz-adv-x="559" 
d="M188 0v229v242v478v246.5v230.5h184v-230.5v-246.5v-478v-242v-229h-184zM446 1568c-40 0 -74.502 8.66602 -103.502 25.999s-55.167 37.5 -78.5 60.5s-45.5 43.167 -66.5 60.5s-43.5 26 -67.5 26c-38.667 0 -65.667 -12.333 -81 -37s-24 -59.667 -26 -105h-101
c0 86.667 17.167 153.167 51.5 199.5s80.833 69.5 139.5 69.5c39.333 0 73.333 -8.66699 102 -26s54.334 -37.333 77.001 -60s44.667 -42.667 66 -60s44.333 -26 69 -26c38 0 64.5 12.333 79.5 37s23.167 59.667 24.5 105h101c0 -87.333 -16.667 -154.166 -50 -200.499
s-78.666 -69.5 -135.999 -69.5z" />
    <glyph glyph-name="itilde" unicode="&#x129;" horiz-adv-x="514" 
d="M174 0v213v225v100v164.5v146v143.5l166 6v-145.5v-148v-166.5v-100v-225v-213h-166zM409 1149c-36 0 -66.999 8.66699 -92.999 26s-49.333 37.5 -70 60.5s-40.5 43 -59.5 60s-38.833 25.5 -59.5 25.5c-32.667 0 -56 -12.167 -70 -36.5s-22 -59.166 -24 -104.499h-97
c0 86.667 15.667 153.167 47 199.5s73.666 69.5 126.999 69.5c36 0 67 -8.66699 93 -26s49.167 -37.333 69.5 -60s40 -42.667 59 -60s39.167 -26 60.5 -26c32.667 0 55.334 12.333 68.001 37s19.667 59.667 21 105h99c0 -86.667 -15.333 -153.334 -46 -200.001
s-72.334 -70 -125.001 -70z" />
    <glyph glyph-name="Imacron" unicode="&#x12a;" horiz-adv-x="559" 
d="M188 0v229v242v478v246.5v230.5h184v-230.5v-246.5v-478v-242v-229h-184zM-37 1671v129h150h164h164.5h149.5v-129h-149.5h-164.5h-164h-150z" />
    <glyph glyph-name="imacron" unicode="&#x12b;" horiz-adv-x="514" 
d="M174 0v213v225v100v164.5v146v143.5l166 6v-145.5v-148v-166.5v-100v-225v-213h-166zM-4 1252v129h124h137h137h124v-129h-124h-137h-137h-124z" />
    <glyph glyph-name="Ibreve" unicode="&#x12c;" horiz-adv-x="559" 
d="M188 0v229v242v478v246.5v230.5h184v-230.5v-246.5v-478v-242v-229h-184zM274 1563c-104.667 0 -184.499 31.667 -239.499 95s-82.5 156.333 -82.5 279l122 5c0 -88.667 17.167 -153.5 51.5 -194.5s83.833 -61.5 148.5 -61.5c65.333 0 115.166 20.167 149.499 60.5
s51.5 103.833 51.5 190.5h122c0 -82 -12.167 -150.833 -36.5 -206.5s-60.5 -97.5 -108.5 -125.5s-107.333 -42 -178 -42z" />
    <glyph glyph-name="ibreve" unicode="&#x12d;" horiz-adv-x="514" 
d="M174 0v213v225v100v164.5v146v143.5l166 6v-145.5v-148v-166.5v-100v-225v-213h-166zM254 1144c-95.333 0 -167.999 31.832 -217.999 95.499s-75 156.5 -75 278.5l121 5c0 -88.667 14.5 -153.5 43.5 -194.5s71.833 -61.5 128.5 -61.5s100 20.167 130 60.5
s45 103.833 45 190.5h120c0 -82 -11.167 -150.667 -33.5 -206s-55.333 -97.166 -99 -125.499s-97.834 -42.5 -162.501 -42.5z" />
    <glyph glyph-name="Iogonek" unicode="&#x12e;" horiz-adv-x="559" 
d="M188 0v229v242v478v246.5v230.5h184v-230.5v-246.5v-478v-242v-229h-184zM262 -416c-48 0 -88.167 6.83203 -120.5 20.499s-56.833 32.667 -73.5 57s-25 52.833 -25 85.5c0 32 7.66699 63 23 93s38.166 58.833 68.499 86.5s67.5 54.5 111.5 80.5v36l87 7l38 -50
c-54 -27.333 -100.167 -60.166 -138.5 -98.499s-57.5 -77.5 -57.5 -117.5c0 -29.333 9.83301 -51.166 29.5 -65.499s45.834 -21.5 78.501 -21.5c22.667 0 42 1.66699 58 5s28.667 6.66602 38 9.99902v-111c-14.667 -4.66699 -32.5 -8.66699 -53.5 -12s-42.167 -5 -63.5 -5z
" />
    <glyph glyph-name="iogonek" unicode="&#x12f;" horiz-adv-x="514" 
d="M174 0v213v225v100v164.5v146v143.5l166 6v-145.5v-148v-166.5v-100v-225v-213h-166zM254 1221c-36 0 -65.333 10 -88 30s-34 50.667 -34 92c0 40.667 11.333 71.167 34 91.5s52.667 30.5 90 30.5c36.667 0 66 -10.5 88 -31.5s33 -51.167 33 -90.5
c0 -41.333 -11 -72 -33 -92s-52 -30 -90 -30zM230 -416c-48 0 -88.167 6.83203 -120.5 20.499s-56.833 32.667 -73.5 57s-25 52.833 -25 85.5c0 32 7.66699 63 23 93s38.166 58.833 68.499 86.5s67.5 54.5 111.5 80.5v36l87 7l38 -50
c-54 -27.333 -100.167 -60.166 -138.5 -98.499s-57.5 -77.5 -57.5 -117.5c0 -29.333 9.83301 -51.166 29.5 -65.499s45.834 -21.5 78.501 -21.5c22.667 0 42 1.66699 58 5s28.667 6.66602 38 9.99902v-111c-14.667 -4.66699 -32.5 -8.66699 -53.5 -12s-42.167 -5 -63.5 -5z
" />
    <glyph glyph-name="Idotaccent" unicode="&#x130;" horiz-adv-x="559" 
d="M188 0v229v242v478v246.5v230.5h184v-230.5v-246.5v-478v-242v-229h-184zM274 1626c-36 0 -65.333 9.83301 -88 29.5s-34 50.5 -34 92.5c0 40 11.333 70.333 34 91s52.667 31 90 31c36.667 0 66 -10.667 88 -32s33 -51.333 33 -90c0 -42 -11 -72.833 -33 -92.5
s-52 -29.5 -90 -29.5z" />
    <glyph glyph-name="dotlessi" unicode="&#x131;" horiz-adv-x="514" 
d="M174 0v213v225v100v164.5v146v143.5l166 6v-145.5v-148v-166.5v-100v-225v-213h-166z" />
    <glyph glyph-name="Jcircumflex" unicode="&#x134;" horiz-adv-x="582" 
d="M30 -316c38.667 43.333 71.6699 87.001 99.0029 131.001s48.166 91.667 62.499 143s21.5 110.666 21.5 177.999v411v402v246.5v230.5h182v-230.5v-246.5v-357v-243v-230c0 -54 -4.83301 -102.833 -14.5 -146.5s-22.834 -83 -39.501 -118s-35.834 -66.333 -57.501 -94
s-44.167 -53.167 -67.5 -76.5h-186zM527.003 1571l-125.5 147.5l-127.5 148.5h48l-125.5 -147l-125.5 -145h-134l135 179.5l136 181.5h181l136 -181.5l136 -180.5z" />
    <glyph glyph-name="jcircumflex" unicode="&#x135;" horiz-adv-x="510" 
d="M10 -390c38.667 42 70.168 84.832 94.501 128.499s42 91.334 53 143.001s16.5 111.5 16.5 179.5v377v100v164.5v146v143.5l166 6v-145.5v-148v-166.5v-203v-158v-139c0 -50 -3.5 -96 -10.5 -138s-17.333 -80.333 -31 -115s-29.834 -66 -48.501 -94s-39.667 -53 -63 -75z
M450.001 1152l-85.5 133l-86 133l-87.5 134h145l118.5 -197.5l119.5 -200.5zM-63.999 1156l119.5 198l118.5 198h144l-86.5 -133l-85.5 -131.5l-86 -131.5h-124z" />
    <glyph glyph-name="uni0136" unicode="&#x136;" horiz-adv-x="1342" 
d="M1055 0l-178.5 193.5l-162.5 176.5l-271 293h-98v149h97l235 245l164 171l188 198h220l-214.5 -221.5l-208.5 -216.5l-264 -275l-3 80l293 -323l146.5 -160l152.5 -167l131 -143h-227zM185 0v229v242v478v246.5v230.5h181v-230.5v-246.5v-478v-242v-229h-181zM550 -570
c26.667 38 43.333 75 50 111s10 80.667 10 134v66v66l83 6c34.667 -1.33301 60.667 -11.666 78 -30.999s26 -44 26 -74c0 -34.667 -6.83301 -69.167 -20.5 -103.5s-33 -66.333 -58 -96s-54.5 -54.834 -88.5 -75.501z" />
    <glyph glyph-name="uni0137" unicode="&#x137;" horiz-adv-x="1084" 
d="M830 0l-135.5 136l-135.5 135l-171 171h-70v118h80l144 153l133 139.5l132 139.5h204l-171 -174l-169 -174l-169 -172l-6 80l196 -202l177.5 -175.5l175.5 -174.5h-215zM172 0v213v225v549v245v232l165 20v-241.5v-255.5v-575v-209v-203h-165zM421 -570
c26.667 38 43.333 75 50 111s10 80.667 10 134v66v66l83 6c34.667 -1.33301 60.667 -11.666 78 -30.999s26 -44 26 -74c0 -34.667 -6.83301 -69.167 -20.5 -103.5s-33 -66.333 -58 -96s-54.5 -54.834 -88.5 -75.501z" />
    <glyph glyph-name="kgreenlandic" unicode="&#x138;" horiz-adv-x="1084" 
d="M172 0v213v225v105v163.5v143.5v142l165 7v-216v-223v-148v-209v-203h-165zM830 0l-135.5 136l-135.5 135l-171 171h-70v118h80l144 153l133 139.5l132 139.5h204l-171 -174l-169 -174l-169 -172l-6 80l196 -202l177.5 -175.5l175.5 -174.5h-215z" />
    <glyph glyph-name="Lacute" unicode="&#x139;" horiz-adv-x="1145" 
d="M185 0v229v242v478v246.5v230.5h181v-230.5v-246.5v-450v-242v-229l-68 133h262h201.5h162h152.5v-161h-891zM257 1573l136.5 182l134.5 181l185 2l-108.5 -122.5l-107 -120.5l-106.5 -119z" />
    <glyph glyph-name="lacute" unicode="&#x13a;" horiz-adv-x="508" 
d="M172 0v213v225v549v245v232l165 20v-242.5v-254.5v-549v-225v-213h-165zM106 1613l136.5 200l134.5 198l185 4l-109 -135l-107 -133l-106 -132z" />
    <glyph glyph-name="uni013B" unicode="&#x13b;" horiz-adv-x="1145" 
d="M185 0v229v242v478v246.5v230.5h181v-230.5v-246.5v-450v-242v-229l-68 133h262h201.5h162h152.5v-161h-891zM492 -570c26.667 38 43.333 75 50 111s10 80.667 10 134v66v66l83 6c34.667 -1.33301 60.667 -11.666 78 -30.999s26 -44 26 -74
c0 -34.667 -6.83301 -69.167 -20.5 -103.5s-33 -66.333 -58 -96s-54.5 -54.834 -88.5 -75.501z" />
    <glyph glyph-name="uni013C" unicode="&#x13c;" horiz-adv-x="508" 
d="M172 0v213v225v549v245v232l165 20v-242.5v-254.5v-549v-225v-213h-165zM119 -570c26.667 38 43.333 75 50 111s10 80.667 10 134v66v66l83 6c34.667 -1.33301 60.667 -11.666 78 -30.999s26 -44 26 -74c0 -34.667 -6.83301 -69.167 -20.5 -103.5s-33 -66.333 -58 -96
s-54.5 -54.834 -88.5 -75.501z" />
    <glyph glyph-name="Lcaron" unicode="&#x13d;" horiz-adv-x="1145" 
d="M185 0v229v242v478v246.5v230.5h181v-230.5v-246.5v-450v-242v-229l-68 133h262h201.5h162h152.5v-161h-891zM632 1088c14 33.333 25.6689 68.333 35.002 105s16.166 72 20.499 106s6.5 63.667 6.5 89v80v78l73 7c23.333 -2 41.166 -10.833 53.499 -26.5
s18.5 -38.167 18.5 -67.5c0 -32 -3.33301 -65.167 -10 -99.5s-15.834 -68 -27.501 -101s-24.667 -64 -39 -93s-29.166 -53.833 -44.499 -74.5z" />
    <glyph glyph-name="lcaron" unicode="&#x13e;" horiz-adv-x="530" 
d="M172 0v213v225v549v245v232l165 20v-242.5v-254.5v-549v-225v-213h-165zM497 1088c14 33.333 25.6689 68.333 35.002 105s16.166 72 20.499 106s6.5 63.667 6.5 89v80v78l73 7c23.333 -2 41.166 -10.833 53.499 -26.5s18.5 -38.167 18.5 -67.5
c0 -32 -3.33301 -65.167 -10 -99.5s-15.834 -68 -27.501 -101s-24.667 -64 -39 -93s-29.166 -53.833 -44.499 -74.5z" />
    <glyph glyph-name="Ldot" unicode="&#x13f;" horiz-adv-x="1145" 
d="M185 0v229v242v478v246.5v230.5h181v-230.5v-246.5v-450v-242v-229l-68 133h262h201.5h162h152.5v-161h-891zM852 598c-36 0 -65.166 10 -87.499 30s-33.5 50.667 -33.5 92c0 40.667 11.167 71.167 33.5 91.5s52.166 30.5 89.499 30.5s67 -10.5 89 -31.5
s33 -51.167 33 -90.5c0 -41.333 -11 -72 -33 -92s-52.333 -30 -91 -30z" />
    <glyph glyph-name="ldot" unicode="&#x140;" horiz-adv-x="797" 
d="M172 0v213v225v549v245v232l165 20v-242.5v-254.5v-549v-225v-213h-165zM652 599c-36 0 -65.166 10 -87.499 30s-33.5 50.667 -33.5 92c0 40.667 11.167 71.167 33.5 91.5s52.166 30.5 89.499 30.5s67 -10.5 89 -31.5s33 -51.167 33 -90.5c0 -41.333 -11 -72 -33 -92
s-52.333 -30 -91 -30z" />
    <glyph glyph-name="Lslash" unicode="&#x141;" horiz-adv-x="1161" 
d="M201 0v229v242v478v246.5v230.5h182v-230.5v-246.5v-450v-242v-229l-69 133h262h201.5h162.5h153v-161h-892zM15 551l-38 127l186.5 55l169.5 50l98 29l170 50.5l186 55.5l36 -127l-185 -54.5l-170 -50.5l-98 -29l-168.5 -50.5z" />
    <glyph glyph-name="lslash" unicode="&#x142;" horiz-adv-x="603" 
d="M13 547l-33 113l140 41.5l129 37.5l70 21l129 38.5l141 40.5l33 -112l-142.5 -42.5l-127.5 -37.5l-70 -21l-129 -37.5zM219 0v213v225v549v245v232l165 20v-242.5v-254.5v-549v-225v-213h-165z" />
    <glyph glyph-name="Nacute" unicode="&#x143;" horiz-adv-x="1508" 
d="M185 0v229v242v478v246.5v230.5h163l246 -347l233 -329l309 -436h15v635v246.5v230.5h172v-230.5v-246.5v-478v-242v-229h-161l-223 315.5l-257 363.5l-311 439h-14v-647v-242v-229h-172zM607 1573l136.5 182l134.5 181l185 2l-108.5 -122.5l-107 -120.5l-106.5 -119z
" />
    <glyph glyph-name="nacute" unicode="&#x144;" horiz-adv-x="1146" 
d="M172 0l0.00390625 213v225v100v225v229l144 10l5 -184h18c21.333 30 48.666 60.333 81.999 91s72.666 56.167 117.999 76.5s97.333 30.5 156 30.5c105.333 0 182.333 -30.333 231 -91s73 -148.667 73 -264v-115v-108v-222.5v-215.5h-165v214.5v216.5v188
c0 79.333 -14.167 139.333 -42.5 180s-79.5 61 -153.5 61c-44.667 0 -85.334 -9 -122.001 -27s-69.834 -42.167 -99.501 -72.5s-56.167 -63.833 -79.5 -100.5v-229v-218.5v-212.5h-165zM439.004 1154l136.5 200l134.5 198l185 4l-109 -135l-107 -133l-106 -132z" />
    <glyph glyph-name="uni0145" unicode="&#x145;" horiz-adv-x="1508" 
d="M185 0v229v242v478v246.5v230.5h163l246 -347l233 -329l309 -436h15v635v246.5v230.5h172v-230.5v-246.5v-478v-242v-229h-161l-223 315.5l-257 363.5l-311 439h-14v-647v-242v-229h-172zM620 -570c26.667 38 43.333 75 50 111s10 80.667 10 134v66v66l83 6
c34.667 -1.33301 60.667 -11.666 78 -30.999s26 -44 26 -74c0 -34.667 -6.83301 -69.167 -20.5 -103.5s-33 -66.333 -58 -96s-54.5 -54.834 -88.5 -75.501z" />
    <glyph glyph-name="uni0146" unicode="&#x146;" horiz-adv-x="1146" 
d="M172 0l0.00390625 213v225v100v225v229l144 10l5 -184h18c21.333 30 48.666 60.333 81.999 91s72.666 56.167 117.999 76.5s97.333 30.5 156 30.5c105.333 0 182.333 -30.333 231 -91s73 -148.667 73 -264v-115v-108v-222.5v-215.5h-165v214.5v216.5v188
c0 79.333 -14.167 139.333 -42.5 180s-79.5 61 -153.5 61c-44.667 0 -85.334 -9 -122.001 -27s-69.834 -42.167 -99.501 -72.5s-56.167 -63.833 -79.5 -100.5v-229v-218.5v-212.5h-165zM452.004 -570c26.667 38 43.333 75 50 111s10 80.667 10 134v66v66l83 6
c34.667 -1.33301 60.667 -11.666 78 -30.999s26 -44 26 -74c0 -34.667 -6.83301 -69.167 -20.5 -103.5s-33 -66.333 -58 -96s-54.5 -54.834 -88.5 -75.501z" />
    <glyph glyph-name="Ncaron" unicode="&#x147;" horiz-adv-x="1508" 
d="M185 0v229v242v478v246.5v230.5h163l246 -347l233 -329l309 -436h15v635v246.5v230.5h172v-230.5v-246.5v-478v-242v-229h-161l-223 315.5l-257 363.5l-311 439h-14v-647v-242v-229h-172zM665 1572l-136 182.5l-136 180.5l134 2l125.5 -147l127.5 -149h-48l126 147.5
l125 144.5h134l-134.5 -179l-136.5 -182h-181z" />
    <glyph glyph-name="ncaron" unicode="&#x148;" horiz-adv-x="1146" 
d="M172 0l0.00390625 213v225v100v225v229l144 10l5 -184h18c21.333 30 48.666 60.333 81.999 91s72.666 56.167 117.999 76.5s97.333 30.5 156 30.5c105.333 0 182.333 -30.333 231 -91s73 -148.667 73 -264v-115v-108v-222.5v-215.5h-165v214.5v216.5v188
c0 79.333 -14.167 139.333 -42.5 180s-79.5 61 -153.5 61c-44.667 0 -85.334 -9 -122.001 -27s-69.834 -42.167 -99.501 -72.5s-56.167 -63.833 -79.5 -100.5v-229v-218.5v-212.5h-165zM497.004 1143l-136 199.5l-136 198.5l134 3l125 -161l125 -162h-44l125 160l125 159
h134l-135 -197.5l-136 -199.5h-181z" />
    <glyph glyph-name="Eng" unicode="&#x14a;" horiz-adv-x="1508" 
d="M959 -384c38.667 43.333 71.6689 87 99.002 131s48.166 91.667 62.499 143s21.5 110.333 21.5 177v40l67 -107h-47l-222.5 316l-257.5 363l-311 439h-14v-647v-242v-229h-172v229v242v478v246.5v230.5h163l246.5 -346.5l232.5 -329.5l309 -436h15v635v246.5v230.5h172
v-230.5v-246.5v-424v-242v-230c0 -54 -4.83301 -103 -14.5 -147s-22.834 -83.667 -39.501 -119s-35.667 -66.833 -57 -94.5s-44 -53.167 -68 -76.5h-185z" />
    <glyph glyph-name="eng" unicode="&#x14b;" horiz-adv-x="1146" 
d="M670 -390c38.667 42 70.0039 84.832 94.0039 128.499s41.667 91.334 53 143.001s17 111.5 17 179.5v370v188c0 79.333 -14.167 139.333 -42.5 180s-79.5 61 -153.5 61c-44.667 0 -85.334 -9 -122.001 -27s-69.834 -42.167 -99.501 -72.5s-56.167 -63.833 -79.5 -100.5
v-229v-218.5v-212.5h-165v213v225v100v225v229l144 10l5 -184h18c21.333 30 48.666 60.333 81.999 91s72.666 56.167 117.999 76.5s97.333 30.5 156 30.5c105.333 0 182.333 -30.333 231 -91s73 -148.667 73 -264v-63.5v-59.5v-203v-158v-139c0 -50 -3.5 -96 -10.5 -138
s-17.167 -80.333 -30.5 -115s-29.5 -66 -48.5 -94s-40.167 -53 -63.5 -75z" />
    <glyph glyph-name="Omacron" unicode="&#x14c;" horiz-adv-x="1634" 
d="M824 -22c-120.667 0 -226.335 19.499 -317.002 58.499s-166.167 92.667 -226.5 161s-105.5 146.833 -135.5 235.5s-45 182.334 -45 281.001c0 138.667 28.167 263.667 84.5 375s137.833 199.666 244.5 264.999s236.334 98 389.001 98c116 0 218.5 -19 307.5 -57
s163.833 -90.667 224.5 -158s106.334 -145.666 137.001 -234.999s46 -185 46 -287c0 -140.667 -28 -266.5 -84 -377.5s-137 -198.667 -243 -263s-233.333 -96.5 -382 -96.5zM818.999 133.999c91.333 0 169.995 15.8291 235.995 47.4961s120.5 74.834 163.5 129.501
s74.833 116.834 95.5 186.501s31 142.167 31 217.5c0 81.333 -11.167 157.166 -33.5 227.499s-55.666 132 -99.999 185s-99.166 94.333 -164.499 124s-141.333 44.5 -228 44.5c-89.333 0 -167.166 -15.667 -233.499 -47s-121.5 -74.166 -165.5 -128.499
s-77 -116.333 -99 -186s-33 -142.834 -33 -219.501c0 -77.333 10.667 -150.666 32 -219.999s53.833 -131.166 97.5 -185.499s98.834 -97.166 165.501 -128.499s145.334 -47 236.001 -47zM501.994 1671v129h150h164h164.5h149.5v-129h-149.5h-164.5h-164h-150z" />
    <glyph glyph-name="omacron" unicode="&#x14d;" horiz-adv-x="1195" 
d="M601 -22c-82 0 -154.165 14.166 -216.498 42.499s-114.5 66.833 -156.5 115.5s-73.833 104.5 -95.5 167.5s-32.5 129.167 -32.5 198.5c0 99.333 20.167 187.5 60.5 264.5s97.666 137.833 171.999 182.5s162.833 67 265.5 67c79.333 0 149.666 -13 210.999 -39
s113.333 -62.333 156 -109s75 -101.167 97 -163.5s33 -129.833 33 -202.5c0 -98 -20 -186.667 -60 -266s-96.833 -142.166 -170.5 -188.499s-161.5 -69.5 -263.5 -69.5zM601.002 121.999c72.667 0 133.003 18 181.003 54s84 83 108 141s36 119.667 36 185
c0 74.667 -13.333 139.667 -40 195s-64.334 98.333 -113.001 129s-106.334 46 -173.001 46c-72 0 -132.667 -16.333 -182 -49s-86.5 -77 -111.5 -133s-37.5 -118.667 -37.5 -188c0 -65.333 12.167 -127 36.5 -185s61.166 -105 110.499 -141s111 -54 185 -54zM283.005 1252
v129h150h164h164.5h149.5v-129h-149.5h-164.5h-164h-150z" />
    <glyph glyph-name="Obreve" unicode="&#x14e;" horiz-adv-x="1634" 
d="M824 -22c-120.667 0 -226.335 19.499 -317.002 58.499s-166.167 92.667 -226.5 161s-105.5 146.833 -135.5 235.5s-45 182.334 -45 281.001c0 138.667 28.167 263.667 84.5 375s137.833 199.666 244.5 264.999s236.334 98 389.001 98c116 0 218.5 -19 307.5 -57
s163.833 -90.667 224.5 -158s106.334 -145.666 137.001 -234.999s46 -185 46 -287c0 -140.667 -28 -266.5 -84 -377.5s-137 -198.667 -243 -263s-233.333 -96.5 -382 -96.5zM818.999 133.999c91.333 0 169.995 15.8291 235.995 47.4961s120.5 74.834 163.5 129.501
s74.833 116.834 95.5 186.501s31 142.167 31 217.5c0 81.333 -11.167 157.166 -33.5 227.499s-55.666 132 -99.999 185s-99.166 94.333 -164.499 124s-141.333 44.5 -228 44.5c-89.333 0 -167.166 -15.667 -233.499 -47s-121.5 -74.166 -165.5 -128.499
s-77 -116.333 -99 -186s-33 -142.834 -33 -219.501c0 -77.333 10.667 -150.666 32 -219.999s53.833 -131.166 97.5 -185.499s98.834 -97.166 165.501 -128.499s145.334 -47 236.001 -47zM812.994 1563c-104.667 0 -184.499 31.667 -239.499 95s-82.5 156.333 -82.5 279
l122 5c0 -88.667 17.167 -153.5 51.5 -194.5s83.833 -61.5 148.5 -61.5c65.333 0 115.166 20.167 149.499 60.5s51.5 103.833 51.5 190.5h122c0 -82 -12.167 -150.833 -36.5 -206.5s-60.5 -97.5 -108.5 -125.5s-107.333 -42 -178 -42z" />
    <glyph glyph-name="obreve" unicode="&#x14f;" horiz-adv-x="1195" 
d="M601 -22c-82 0 -154.165 14.166 -216.498 42.499s-114.5 66.833 -156.5 115.5s-73.833 104.5 -95.5 167.5s-32.5 129.167 -32.5 198.5c0 99.333 20.167 187.5 60.5 264.5s97.666 137.833 171.999 182.5s162.833 67 265.5 67c79.333 0 149.666 -13 210.999 -39
s113.333 -62.333 156 -109s75 -101.167 97 -163.5s33 -129.833 33 -202.5c0 -98 -20 -186.667 -60 -266s-96.833 -142.166 -170.5 -188.499s-161.5 -69.5 -263.5 -69.5zM601.002 121.999c72.667 0 133.003 18 181.003 54s84 83 108 141s36 119.667 36 185
c0 74.667 -13.333 139.667 -40 195s-64.334 98.333 -113.001 129s-106.334 46 -173.001 46c-72 0 -132.667 -16.333 -182 -49s-86.5 -77 -111.5 -133s-37.5 -118.667 -37.5 -188c0 -65.333 12.167 -127 36.5 -185s61.166 -105 110.499 -141s111 -54 185 -54zM594.005 1144
c-104.667 0 -184.499 31.5 -239.499 94.5s-82.5 156.167 -82.5 279.5l122 5c0 -88.667 17.167 -153.5 51.5 -194.5s83.833 -61.5 148.5 -61.5c65.333 0 115.166 20.167 149.499 60.5s51.5 103.833 51.5 190.5h122c0 -82 -12.167 -150.833 -36.5 -206.5
s-60.5 -97.5 -108.5 -125.5s-107.333 -42 -178 -42z" />
    <glyph glyph-name="Ohungarumlaut" unicode="&#x150;" horiz-adv-x="1634" 
d="M824 -22c-120.667 0 -226.335 19.499 -317.002 58.499s-166.167 92.667 -226.5 161s-105.5 146.833 -135.5 235.5s-45 182.334 -45 281.001c0 138.667 28.167 263.667 84.5 375s137.833 199.666 244.5 264.999s236.334 98 389.001 98c116 0 218.5 -19 307.5 -57
s163.833 -90.667 224.5 -158s106.334 -145.666 137.001 -234.999s46 -185 46 -287c0 -140.667 -28 -266.5 -84 -377.5s-137 -198.667 -243 -263s-233.333 -96.5 -382 -96.5zM818.999 133.999c91.333 0 169.995 15.8291 235.995 47.4961s120.5 74.834 163.5 129.501
s74.833 116.834 95.5 186.501s31 142.167 31 217.5c0 81.333 -11.167 157.166 -33.5 227.499s-55.666 132 -99.999 185s-99.166 94.333 -164.499 124s-141.333 44.5 -228 44.5c-89.333 0 -167.166 -15.667 -233.499 -47s-121.5 -74.166 -165.5 -128.499
s-77 -116.333 -99 -186s-33 -142.834 -33 -219.501c0 -77.333 10.667 -150.666 32 -219.999s53.833 -131.166 97.5 -185.499s98.834 -97.166 165.501 -128.499s145.334 -47 236.001 -47zM890.994 1573l134 181l134 182l177 2l-106 -122.5l-105.5 -120.5l-104.5 -119z
M526.994 1573l113 182l112 181l169 2l-91.5 -122.5l-90.5 -120.5l-90 -119z" />
    <glyph glyph-name="ohungarumlaut" unicode="&#x151;" horiz-adv-x="1195" 
d="M601 -22c-82 0 -154.165 14.166 -216.498 42.499s-114.5 66.833 -156.5 115.5s-73.833 104.5 -95.5 167.5s-32.5 129.167 -32.5 198.5c0 99.333 20.167 187.5 60.5 264.5s97.666 137.833 171.999 182.5s162.833 67 265.5 67c79.333 0 149.666 -13 210.999 -39
s113.333 -62.333 156 -109s75 -101.167 97 -163.5s33 -129.833 33 -202.5c0 -98 -20 -186.667 -60 -266s-96.833 -142.166 -170.5 -188.499s-161.5 -69.5 -263.5 -69.5zM601.002 121.999c72.667 0 133.003 18 181.003 54s84 83 108 141s36 119.667 36 185
c0 74.667 -13.333 139.667 -40 195s-64.334 98.333 -113.001 129s-106.334 46 -173.001 46c-72 0 -132.667 -16.333 -182 -49s-86.5 -77 -111.5 -133s-37.5 -118.667 -37.5 -188c0 -65.333 12.167 -127 36.5 -185s61.166 -105 110.499 -141s111 -54 185 -54zM672.005 1154
l134.5 200l133.5 198l177 4l-106 -135l-105.5 -133l-104.5 -132zM308.005 1154l113.5 200l111.5 198l169 4l-91.5 -135l-90.5 -133l-90 -132z" />
    <glyph glyph-name="OE" unicode="&#x152;" horiz-adv-x="2170" 
d="M831 -22c-114.667 0 -217.329 18.3291 -307.996 54.9961s-167.334 88.167 -230.001 154.5s-110.5 144.333 -143.5 234s-49.5 187.834 -49.5 294.501c0 143.333 29 270.5 87 381.5s139.833 197.833 245.5 260.5s229.5 94 371.5 94c64 0 125 -5.83301 183 -17.5
s111 -26.5 159 -44.5s88.667 -36.333 122 -55l-17 -174c-78 46.667 -152.833 80.167 -224.5 100.5s-140.834 30.5 -207.501 30.5c-101.333 0 -192 -23.333 -272 -70s-143.167 -113.167 -189.5 -199.5s-69.5 -188.833 -69.5 -307.5c0 -79.333 12 -154.166 36 -224.499
s59.667 -132.166 107 -185.499s105.666 -95.166 174.999 -125.499s149.666 -45.5 240.999 -45.5c69.333 0 137.5 9.16699 204.5 27.5s130.833 49.5 191.5 93.5l16 -175c-38.667 -24 -81.5 -43.5 -128.5 -58.5s-96 -26 -147 -33s-101.833 -10.5 -152.5 -10.5z
M1168 -0.00390625v229v242v479v245v231h886v-155h-214.5h-269.5h-325l101 129v-231.5v-244.5v-426v-241.5v-229.5l-91 128h330h247.5h224.5v-155h-889zM1306 646.996v151h277h238.5h192.5v-151h-197.5h-234.5h-276z" />
    <glyph glyph-name="oe" unicode="&#x153;" horiz-adv-x="1862" 
d="M584 -22c-82 0 -154 14.165 -216 42.498s-114 66.833 -156 115.5s-73.667 104.5 -95 167.5s-32 129.167 -32 198.5c0 99.333 20 187.5 60 264.5s97 137.667 171 182s162.333 66.5 265 66.5c78 0 147 -13 207 -39s110.833 -62.167 152.5 -108.5
s73.167 -100.666 94.5 -162.999s32 -129.833 32 -202.5c0 -98 -19.333 -186.667 -58 -266s-94.167 -142.166 -166.5 -188.499s-158.5 -69.5 -258.5 -69.5zM586 120.998c72.667 0 133.167 18.166 181.5 54.499s84.333 83.5 108 141.5s35.5 119.667 35.5 185
c0 74.667 -13.167 139.834 -39.5 195.501s-63.833 98.667 -112.5 129s-106.334 45.5 -173.001 45.5c-72 0 -132.667 -16.5 -182 -49.5s-86.666 -77.5 -111.999 -133.5s-38 -118.333 -38 -187c0 -65.333 12.333 -127 37 -185s61.5 -105.167 110.5 -141.5
s110.5 -54.5 184.5 -54.5zM1441 -22.0029c-118.667 0 -216.328 22.667 -292.995 68s-133.5 107.333 -170.5 186s-55.5 168.667 -55.5 270c0 100 18.167 188.667 54.5 266s88.833 137.833 157.5 181.5s150.667 65.5 246 65.5c84 0 156.167 -16.333 216.5 -49
s106.833 -80.5 139.5 -143.5s49 -140.833 49 -233.5c0 -24.667 -0.5 -46.834 -1.5 -66.501s-3.16699 -39.5 -6.5 -59.5l-145 73c1.33301 10.667 2.16602 20.834 2.49902 30.501s0.5 19.167 0.5 28.5c0 94 -23.333 165.5 -70 214.5s-107.667 73.5 -183 73.5
c-60.667 0 -112.834 -15.5 -156.501 -46.5s-77.5 -73.833 -101.5 -128.5s-36 -117 -36 -187v-23c0 -77.333 13.5 -144 40.5 -200s67.5 -99.167 121.5 -129.5s123 -45.5 207 -45.5c31.333 0 64.5 2.5 99.5 7.5s69.667 12.833 104 23.5s67.166 24.667 98.499 42l7 -149
c-25.333 -14 -54.833 -26.167 -88.5 -36.5s-70.334 -18.333 -110.001 -24s-81.834 -8.5 -126.501 -8.5zM990.006 462.997v118l686 6l101 -34v-90h-787z" />
    <glyph glyph-name="Racute" unicode="&#x154;" horiz-adv-x="1340" 
d="M185 0l0.00195312 229.003v242v479v245v231h131.5h163h187.5c108.667 0 199.167 -12.833 271.5 -38.5s126.666 -66.834 162.999 -123.501s54.5 -131.334 54.5 -224.001c0 -78 -15.167 -149.333 -45.5 -214s-80.833 -116.5 -151.5 -155.5s-166.334 -58.833 -287.001 -59.5
l57 79l225 -281l112 -139l115 -144.5l100 -125.5h-212l-136.5 174l-129.5 164l-256 330l111 -89h-327v149h271c83.333 0 152 9.66699 206 29s94.333 50.5 121 93.5s40 100.167 40 171.5c0 59.333 -9.5 106.166 -28.5 140.499s-44 59.5 -75 75.5s-64.5 26.333 -100.5 31
s-70.667 7 -104 7h-420l121 124v-234v-242v-453v-242v-229h-177zM486.002 1573l136.5 182l134.5 181l185 2l-108.5 -122.5l-107 -120.5l-106.5 -119z" />
    <glyph glyph-name="racute" unicode="&#x155;" horiz-adv-x="799" 
d="M172 0l-0.00488281 213.001v225v100v225v229l144 10l5 -202h17c27.333 60.667 58.833 106.5 94.5 137.5s71.834 51.833 108.501 62.5s70.334 16 101.001 16c18.667 0 37.334 -1.33301 56.001 -4s36.334 -7 53.001 -13l-15 -166c-22 4 -41.833 7.33301 -59.5 10
s-38.167 4 -61.5 4c-19.333 0 -41.166 -2.83301 -65.499 -8.5s-49.333 -17.334 -75 -35.001s-50.5 -44 -74.5 -79s-45 -81.5 -63 -139.5v-154v-218.5v-212.5h-165zM318.995 1154l136.5 200l134.5 198l185 4l-109 -135l-107 -133l-106 -132z" />
    <glyph glyph-name="uni0156" unicode="&#x156;" horiz-adv-x="1340" 
d="M185 0l0.00195312 229.003v242v479v245v231h131.5h163h187.5c108.667 0 199.167 -12.833 271.5 -38.5s126.666 -66.834 162.999 -123.501s54.5 -131.334 54.5 -224.001c0 -78 -15.167 -149.333 -45.5 -214s-80.833 -116.5 -151.5 -155.5s-166.334 -58.833 -287.001 -59.5
l57 79l225 -281l112 -139l115 -144.5l100 -125.5h-212l-136.5 174l-129.5 164l-256 330l111 -89h-327v149h271c83.333 0 152 9.66699 206 29s94.333 50.5 121 93.5s40 100.167 40 171.5c0 59.333 -9.5 106.166 -28.5 140.499s-44 59.5 -75 75.5s-64.5 26.333 -100.5 31
s-70.667 7 -104 7h-420l121 124v-234v-242v-453v-242v-229h-177zM539.002 -569.997c26.667 38 43.333 75 50 111s10 80.667 10 134v66v66l83 6c34.667 -1.33301 60.667 -11.666 78 -30.999s26 -44 26 -74c0 -34.667 -6.83301 -69.167 -20.5 -103.5s-33 -66.333 -58 -96
s-54.5 -54.834 -88.5 -75.501z" />
    <glyph glyph-name="uni0157" unicode="&#x157;" horiz-adv-x="799" 
d="M172 0l-0.00488281 213.001v225v100v225v229l144 10l5 -202h17c27.333 60.667 58.833 106.5 94.5 137.5s71.834 51.833 108.501 62.5s70.334 16 101.001 16c18.667 0 37.334 -1.33301 56.001 -4s36.334 -7 53.001 -13l-15 -166c-22 4 -41.833 7.33301 -59.5 10
s-38.167 4 -61.5 4c-19.333 0 -41.166 -2.83301 -65.499 -8.5s-49.333 -17.334 -75 -35.001s-50.5 -44 -74.5 -79s-45 -81.5 -63 -139.5v-154v-218.5v-212.5h-165zM118.995 -569.999c26.667 38 43.333 75 50 111s10 80.667 10 134v66v66l83 6
c34.667 -1.33301 60.667 -11.666 78 -30.999s26 -44 26 -74c0 -34.667 -6.83301 -69.167 -20.5 -103.5s-33 -66.333 -58 -96s-54.5 -54.834 -88.5 -75.501z" />
    </font>
</defs>
</svg>
